<svg width="778" height="150" viewBox="0 0 778 150" fill="none" xmlns="http://www.w3.org/2000/svg">
<path d="M1.76465 114.447C6.67651 116.623 19.2417 119.669 30.2078 114.447C41.1738 109.224 45.0576 98.5268 45.6287 93.831C50.3121 84.8976 65.299 77.7508 87.7794 120.631C94.062 131.054 111.973 149.493 133.357 139.873C154.741 130.252 156.888 123.037 155.289 120.631C163.171 103.681 184.486 72.4592 206.692 83.1794C228.898 93.8996 246.558 69.3213 252.612 55.6922C254.669 48.9348 263.578 38.3063 282.769 49.8511C301.959 61.3959 322.521 41.3754 330.403 29.9221C336.571 18.9273 353.637 8.68851 372.553 55.6922C391.47 102.696 410.82 118.57 418.131 120.631C420.758 135.291 436.704 160.213 479.472 142.621C522.239 125.029 540.356 134.948 543.897 142.278C550.523 145.599 565.898 146.195 575.767 120.631C585.637 95.0677 595.872 93.9453 599.755 96.5795C611.521 102.193 641.454 104.246 638.438 85.0046C637.75 71.8122 646.56 46.46 687.307 50.5898C728.054 54.7196 746.5 38.3152 750.63 29.5968" stroke="#004FC5" stroke-width="2" stroke-linecap="round" stroke-dasharray="16 16"/>
<path d="M757.703 23.5935L757.933 23.5311L758.127 23.6713L765.536 29.0432L777.129 0.805213L746.64 10.6062L751.754 16.2668L751.86 16.3836L751.879 16.5399L752.924 24.8859L757.703 23.5935ZM772.383 4.24348L772.979 5.03949L754.4 22.4102L753.601 23.1569L753.559 22.0643L753.315 15.7849L753.303 15.4863L753.561 15.3347L772.383 4.24348Z" fill="#004FC5" stroke="#004FC5"/>
</svg>
