<svg width="64" height="65" viewBox="0 0 64 65" fill="none" xmlns="http://www.w3.org/2000/svg">
<g clip-path="url(#clip0_35_102)">
<rect y="0.5" width="64" height="64" rx="32" fill="#DAE6FF"/>
<g clip-path="url(#clip1_35_102)">
<path d="M44.6255 64.7532C44.4759 64.649 44.3884 64.4768 44.3924 64.2945C44.4019 63.8602 44.8913 63.6114 45.2478 63.8596L48.6614 66.2362C49.3222 66.6964 50.1946 66.7153 50.8747 66.2842L54.6233 63.9087C55.3038 63.4775 56.1766 63.4967 56.8375 63.9573L60.4749 66.4928C61.136 66.9536 62.009 66.9726 62.6896 66.5411L66.4338 64.167C67.1143 63.7354 67.9874 63.7545 68.6484 64.2153L72.2854 66.7504C72.9465 67.2113 73.8196 67.2303 74.5002 66.7987L78.0087 64.5737C78.3762 64.3407 78.8552 64.611 78.8458 65.046C78.8418 65.2285 78.7468 65.3968 78.5927 65.4946L74.4716 68.1079C73.7911 68.5395 72.918 68.5205 72.2569 68.0597L68.6199 65.5245C67.9588 65.0637 67.0857 65.0447 66.4052 65.4762L62.661 67.8503C61.9805 68.2819 61.1074 68.2628 60.4463 67.802L56.8089 65.2666C56.148 64.8059 55.2752 64.7867 54.5947 65.218L50.8465 67.5932C50.1662 68.0244 49.2936 68.0053 48.6327 67.5449L44.6255 64.7532Z" fill="#F0F5FF"/>
<path d="M44.7245 60.2175C44.5749 60.1133 44.4874 59.9412 44.4914 59.7589C44.5008 59.3245 44.9902 59.0757 45.3468 59.324L48.7604 61.7006C49.4212 62.1607 50.2935 62.1796 50.9737 61.7486L54.7222 59.3731C55.4028 58.9418 56.2756 58.961 56.9365 59.4217L60.5739 61.9571C61.2349 62.4179 62.108 62.437 62.7885 62.0054L66.5327 59.6313C67.2133 59.1998 68.0863 59.2188 68.7474 59.6796L72.3844 62.2148C73.0455 62.6756 73.9186 62.6946 74.5992 62.2631L78.1077 60.0381C78.4752 59.805 78.9542 60.0753 78.9447 60.5104C78.9407 60.6928 78.8457 60.8612 78.6916 60.9589L74.5706 63.5723C73.89 64.0039 73.0169 63.9848 72.3558 63.524L68.7188 60.9889C68.0578 60.5281 67.1847 60.509 66.5042 60.9405L62.76 63.3147C62.0794 63.7462 61.2064 63.7272 60.5453 63.2664L56.9079 60.7309C56.247 60.2702 55.3742 60.2511 54.6937 60.6823L50.9455 63.0576C50.2651 63.4887 49.3925 63.4697 48.7317 63.0093L44.7245 60.2175Z" fill="#F0F5FF"/>
<path d="M44.9224 51.1465C44.7728 51.0423 44.6853 50.8701 44.6893 50.6879C44.6988 50.2535 45.1882 50.0047 45.5447 50.2529L48.9583 52.6296C49.6191 53.0897 50.4915 53.1086 51.1716 52.6776L54.9202 50.302C55.6007 49.8708 56.4735 49.89 57.1344 50.3507L60.7718 52.8861C61.4329 53.3469 62.3059 53.3659 62.9865 52.9344L66.7306 50.5603C67.4112 50.1287 68.2843 50.1478 68.9453 50.6086L72.5823 53.1437C73.2434 53.6046 74.1165 53.6236 74.7971 53.192L78.3056 50.9671C78.6731 50.734 79.1521 51.0043 79.1426 51.4394C79.1387 51.6218 79.0437 51.7901 78.8896 51.8879L74.7685 54.5012C74.088 54.9328 73.2149 54.9138 72.5538 54.453L68.9168 51.9178C68.2557 51.457 67.3826 51.438 66.7021 51.8695L62.9579 54.2436C62.2774 54.6752 61.4043 54.6561 60.7432 54.1953L57.1058 51.6599C56.4449 51.1992 55.5721 51.18 54.8916 51.6113L51.1434 53.9865C50.4631 54.4177 49.5905 54.3986 48.9296 53.9382L44.9224 51.1465Z" fill="#F0F5FF"/>
<path d="M44.8234 55.6821C44.6738 55.5779 44.5864 55.4058 44.5903 55.2235C44.5998 54.7891 45.0892 54.5403 45.4458 54.7886L48.8593 57.1652C49.5202 57.6253 50.3925 57.6442 51.0727 57.2132L54.8212 54.8377C55.5017 54.4064 56.3745 54.4256 57.0354 54.8863L60.6728 57.4217C61.3339 57.8825 62.2069 57.9016 62.8875 57.47L66.6317 55.0959C67.3122 54.6644 68.1853 54.6834 68.8464 55.1442L72.4834 57.6794C73.1445 58.1402 74.0176 58.1592 74.6981 57.7277L78.2067 55.5027C78.5742 55.2696 79.0532 55.5399 79.0437 55.975C79.0397 56.1574 78.9447 56.3258 78.7906 56.4235L74.6696 59.0369C73.989 59.4685 73.1159 59.4494 72.4548 58.9886L68.8178 56.4535C68.1567 55.9927 67.2837 55.9736 66.6031 56.4051L62.8589 58.7793C62.1784 59.2108 61.3053 59.1918 60.6442 58.731L57.0069 56.1955C56.346 55.7348 55.4731 55.7157 54.7926 56.1469L51.0444 58.5222C50.3641 58.9533 49.4915 58.9343 48.8306 58.4739L44.8234 55.6821Z" fill="#F0F5FF"/>
<path d="M45.0214 46.6113C44.8718 46.5071 44.7843 46.335 44.7883 46.1527C44.7977 45.7183 45.2871 45.4695 45.6437 45.7178L49.0572 48.0944C49.7181 48.5545 50.5904 48.5734 51.2706 48.1424L55.0191 45.7669C55.6996 45.3356 56.5725 45.3548 57.2334 45.8155L60.8707 48.3509C61.5318 48.8117 62.4049 48.8308 63.0854 48.3992L66.8296 46.0251C67.5102 45.5936 68.3832 45.6126 69.0443 46.0734L72.6813 48.6086C73.3424 49.0694 74.2155 49.0884 74.8961 48.6569L78.4046 46.4319C78.7721 46.1988 79.2511 46.4691 79.2416 46.9042C79.2376 47.0866 79.1426 47.255 78.9885 47.3527L74.8675 49.9661C74.1869 50.3977 73.3138 50.3786 72.6527 49.9178L69.0157 47.3827C68.3546 46.9219 67.4816 46.9028 66.801 47.3343L63.0569 49.7085C62.3763 50.14 61.5033 50.121 60.8422 49.6602L57.2048 47.1247C56.5439 46.664 55.6711 46.6449 54.9906 47.0761L51.2424 49.4514C50.562 49.8825 49.6894 49.8635 49.0285 49.4031L45.0214 46.6113Z" fill="#F0F5FF"/>
</g>
<g clip-path="url(#clip2_35_102)">
<path d="M17.9178 16.091C17.7916 15.6967 18.0089 15.2748 18.4032 15.1486C18.7975 15.0224 19.2195 15.2397 19.3457 15.634C19.4719 16.0283 19.2546 16.4502 18.8603 16.5764C18.466 16.7026 18.0441 16.4853 17.9178 16.091Z" fill="#2BB4A0"/>
<path d="M16.7533 12.4531C16.6271 12.0588 16.8444 11.6369 17.2387 11.5106C17.633 11.3844 18.055 11.6017 18.1812 11.996C18.3074 12.3903 18.0901 12.8123 17.6958 12.9385C17.3015 13.0647 16.8795 12.8474 16.7533 12.4531Z" fill="#2BB4A0"/>
<path d="M15.5888 8.81516C15.4626 8.42087 15.6799 7.99892 16.0742 7.8727C16.4685 7.74649 16.8904 7.96381 17.0166 8.3581C17.1429 8.75239 16.9255 9.17434 16.5313 9.30055C16.137 9.42676 15.715 9.20944 15.5888 8.81516Z" fill="#2BB4A0"/>
<path d="M14.4243 5.17722C14.2981 4.78293 14.5154 4.36098 14.9097 4.23476C15.304 4.10855 15.7259 4.32587 15.8521 4.72016C15.9783 5.11445 15.761 5.5364 15.3667 5.66261C14.9724 5.78882 14.5505 5.57151 14.4243 5.17722Z" fill="#2BB4A0"/>
<path d="M13.2598 1.53928C13.1336 1.14499 13.3509 0.723038 13.7452 0.596825C14.1395 0.470612 14.5614 0.68793 14.6876 1.08222C14.8138 1.47651 14.5965 1.89846 14.2022 2.02467C13.8079 2.15088 13.386 1.93356 13.2598 1.53928Z" fill="#2BB4A0"/>
<path d="M14.271 17.2585C14.1448 16.8642 14.3621 16.4423 14.7564 16.3161C15.1507 16.1899 15.5726 16.4072 15.6988 16.8015C15.8251 17.1957 15.6077 17.6177 15.2134 17.7439C14.8192 17.8701 14.3972 17.6528 14.271 17.2585Z" fill="#2BB4A0"/>
<path d="M13.1065 13.6206C12.9803 13.2263 13.1976 12.8043 13.5919 12.6781C13.9862 12.5519 14.4081 12.7692 14.5343 13.1635C14.6605 13.5578 14.4432 13.9798 14.0489 14.106C13.6546 14.2322 13.2327 14.0149 13.1065 13.6206Z" fill="#2BB4A0"/>
<path d="M11.942 9.98239C11.8157 9.5881 12.0331 9.16615 12.4274 9.03994C12.8216 8.91373 13.2436 9.13105 13.3698 9.52533C13.496 9.91962 13.2787 10.3416 12.8844 10.4678C12.4901 10.594 12.0682 10.3767 11.942 9.98239Z" fill="#2BB4A0"/>
<path d="M10.7774 6.34445C10.6512 5.95016 10.8685 5.52821 11.2628 5.402C11.6571 5.27579 12.0791 5.49311 12.2053 5.8874C12.3315 6.28168 12.1142 6.70363 11.7199 6.82985C11.3256 6.95606 10.9037 6.73874 10.7774 6.34445Z" fill="#2BB4A0"/>
<path d="M9.61292 2.70651C9.48671 2.31222 9.70403 1.89027 10.0983 1.76406C10.4926 1.63785 10.9146 1.85517 11.0408 2.24946C11.167 2.64374 10.9497 3.06569 10.5554 3.19191C10.1611 3.31812 9.73914 3.1008 9.61292 2.70651Z" fill="#2BB4A0"/>
<path d="M10.6241 18.4258C10.4979 18.0315 10.7153 17.6095 11.1095 17.4833C11.5038 17.3571 11.9258 17.5744 12.052 17.9687C12.1782 18.363 11.9609 18.7849 11.5666 18.9111C11.1723 19.0374 10.7504 18.82 10.6241 18.4258Z" fill="#2BB4A0"/>
<path d="M9.45963 14.7878C9.33342 14.3935 9.55074 13.9716 9.94502 13.8454C10.3393 13.7191 10.7613 13.9365 10.8875 14.3308C11.0137 14.725 10.7964 15.147 10.4021 15.2732C10.0078 15.3994 9.58584 15.1821 9.45963 14.7878Z" fill="#2BB4A0"/>
<path d="M8.29511 11.1499C8.1689 10.7556 8.38622 10.3336 8.7805 10.2074C9.17479 10.0812 9.59674 10.2985 9.72296 10.6928C9.84917 11.0871 9.63185 11.5091 9.23756 11.6353C8.84327 11.7615 8.42132 11.5442 8.29511 11.1499Z" fill="#2BB4A0"/>
<path d="M7.13059 7.51193C7.00438 7.11764 7.2217 6.69569 7.61599 6.56948C8.01028 6.44327 8.43223 6.66059 8.55844 7.05488C8.68465 7.44917 8.46733 7.87111 8.07305 7.99733C7.67876 8.12354 7.25681 7.90622 7.13059 7.51193Z" fill="#2BB4A0"/>
<path d="M5.96608 3.87399C5.83986 3.4797 6.05718 3.05775 6.45147 2.93154C6.84576 2.80533 7.26771 3.02265 7.39392 3.41694C7.52014 3.81122 7.30282 4.23318 6.90853 4.35939C6.51424 4.4856 6.09229 4.26828 5.96608 3.87399Z" fill="#2BB4A0"/>
<path d="M4.80156 0.236053C4.67535 -0.158236 4.89267 -0.580184 5.28696 -0.706397C5.68124 -0.832609 6.10319 -0.615293 6.22941 -0.221004C6.35562 0.173285 6.1383 0.595236 5.74401 0.721448C5.34972 0.847661 4.92777 0.630342 4.80156 0.236053Z" fill="#2BB4A0"/>
<path d="M6.9773 19.5932C6.85109 19.1989 7.06841 18.777 7.46269 18.6508C7.85698 18.5246 8.27893 18.7419 8.40515 19.1362C8.53136 19.5305 8.31404 19.9524 7.91975 20.0786C7.52546 20.2048 7.10351 19.9875 6.9773 19.5932Z" fill="#2BB4A0"/>
<path d="M5.81278 15.9553C5.68657 15.561 5.90389 15.1391 6.29818 15.0128C6.69247 14.8866 7.11442 15.1039 7.24063 15.4982C7.36684 15.8925 7.14952 16.3145 6.75524 16.4407C6.36095 16.5669 5.939 16.3496 5.81278 15.9553Z" fill="#2BB4A0"/>
<path d="M4.64827 12.3174C4.52206 11.9231 4.73937 11.5011 5.13366 11.3749C5.52795 11.2487 5.9499 11.466 6.07611 11.8603C6.20233 12.2546 5.98501 12.6765 5.59072 12.8027C5.19643 12.929 4.77448 12.7116 4.64827 12.3174Z" fill="#2BB4A0"/>
<path d="M3.33072 20.7605C3.20451 20.3662 3.42183 19.9442 3.81612 19.818C4.21041 19.6918 4.63236 19.9091 4.75857 20.3034C4.88478 20.6977 4.66746 21.1196 4.27317 21.2459C3.87889 21.3721 3.45694 21.1548 3.33072 20.7605Z" fill="#2BB4A0"/>
<path d="M2.1662 17.1225C2.03999 16.7282 2.25731 16.3063 2.6516 16.1801C3.04589 16.0539 3.46784 16.2712 3.59405 16.6655C3.72026 17.0598 3.50294 17.4817 3.10866 17.6079C2.71437 17.7341 2.29242 17.5168 2.1662 17.1225Z" fill="#2BB4A0"/>
<path d="M1.00169 13.4846C0.875476 13.0903 1.09279 12.6684 1.48708 12.5421C1.88137 12.4159 2.30332 12.6332 2.42953 13.0275C2.55575 13.4218 2.33843 13.8438 1.94414 13.97C1.54985 14.0962 1.1279 13.8789 1.00169 13.4846Z" fill="#2BB4A0"/>
<path d="M-0.316124 21.9277C-0.442337 21.5334 -0.225018 21.1115 0.169271 20.9853C0.56356 20.859 0.985511 21.0764 1.11172 21.4706C1.23794 21.8649 1.02062 22.2869 0.626328 22.4131C0.232039 22.5393 -0.189911 22.322 -0.316124 21.9277Z" fill="#2BB4A0"/>
<path d="M-1.48064 18.2898C-1.60685 17.8955 -1.38954 17.4735 -0.995247 17.3473C-0.600958 17.2211 -0.179008 17.4384 -0.052795 17.8327C0.0734178 18.227 -0.143901 18.6489 -0.53819 18.7752C-0.932479 18.9014 -1.35443 18.6841 -1.48064 18.2898Z" fill="#2BB4A0"/>
</g>
<g clip-path="url(#clip3_35_102)">
<rect x="18" y="25" width="20" height="22" fill="white"/>
<path d="M32.9961 16.9922C32.8375 16.9922 30.7903 16.9922 30.0078 16.9922C30.0078 15.8919 29.1159 15 28.0156 15C26.9153 15 26.0234 15.8919 26.0234 16.9922C25.3007 16.9922 24.8935 16.9922 23.0352 16.9922C22.485 16.9922 22.0391 17.5046 22.0391 18.0547V19.0508C22.0391 20.1511 22.931 21.043 24.0312 21.043H32C33.1003 21.043 33.9922 20.1511 33.9922 19.0508V18.0547C33.9922 17.5046 33.5462 16.9922 32.9961 16.9922Z" fill="#2BB4A0"/>
<path d="M38.043 19.0508H36.0508C36.0508 21.2482 34.1974 23.0352 32 23.0352H24.0312C21.8338 23.0352 20.0469 21.2482 20.0469 19.0508H18.0547C16.4069 19.0508 15 20.3913 15 22.0391V45.9453C15 47.5931 16.4069 49 18.0547 49H38.043C39.6908 49 41.0312 47.5931 41.0312 45.9453V22.0391C41.0312 20.3913 39.6908 19.0508 38.043 19.0508ZM19.3426 26.7277C18.9536 26.3386 18.9536 25.7082 19.3426 25.3191C19.7317 24.9301 20.3621 24.9301 20.7512 25.3191L22.0391 26.6071L23.327 25.3191C23.7161 24.9301 24.3465 24.9301 24.7356 25.3191C25.1246 25.7082 25.1246 26.3386 24.7356 26.7277L23.4476 28.0156L24.7356 29.3036C25.1246 29.6926 25.1246 30.323 24.7356 30.7121C24.3465 31.1012 23.7161 31.1012 23.327 30.7121L22.0391 29.4242L20.7511 30.7121C20.362 31.1012 19.7316 31.1012 19.3426 30.7121C18.9535 30.323 18.9535 29.6926 19.3426 29.3036L20.6305 28.0156L19.3426 26.7277ZM26.7277 40.673L22.7434 44.6574C22.5488 44.8519 22.2939 44.9492 22.0391 44.9492C21.7843 44.9492 21.5294 44.8519 21.3349 44.6574L19.3427 42.6652C18.9535 42.2761 18.9535 41.6458 19.3426 41.2567C19.7317 40.8676 20.3621 40.8676 20.7512 41.2567L22.0391 42.5446L25.3192 39.2644C25.7083 38.8754 26.3387 38.8754 26.7277 39.2644C27.1168 39.6535 27.1168 40.2839 26.7277 40.673ZM26.7277 33.7003L22.7434 37.6847C22.5488 37.8793 22.2939 37.9766 22.0391 37.9766C21.7843 37.9766 21.5294 37.8793 21.3349 37.6847L19.3427 35.6925C18.9535 35.3034 18.9535 34.6731 19.3426 34.284C19.7317 33.895 20.3621 33.895 20.7512 34.284L22.0391 35.5719L25.3192 32.2918C25.7083 31.9027 26.3387 31.9027 26.7277 32.2918C27.1168 32.6809 27.1168 33.3113 26.7277 33.7003ZM36.0508 42.957H30.0078C29.4572 42.957 29.0117 42.5115 29.0117 41.9609C29.0117 41.4104 29.4572 40.9648 30.0078 40.9648H36.0508C36.6014 40.9648 37.0469 41.4104 37.0469 41.9609C37.0469 42.5115 36.6014 42.957 36.0508 42.957ZM36.0508 35.9844H30.0078C29.4572 35.9844 29.0117 35.5389 29.0117 34.9883C29.0117 34.4377 29.4572 33.9922 30.0078 33.9922H36.0508C36.6014 33.9922 37.0469 34.4377 37.0469 34.9883C37.0469 35.5389 36.6014 35.9844 36.0508 35.9844ZM36.0508 29.0117H30.0078C29.4572 29.0117 29.0117 28.5662 29.0117 28.0156C29.0117 27.4651 29.4572 27.0195 30.0078 27.0195H36.0508C36.6014 27.0195 37.0469 27.4651 37.0469 28.0156C37.0469 28.5662 36.6014 29.0117 36.0508 29.0117Z" fill="#2BB4A0"/>
<path d="M46.0117 21.043C44.3639 21.043 43.0234 22.3834 43.0234 24.0312V27.0195H48.9999V24.0312C48.9999 22.3834 47.6595 21.043 46.0117 21.043Z" fill="white"/>
<path d="M43.0236 29.0117V39.5562L43.3154 39.2644C44.8018 37.7781 47.222 37.7781 48.7083 39.2644L49.0002 39.5563V29.0117H43.0236Z" fill="#2BB4A0"/>
<path d="M47.2996 40.6729C46.5895 39.9629 45.4339 39.9629 44.7238 40.6729L43.5844 41.8123L45.0672 46.2604C45.2024 46.667 45.5827 46.9414 46.0117 46.9414C46.4406 46.9414 46.821 46.667 46.9562 46.2604L48.4389 41.8123L47.2996 40.6729Z" fill="#2BB4A0"/>
<path d="M44.9711 18.9422C45.5075 18.9422 45.9423 18.5075 45.9423 17.9711C45.9423 17.4348 45.5075 17 44.9711 17C44.4348 17 44 17.4348 44 17.9711C44 18.5075 44.4348 18.9422 44.9711 18.9422Z" fill="#2BB4A0"/>
</g>
<path d="M42.5 15C43.3284 15 44 14.3284 44 13.5C44 12.6716 43.3284 12 42.5 12C41.6716 12 41 12.6716 41 13.5C41 14.3284 41.6716 15 42.5 15Z" fill="#2BB4A0"/>
</g>
<defs>
<clipPath id="clip0_35_102">
<rect y="0.5" width="64" height="64" rx="32" fill="white"/>
</clipPath>
<clipPath id="clip1_35_102">
<rect width="34.4615" height="23.3846" fill="white" transform="translate(78.7608 68.9385) rotate(-178.75)"/>
</clipPath>
<clipPath id="clip2_35_102">
<rect width="28.3031" height="28.3031" fill="white" transform="matrix(-0.304864 -0.952396 -0.952396 0.304864 19.5841 16.3789)"/>
</clipPath>
<clipPath id="clip3_35_102">
<rect width="34" height="34" fill="white" transform="translate(15 15)"/>
</clipPath>
</defs>
</svg>
