<svg width="22" height="28" viewBox="0 0 22 28" fill="none" xmlns="http://www.w3.org/2000/svg">
<path d="M11.6234 27.7606L20.9563 19.3611C21.1541 19.1819 21.2661 18.9318 21.2661 18.6667L21.2661 13.067C21.2661 12.6993 21.0496 12.3652 20.7136 12.214C20.3758 12.0647 19.9819 12.1263 19.7094 12.3727L11 20.2104L2.29247 12.3727C2.01809 12.1263 1.62424 12.0628 1.28826 12.214C0.950413 12.3652 0.733892 12.6993 0.733892 13.067L0.733892 18.6667C0.733892 18.9318 0.847751 19.1819 1.04188 19.3611L10.3747 27.7606C10.7293 28.0798 11.2707 28.0798 11.6234 27.7606Z" fill="url(#paint0_linear_187_464)"/>
<path d="M11.6234 15.6279L20.9563 7.22839C21.1541 7.0492 21.2661 6.79908 21.2661 6.53403L21.2661 0.934332C21.2661 0.566619 21.0496 0.232504 20.7136 0.0813118C20.3758 -0.0680134 19.9819 -0.0064168 19.7094 0.23997L11 8.07768L2.29247 0.239969C2.01809 -0.00641759 1.62424 -0.0698808 1.28826 0.081311C0.950413 0.232503 0.733892 0.566618 0.733892 0.934331L0.733892 6.53403C0.733892 6.79908 0.847751 7.0492 1.04188 7.22839L10.3747 15.6279C10.7293 15.9471 11.2707 15.9471 11.6234 15.6279Z" fill="url(#paint1_linear_187_464)"/>
<defs>
<linearGradient id="paint0_linear_187_464" x1="12.5" y1="11.8493" x2="12.6606" y2="28.57" gradientUnits="userSpaceOnUse">
<stop stop-color="#DCE7FF"/>
<stop offset="1" stop-color="#B6CDFF"/>
</linearGradient>
<linearGradient id="paint1_linear_187_464" x1="12.5" y1="-0.283345" x2="12.6606" y2="16.4373" gradientUnits="userSpaceOnUse">
<stop stop-color="#DCE7FF"/>
<stop offset="1" stop-color="#B6CDFF"/>
</linearGradient>
</defs>
</svg>
