<svg width="1209" height="414" viewBox="0 0 1209 414" fill="none" xmlns="http://www.w3.org/2000/svg">
<g clip-path="url(#clip0_28_2305)">
<rect width="1209" height="414" rx="25" fill="#F5F8FE"/>
<path d="M316.95 412C296.279 411.826 272.442 402.067 259.439 376.973C246.436 351.879 226.933 306.571 208.429 288.622C191.926 273.461 148.117 249.517 104.909 275.029C61.7003 300.541 2.22196 264.399 -22.1161 243.139C-59.2901 209.681 -106.533 139.522 1.88857 126.557C28.8939 123.42 83.7046 104.6 86.9052 54.4123C89.5724 32.2809 117.611 6.10664 208.429 78.4606C216.931 84.5598 248.937 90.38 308.949 64.8679C321.616 60.0786 343.75 44.2 330.95 19L321.45 1" stroke="#004FC5" stroke-width="2" stroke-linecap="round" stroke-linejoin="round" stroke-dasharray="16 16"/>
<path d="M813 411.5C833.167 373.167 897.3 305.9 992.5 343.5C1087.7 381.1 1119.5 309.5 1111.5 271.501C1104.67 244.168 1104.3 195.501 1157.5 219.501C1210.7 243.501 1202 179.834 1191 145C1174 111.834 1124.5 65.4003 1062.5 145C1000.5 224.6 956.667 148.5 942.5 100.5C936.5 67.6254 945.4 11.8006 1029 51.5002C1112.6 91.1998 1160 34.7082 1173.5 1" stroke="#004FC5" stroke-width="2" stroke-linecap="round" stroke-linejoin="round" stroke-dasharray="16 16"/>
<circle r="30.5" transform="matrix(-0.700909 0.71325 0.71325 0.700909 1156.13 167.132)" fill="#FFC700"/>
<circle r="11.5" transform="matrix(-0.700909 0.71325 0.71325 0.700909 1038.48 206.216)" fill="#004FC5"/>
<circle r="15.5" transform="matrix(-0.700909 0.71325 0.71325 0.700909 1018.05 134.266)" fill="#FF685D"/>
<circle r="15.5" transform="matrix(-0.700909 0.71325 0.71325 0.700909 1107.92 27.9196)" fill="#004FC5"/>
<circle r="15.5" transform="matrix(-0.700909 0.71325 0.71325 0.700909 1140.92 346.92)" fill="#FF685D"/>
<circle r="5" transform="matrix(-0.700909 0.71325 0.71325 0.700909 1179.18 284.894)" fill="#004FC5"/>
<circle cx="70.5" cy="183.5" r="30.5" fill="#004FC5"/>
<circle cx="171.5" cy="108.5" r="11.5" fill="#FF685D"/>
<circle cx="134.5" cy="43.5" r="15.5" fill="#FFC700"/>
<circle cx="149.5" cy="318.5" r="15.5" fill="#FFC700"/>
<circle cx="129" cy="264" r="5" fill="#004FC5"/>
<circle cx="40.5" cy="353.5" r="11.5" fill="#FF685D"/>
<path d="M346.748 86H338.842V81.7812H346.482C348.92 81.7812 350.946 81.3229 352.561 80.4062C354.175 79.4792 355.383 78.1406 356.186 76.3906C356.988 74.6302 357.389 72.4844 357.389 69.9531C357.389 67.4427 356.988 65.3125 356.186 63.5625C355.394 61.8125 354.212 60.4844 352.639 59.5781C351.066 58.6719 349.113 58.2187 346.779 58.2187H338.67V54H347.076C350.212 54 352.904 54.6406 355.154 55.9219C357.404 57.1927 359.128 59.0208 360.326 61.4062C361.535 63.7812 362.139 66.6302 362.139 69.9531C362.139 73.2865 361.529 76.151 360.311 78.5469C359.102 80.9427 357.352 82.7865 355.061 84.0781C352.769 85.3594 349.998 86 346.748 86ZM341.217 54V86H336.389V54H341.217ZM331.607 70.9844V67.7656H345.967V70.9844H331.607ZM374.752 86.5313C373.231 86.5313 371.856 86.25 370.627 85.6875C369.398 85.1146 368.424 84.2865 367.705 83.2031C366.997 82.1198 366.643 80.7917 366.643 79.2187C366.643 77.8646 366.903 76.75 367.424 75.875C367.945 75 368.648 74.3073 369.533 73.7969C370.419 73.2865 371.408 72.901 372.502 72.6406C373.596 72.3802 374.71 72.1823 375.846 72.0469C377.283 71.8802 378.45 71.7448 379.346 71.6406C380.242 71.526 380.893 71.3437 381.299 71.0938C381.705 70.8437 381.908 70.4375 381.908 69.875V69.7656C381.908 68.401 381.523 67.3437 380.752 66.5937C379.992 65.8437 378.856 65.4687 377.346 65.4687C375.773 65.4687 374.533 65.8177 373.627 66.5156C372.731 67.2031 372.111 67.9687 371.768 68.8125L367.377 67.8125C367.898 66.3542 368.658 65.1771 369.658 64.2812C370.669 63.375 371.83 62.7187 373.143 62.3125C374.455 61.8958 375.835 61.6875 377.283 61.6875C378.242 61.6875 379.257 61.8021 380.33 62.0313C381.413 62.25 382.424 62.6562 383.361 63.25C384.309 63.8437 385.085 64.6927 385.689 65.7969C386.294 66.8906 386.596 68.3125 386.596 70.0625V86H382.033V82.7187H381.846C381.544 83.3229 381.09 83.9167 380.486 84.5C379.882 85.0833 379.106 85.5677 378.158 85.9531C377.21 86.3385 376.075 86.5313 374.752 86.5313ZM375.768 82.7812C377.059 82.7812 378.163 82.526 379.08 82.0156C380.007 81.5052 380.71 80.8385 381.189 80.0156C381.679 79.1823 381.924 78.2917 381.924 77.3438V74.25C381.757 74.4167 381.434 74.5729 380.955 74.7187C380.486 74.8542 379.95 74.974 379.346 75.0781C378.742 75.1719 378.153 75.2604 377.58 75.3438C377.007 75.4167 376.528 75.4792 376.143 75.5312C375.236 75.6458 374.408 75.8385 373.658 76.1094C372.919 76.3802 372.325 76.7708 371.877 77.2812C371.439 77.7812 371.221 78.4479 371.221 79.2812C371.221 80.4375 371.648 81.3125 372.502 81.9062C373.356 82.4896 374.445 82.7812 375.768 82.7812ZM380.596 53.875H384.439C384.439 55.6354 383.814 57.0677 382.564 58.1719C381.325 59.2656 379.648 59.8125 377.533 59.8125C375.429 59.8125 373.757 59.2656 372.518 58.1719C371.278 57.0677 370.658 55.6354 370.658 53.875H374.486C374.486 54.6562 374.715 55.349 375.174 55.9531C375.632 56.5469 376.419 56.8437 377.533 56.8437C378.627 56.8437 379.408 56.5469 379.877 55.9531C380.356 55.3594 380.596 54.6667 380.596 53.875ZM397.49 71.75V86H392.818V62H397.303V65.9062H397.6C398.152 64.6354 399.016 63.6146 400.193 62.8437C401.381 62.0729 402.876 61.6875 404.678 61.6875C406.313 61.6875 407.745 62.0313 408.975 62.7188C410.204 63.3958 411.157 64.4062 411.834 65.75C412.511 67.0937 412.85 68.7552 412.85 70.7344V86H408.178V71.2969C408.178 69.5573 407.725 68.1979 406.818 67.2187C405.912 66.2292 404.667 65.7344 403.084 65.7344C402.001 65.7344 401.037 65.9687 400.193 66.4375C399.36 66.9062 398.699 67.5937 398.209 68.5C397.73 69.3958 397.49 70.4792 397.49 71.75ZM429.178 95.5C427.271 95.5 425.631 95.25 424.256 94.75C422.891 94.25 421.777 93.5885 420.912 92.7656C420.048 91.9427 419.402 91.0417 418.975 90.0625L422.99 88.4062C423.271 88.8646 423.646 89.349 424.115 89.8594C424.594 90.3802 425.24 90.8229 426.053 91.1875C426.876 91.5521 427.933 91.7344 429.225 91.7344C430.995 91.7344 432.459 91.3021 433.615 90.4375C434.771 89.5833 435.35 88.2187 435.35 86.3438V81.625H435.053C434.771 82.1354 434.365 82.7031 433.834 83.3281C433.313 83.9531 432.594 84.4948 431.678 84.9531C430.761 85.4115 429.568 85.6406 428.1 85.6406C426.204 85.6406 424.495 85.1979 422.975 84.3125C421.464 83.4167 420.266 82.099 419.381 80.3594C418.506 78.6094 418.068 76.4583 418.068 73.9062C418.068 71.3542 418.501 69.1667 419.365 67.3437C420.24 65.5208 421.438 64.125 422.959 63.1563C424.48 62.1771 426.204 61.6875 428.131 61.6875C429.62 61.6875 430.824 61.9375 431.74 62.4375C432.657 62.9271 433.37 63.5 433.881 64.1562C434.402 64.8125 434.803 65.3906 435.084 65.8906H435.428V62H440.006V86.5313C440.006 88.5938 439.527 90.2865 438.568 91.6094C437.61 92.9323 436.313 93.9115 434.678 94.5469C433.053 95.1823 431.219 95.5 429.178 95.5ZM429.131 81.7656C430.475 81.7656 431.61 81.4531 432.537 80.8281C433.475 80.1927 434.183 79.2865 434.662 78.1094C435.152 76.9219 435.396 75.5 435.396 73.8438C435.396 72.2292 435.157 70.8073 434.678 69.5781C434.199 68.349 433.495 67.3906 432.568 66.7031C431.641 66.0052 430.495 65.6562 429.131 65.6562C427.725 65.6562 426.553 66.0208 425.615 66.75C424.678 67.4687 423.969 68.4479 423.49 69.6875C423.021 70.9271 422.787 72.3125 422.787 73.8438C422.787 75.4167 423.027 76.7969 423.506 77.9844C423.985 79.1719 424.693 80.099 425.631 80.7656C426.579 81.4323 427.745 81.7656 429.131 81.7656ZM462.213 77.8594L462.182 72.1562H462.994L472.557 62H478.15L467.244 73.5625H466.51L462.213 77.8594ZM457.916 86V54H462.588V86H457.916ZM473.072 86L464.479 74.5937L467.697 71.3281L478.807 86H473.072ZM485.49 95C484.792 95 484.157 94.9427 483.584 94.8281C483.011 94.724 482.584 94.6094 482.303 94.4844L483.428 90.6563C484.282 90.8854 485.042 90.9844 485.709 90.9531C486.376 90.9219 486.964 90.6719 487.475 90.2031C487.995 89.7344 488.454 88.9687 488.85 87.9062L489.428 86.3125L480.646 62H485.646L491.725 80.625H491.975L498.053 62H503.068L493.178 89.2031C492.719 90.4531 492.136 91.5104 491.428 92.375C490.719 93.25 489.876 93.9063 488.896 94.3438C487.917 94.7813 486.782 95 485.49 95ZM489.912 58.7969L493.568 51.5937H498.49L493.646 58.7969H489.912ZM523.775 71.75V86H519.104V54H523.713V65.9062H524.01C524.572 64.6146 525.432 63.5885 526.588 62.8281C527.744 62.0677 529.255 61.6875 531.119 61.6875C532.765 61.6875 534.202 62.026 535.432 62.7031C536.671 63.3802 537.63 64.3906 538.307 65.7344C538.994 67.0677 539.338 68.7344 539.338 70.7344V86H534.666V71.2969C534.666 69.5365 534.213 68.1719 533.307 67.2031C532.4 66.224 531.14 65.7344 529.525 65.7344C528.421 65.7344 527.432 65.9687 526.557 66.4375C525.692 66.9062 525.01 67.5937 524.51 68.5C524.02 69.3958 523.775 70.4792 523.775 71.75ZM555.682 86.4844C553.432 86.4844 551.468 85.9688 549.791 84.9375C548.114 83.9062 546.812 82.4635 545.885 80.6094C544.958 78.7552 544.494 76.5885 544.494 74.1094C544.494 71.6198 544.958 69.4427 545.885 67.5781C546.812 65.7135 548.114 64.2656 549.791 63.2344C551.468 62.2031 553.432 61.6875 555.682 61.6875C557.932 61.6875 559.895 62.2031 561.572 63.2344C563.249 64.2656 564.551 65.7135 565.479 67.5781C566.406 69.4427 566.869 71.6198 566.869 74.1094C566.869 76.5885 566.406 78.7552 565.479 80.6094C564.551 82.4635 563.249 83.9062 561.572 84.9375C559.895 85.9688 557.932 86.4844 555.682 86.4844ZM555.697 82.5625C557.156 82.5625 558.364 82.1771 559.322 81.4062C560.281 80.6354 560.989 79.6094 561.447 78.3281C561.916 77.0469 562.15 75.6354 562.15 74.0937C562.15 72.5625 561.916 71.1562 561.447 69.875C560.989 68.5833 560.281 67.5469 559.322 66.7656C558.364 65.9844 557.156 65.5937 555.697 65.5937C554.229 65.5937 553.01 65.9844 552.041 66.7656C551.083 67.5469 550.369 68.5833 549.9 69.875C549.442 71.1562 549.213 72.5625 549.213 74.0937C549.213 75.6354 549.442 77.0469 549.9 78.3281C550.369 79.6094 551.083 80.6354 552.041 81.4062C553.01 82.1771 554.229 82.5625 555.697 82.5625ZM555.682 94.2813C554.88 94.2813 554.187 94.0104 553.604 93.4688C553.02 92.9271 552.729 92.2708 552.729 91.5C552.729 90.7292 553.02 90.0729 553.604 89.5313C554.187 88.9896 554.88 88.7188 555.682 88.7188C556.494 88.7188 557.187 88.9896 557.76 89.5313C558.343 90.0729 558.635 90.7292 558.635 91.5C558.635 92.2708 558.343 92.9271 557.76 93.4688C557.187 94.0104 556.494 94.2813 555.682 94.2813ZM582.193 86.4844C579.87 86.4844 577.87 85.9583 576.193 84.9062C574.527 83.8437 573.245 82.3802 572.35 80.5156C571.454 78.651 571.006 76.5156 571.006 74.1094C571.006 71.6719 571.464 69.5208 572.381 67.6562C573.298 65.7812 574.589 64.3177 576.256 63.2656C577.923 62.2135 579.886 61.6875 582.146 61.6875C583.969 61.6875 585.594 62.026 587.021 62.7031C588.449 63.3698 589.6 64.3073 590.475 65.5156C591.36 66.724 591.886 68.1354 592.053 69.75H587.506C587.256 68.625 586.683 67.6562 585.787 66.8437C584.902 66.0312 583.714 65.625 582.225 65.625C580.923 65.625 579.782 65.9687 578.803 66.6562C577.834 67.3333 577.079 68.3021 576.537 69.5625C575.995 70.8125 575.725 72.2917 575.725 74C575.725 75.75 575.99 77.2604 576.521 78.5312C577.053 79.8021 577.803 80.7865 578.771 81.4844C579.751 82.1823 580.902 82.5313 582.225 82.5313C583.11 82.5313 583.912 82.3698 584.631 82.0469C585.36 81.7135 585.969 81.2396 586.459 80.625C586.959 80.0104 587.308 79.2708 587.506 78.4062H592.053C591.886 79.9583 591.381 81.3437 590.537 82.5625C589.693 83.7812 588.563 84.7396 587.146 85.4375C585.74 86.1354 584.089 86.4844 582.193 86.4844ZM609.068 86V54H629.131V58.1562H613.896V67.9062H628.084V72.0469H613.896V81.8438H629.318V86H609.068ZM644.189 86.4688C642.252 86.4688 640.523 85.974 639.002 84.9844C637.492 83.9844 636.304 82.5625 635.439 80.7187C634.585 78.8646 634.158 76.6406 634.158 74.0469C634.158 71.4531 634.59 69.2344 635.455 67.3906C636.33 65.5469 637.528 64.1354 639.049 63.1563C640.57 62.1771 642.294 61.6875 644.221 61.6875C645.71 61.6875 646.908 61.9375 647.814 62.4375C648.731 62.9271 649.439 63.5 649.939 64.1562C650.45 64.8125 650.846 65.3906 651.127 65.8906H651.408V54H656.08V86H651.518V82.2656H651.127C650.846 82.776 650.439 83.3594 649.908 84.0156C649.387 84.6719 648.669 85.2448 647.752 85.7344C646.835 86.224 645.648 86.4688 644.189 86.4688ZM645.221 82.4844C646.564 82.4844 647.7 82.1302 648.627 81.4219C649.564 80.7031 650.273 79.7083 650.752 78.4375C651.242 77.1667 651.486 75.6875 651.486 74C651.486 72.3333 651.247 70.875 650.768 69.625C650.288 68.375 649.585 67.401 648.658 66.7031C647.731 66.0052 646.585 65.6562 645.221 65.6562C643.814 65.6562 642.643 66.0208 641.705 66.75C640.768 67.4792 640.059 68.474 639.58 69.7344C639.111 70.9948 638.877 72.4167 638.877 74C638.877 75.6042 639.117 77.0469 639.596 78.3281C640.075 79.6094 640.783 80.625 641.721 81.375C642.669 82.1146 643.835 82.4844 645.221 82.4844ZM677.951 76.0469V62H682.639V86H678.045V81.8438H677.795C677.243 83.125 676.357 84.1927 675.139 85.0469C673.93 85.8906 672.425 86.3125 670.623 86.3125C669.081 86.3125 667.717 85.974 666.529 85.2969C665.352 84.6094 664.425 83.5938 663.748 82.25C663.081 80.9062 662.748 79.2448 662.748 77.2656V62H667.42V76.7031C667.42 78.3385 667.873 79.6406 668.779 80.6094C669.686 81.5781 670.863 82.0625 672.311 82.0625C673.186 82.0625 674.055 81.8437 674.92 81.4062C675.795 80.9687 676.519 80.3073 677.092 79.4219C677.675 78.5365 677.962 77.4115 677.951 76.0469ZM688.916 95V62H693.479V65.8906H693.869C694.14 65.3906 694.531 64.8125 695.041 64.1562C695.551 63.5 696.26 62.9271 697.166 62.4375C698.072 61.9375 699.27 61.6875 700.76 61.6875C702.697 61.6875 704.426 62.1771 705.947 63.1563C707.468 64.1354 708.661 65.5469 709.525 67.3906C710.4 69.2344 710.838 71.4531 710.838 74.0469C710.838 76.6406 710.406 78.8646 709.541 80.7187C708.676 82.5625 707.489 83.9844 705.979 84.9844C704.468 85.974 702.744 86.4688 700.807 86.4688C699.348 86.4688 698.156 86.224 697.229 85.7344C696.312 85.2448 695.593 84.6719 695.072 84.0156C694.551 83.3594 694.15 82.776 693.869 82.2656H693.588V95H688.916ZM693.494 74C693.494 75.6875 693.739 77.1667 694.229 78.4375C694.718 79.7083 695.426 80.7031 696.354 81.4219C697.281 82.1302 698.416 82.4844 699.76 82.4844C701.156 82.4844 702.322 82.1146 703.26 81.375C704.197 80.625 704.906 79.6094 705.385 78.3281C705.874 77.0469 706.119 75.6042 706.119 74C706.119 72.4167 705.88 70.9948 705.4 69.7344C704.932 68.474 704.223 67.4792 703.275 66.75C702.338 66.0208 701.166 65.6562 699.76 65.6562C698.406 65.6562 697.26 66.0052 696.322 66.7031C695.395 67.401 694.692 68.375 694.213 69.625C693.734 70.875 693.494 72.3333 693.494 74ZM716.072 86V62H720.744V86H716.072ZM718.432 58.2969C717.619 58.2969 716.921 58.026 716.338 57.4844C715.765 56.9323 715.479 56.276 715.479 55.5156C715.479 54.7448 715.765 54.0885 716.338 53.5469C716.921 52.9948 717.619 52.7187 718.432 52.7187C719.244 52.7187 719.937 52.9948 720.51 53.5469C721.093 54.0885 721.385 54.7448 721.385 55.5156C721.385 56.276 721.093 56.9323 720.51 57.4844C719.937 58.026 719.244 58.2969 718.432 58.2969ZM734.014 86.5313C732.493 86.5313 731.118 86.25 729.889 85.6875C728.66 85.1146 727.686 84.2865 726.967 83.2031C726.258 82.1198 725.904 80.7917 725.904 79.2187C725.904 77.8646 726.165 76.75 726.686 75.875C727.206 75 727.91 74.3073 728.795 73.7969C729.68 73.2865 730.67 72.901 731.764 72.6406C732.857 72.3802 733.972 72.1823 735.107 72.0469C736.545 71.8802 737.712 71.7448 738.607 71.6406C739.503 71.526 740.154 71.3437 740.561 71.0938C740.967 70.8437 741.17 70.4375 741.17 69.875V69.7656C741.17 68.401 740.785 67.3437 740.014 66.5937C739.253 65.8437 738.118 65.4687 736.607 65.4687C735.035 65.4687 733.795 65.8177 732.889 66.5156C731.993 67.2031 731.373 67.9687 731.029 68.8125L726.639 67.8125C727.16 66.3542 727.92 65.1771 728.92 64.2812C729.93 63.375 731.092 62.7187 732.404 62.3125C733.717 61.8958 735.097 61.6875 736.545 61.6875C737.503 61.6875 738.519 61.8021 739.592 62.0313C740.675 62.25 741.686 62.6562 742.623 63.25C743.571 63.8437 744.347 64.6927 744.951 65.7969C745.555 66.8906 745.857 68.3125 745.857 70.0625V86H741.295V82.7187H741.107C740.805 83.3229 740.352 83.9167 739.748 84.5C739.144 85.0833 738.368 85.5677 737.42 85.9531C736.472 86.3385 735.337 86.5313 734.014 86.5313ZM735.029 82.7812C736.321 82.7812 737.425 82.526 738.342 82.0156C739.269 81.5052 739.972 80.8385 740.451 80.0156C740.941 79.1823 741.186 78.2917 741.186 77.3438V74.25C741.019 74.4167 740.696 74.5729 740.217 74.7187C739.748 74.8542 739.212 74.974 738.607 75.0781C738.003 75.1719 737.415 75.2604 736.842 75.3438C736.269 75.4167 735.79 75.4792 735.404 75.5312C734.498 75.6458 733.67 75.8385 732.92 76.1094C732.18 76.3802 731.587 76.7708 731.139 77.2812C730.701 77.7812 730.482 78.4479 730.482 79.2812C730.482 80.4375 730.91 81.3125 731.764 81.9062C732.618 82.4896 733.706 82.7812 735.029 82.7812ZM790.678 64.4062H785.803C785.615 63.3646 785.266 62.4479 784.756 61.6562C784.245 60.8646 783.62 60.1927 782.881 59.6406C782.141 59.0885 781.313 58.6719 780.396 58.3906C779.49 58.1094 778.527 57.9687 777.506 57.9687C775.662 57.9687 774.011 58.4323 772.553 59.3594C771.105 60.2865 769.959 61.6458 769.115 63.4375C768.282 65.2292 767.865 67.4167 767.865 70C767.865 72.6042 768.282 74.8021 769.115 76.5937C769.959 78.3854 771.11 79.7396 772.568 80.6562C774.027 81.5729 775.667 82.0312 777.49 82.0312C778.501 82.0312 779.459 81.8958 780.365 81.625C781.282 81.3437 782.11 80.9323 782.85 80.3906C783.589 79.849 784.214 79.1875 784.725 78.4062C785.245 77.6146 785.605 76.7083 785.803 75.6875L790.678 75.7031C790.417 77.276 789.912 78.724 789.162 80.0469C788.423 81.3594 787.469 82.4948 786.303 83.4531C785.146 84.401 783.824 85.1354 782.334 85.6562C780.844 86.1771 779.219 86.4375 777.459 86.4375C774.688 86.4375 772.219 85.7812 770.053 84.4687C767.886 83.1458 766.178 81.2552 764.928 78.7969C763.688 76.3385 763.068 73.4062 763.068 70C763.068 66.5833 763.693 63.651 764.943 61.2031C766.193 58.7448 767.902 56.8594 770.068 55.5469C772.235 54.224 774.699 53.5625 777.459 53.5625C779.157 53.5625 780.74 53.8073 782.209 54.2969C783.688 54.776 785.016 55.4844 786.193 56.4219C787.37 57.349 788.344 58.4844 789.115 59.8281C789.886 61.1615 790.407 62.6875 790.678 64.4062ZM800.752 54V86H796.08V54H800.752ZM814.021 86.5313C812.501 86.5313 811.126 86.25 809.896 85.6875C808.667 85.1146 807.693 84.2865 806.975 83.2031C806.266 82.1198 805.912 80.7917 805.912 79.2187C805.912 77.8646 806.173 76.75 806.693 75.875C807.214 75 807.917 74.3073 808.803 73.7969C809.688 73.2865 810.678 72.901 811.771 72.6406C812.865 72.3802 813.98 72.1823 815.115 72.0469C816.553 71.8802 817.719 71.7448 818.615 71.6406C819.511 71.526 820.162 71.3437 820.568 71.0938C820.975 70.8437 821.178 70.4375 821.178 69.875V69.7656C821.178 68.401 820.792 67.3437 820.021 66.5937C819.261 65.8437 818.126 65.4687 816.615 65.4687C815.042 65.4687 813.803 65.8177 812.896 66.5156C812.001 67.2031 811.381 67.9687 811.037 68.8125L806.646 67.8125C807.167 66.3542 807.928 65.1771 808.928 64.2812C809.938 63.375 811.1 62.7187 812.412 62.3125C813.725 61.8958 815.105 61.6875 816.553 61.6875C817.511 61.6875 818.527 61.8021 819.6 62.0313C820.683 62.25 821.693 62.6562 822.631 63.25C823.579 63.8437 824.355 64.6927 824.959 65.7969C825.563 66.8906 825.865 68.3125 825.865 70.0625V86H821.303V82.7187H821.115C820.813 83.3229 820.36 83.9167 819.756 84.5C819.152 85.0833 818.376 85.5677 817.428 85.9531C816.48 86.3385 815.344 86.5313 814.021 86.5313ZM815.037 82.7812C816.329 82.7812 817.433 82.526 818.35 82.0156C819.277 81.5052 819.98 80.8385 820.459 80.0156C820.949 79.1823 821.193 78.2917 821.193 77.3438V74.25C821.027 74.4167 820.704 74.5729 820.225 74.7187C819.756 74.8542 819.219 74.974 818.615 75.0781C818.011 75.1719 817.423 75.2604 816.85 75.3438C816.277 75.4167 815.798 75.4792 815.412 75.5312C814.506 75.6458 813.678 75.8385 812.928 76.1094C812.188 76.3802 811.594 76.7708 811.146 77.2812C810.709 77.7812 810.49 78.4479 810.49 79.2812C810.49 80.4375 810.917 81.3125 811.771 81.9062C812.626 82.4896 813.714 82.7812 815.037 82.7812ZM850.072 67.8594L845.838 68.6094C845.661 68.0677 845.38 67.5521 844.994 67.0625C844.619 66.5729 844.109 66.1719 843.463 65.8594C842.817 65.5469 842.01 65.3906 841.041 65.3906C839.718 65.3906 838.614 65.6875 837.729 66.2812C836.843 66.8646 836.4 67.6198 836.4 68.5469C836.4 69.349 836.697 69.9948 837.291 70.4844C837.885 70.974 838.843 71.375 840.166 71.6875L843.979 72.5625C846.187 73.0729 847.833 73.8594 848.916 74.9219C849.999 75.9844 850.541 77.3646 850.541 79.0625C850.541 80.5 850.124 81.7812 849.291 82.9062C848.468 84.0208 847.317 84.8958 845.838 85.5312C844.369 86.1667 842.666 86.4844 840.729 86.4844C838.041 86.4844 835.848 85.9115 834.15 84.7656C832.452 83.6094 831.411 81.9687 831.025 79.8437L835.541 79.1562C835.822 80.3333 836.4 81.224 837.275 81.8281C838.15 82.4219 839.291 82.7187 840.697 82.7187C842.229 82.7187 843.452 82.401 844.369 81.7656C845.286 81.1198 845.744 80.3333 845.744 79.4063C845.744 78.6562 845.463 78.026 844.9 77.5156C844.348 77.0052 843.499 76.6198 842.354 76.3594L838.291 75.4687C836.051 74.9583 834.395 74.1458 833.322 73.0313C832.26 71.9167 831.729 70.5052 831.729 68.7969C831.729 67.3802 832.124 66.1406 832.916 65.0781C833.708 64.0156 834.801 63.1875 836.197 62.5937C837.593 61.9896 839.192 61.6875 840.994 61.6875C843.588 61.6875 845.63 62.25 847.119 63.375C848.609 64.4896 849.593 65.9844 850.072 67.8594ZM873.662 67.8594L869.428 68.6094C869.251 68.0677 868.969 67.5521 868.584 67.0625C868.209 66.5729 867.699 66.1719 867.053 65.8594C866.407 65.5469 865.6 65.3906 864.631 65.3906C863.308 65.3906 862.204 65.6875 861.318 66.2812C860.433 66.8646 859.99 67.6198 859.99 68.5469C859.99 69.349 860.287 69.9948 860.881 70.4844C861.475 70.974 862.433 71.375 863.756 71.6875L867.568 72.5625C869.777 73.0729 871.423 73.8594 872.506 74.9219C873.589 75.9844 874.131 77.3646 874.131 79.0625C874.131 80.5 873.714 81.7812 872.881 82.9062C872.058 84.0208 870.907 84.8958 869.428 85.5312C867.959 86.1667 866.256 86.4844 864.318 86.4844C861.631 86.4844 859.438 85.9115 857.74 84.7656C856.042 83.6094 855.001 81.9687 854.615 79.8437L859.131 79.1562C859.412 80.3333 859.99 81.224 860.865 81.8281C861.74 82.4219 862.881 82.7187 864.287 82.7187C865.818 82.7187 867.042 82.401 867.959 81.7656C868.876 81.1198 869.334 80.3333 869.334 79.4063C869.334 78.6562 869.053 78.026 868.49 77.5156C867.938 77.0052 867.089 76.6198 865.943 76.3594L861.881 75.4687C859.641 74.9583 857.985 74.1458 856.912 73.0313C855.85 71.9167 855.318 70.5052 855.318 68.7969C855.318 67.3802 855.714 66.1406 856.506 65.0781C857.298 64.0156 858.391 63.1875 859.787 62.5937C861.183 61.9896 862.782 61.6875 864.584 61.6875C867.178 61.6875 869.219 62.25 870.709 63.375C872.199 64.4896 873.183 65.9844 873.662 67.8594Z" fill="#1C3965"/>
<rect x="280" y="138.5" width="310" height="59" rx="7.5" fill="white" stroke="#EFEFEF"/>
<path d="M296.557 161V152.273H297.614V156.159H302.267V152.273H303.324V161H302.267V157.097H297.614V161H296.557ZM307.962 161.136C307.371 161.136 306.853 160.996 306.407 160.714C305.964 160.433 305.617 160.04 305.367 159.534C305.12 159.028 304.996 158.437 304.996 157.761C304.996 157.08 305.12 156.484 305.367 155.976C305.617 155.467 305.964 155.072 306.407 154.791C306.853 154.51 307.371 154.369 307.962 154.369C308.553 154.369 309.07 154.51 309.513 154.791C309.96 155.072 310.306 155.467 310.553 155.976C310.803 156.484 310.928 157.08 310.928 157.761C310.928 158.437 310.803 159.028 310.553 159.534C310.306 160.04 309.96 160.433 309.513 160.714C309.07 160.996 308.553 161.136 307.962 161.136ZM307.962 160.233C308.411 160.233 308.781 160.118 309.07 159.888C309.36 159.658 309.575 159.355 309.714 158.98C309.853 158.605 309.923 158.199 309.923 157.761C309.923 157.324 309.853 156.916 309.714 156.538C309.575 156.161 309.36 155.855 309.07 155.622C308.781 155.389 308.411 155.273 307.962 155.273C307.513 155.273 307.144 155.389 306.854 155.622C306.565 155.855 306.35 156.161 306.211 156.538C306.072 156.916 306.002 157.324 306.002 157.761C306.002 158.199 306.072 158.605 306.211 158.98C306.35 159.355 306.565 159.658 306.854 159.888C307.144 160.118 307.513 160.233 307.962 160.233ZM307.962 163.165C307.766 163.165 307.597 163.098 307.455 162.964C307.316 162.831 307.246 162.67 307.246 162.483C307.246 162.295 307.316 162.135 307.455 162.001C307.597 161.868 307.766 161.801 307.962 161.801C308.158 161.801 308.326 161.868 308.465 162.001C308.607 162.135 308.678 162.295 308.678 162.483C308.678 162.67 308.607 162.831 308.465 162.964C308.326 163.098 308.158 163.165 307.962 163.165ZM321.191 154.455L318.77 161H317.748L315.327 154.455H316.418L318.225 159.67H318.293L320.1 154.455H321.191ZM324.245 161.153C323.83 161.153 323.454 161.075 323.116 160.919C322.778 160.76 322.509 160.531 322.31 160.233C322.112 159.932 322.012 159.568 322.012 159.142C322.012 158.767 322.086 158.463 322.234 158.23C322.381 157.994 322.579 157.81 322.826 157.676C323.073 157.543 323.346 157.443 323.644 157.378C323.945 157.31 324.248 157.256 324.552 157.216C324.95 157.165 325.272 157.126 325.519 157.101C325.769 157.072 325.951 157.026 326.065 156.96C326.181 156.895 326.239 156.781 326.239 156.619V156.585C326.239 156.165 326.124 155.838 325.894 155.605C325.667 155.372 325.322 155.256 324.859 155.256C324.379 155.256 324.002 155.361 323.729 155.571C323.457 155.781 323.265 156.006 323.154 156.244L322.2 155.903C322.37 155.506 322.597 155.196 322.881 154.974C323.168 154.75 323.481 154.594 323.819 154.506C324.16 154.415 324.495 154.369 324.825 154.369C325.035 154.369 325.276 154.395 325.549 154.446C325.825 154.494 326.09 154.595 326.346 154.749C326.604 154.902 326.819 155.134 326.989 155.443C327.16 155.753 327.245 156.168 327.245 156.688V161H326.239V160.114H326.188C326.12 160.256 326.006 160.408 325.847 160.57C325.688 160.732 325.477 160.869 325.212 160.983C324.948 161.097 324.626 161.153 324.245 161.153ZM324.398 160.25C324.796 160.25 325.131 160.172 325.404 160.016C325.68 159.859 325.887 159.658 326.026 159.411C326.168 159.163 326.239 158.903 326.239 158.631V157.71C326.197 157.761 326.103 157.808 325.958 157.851C325.816 157.891 325.651 157.926 325.464 157.957C325.279 157.986 325.099 158.011 324.923 158.034C324.749 158.054 324.609 158.071 324.501 158.085C324.239 158.119 323.995 158.175 323.768 158.251C323.543 158.325 323.362 158.437 323.222 158.588C323.086 158.736 323.018 158.937 323.018 159.193C323.018 159.543 323.147 159.807 323.406 159.986C323.667 160.162 323.998 160.25 324.398 160.25ZM324.467 153.568L323.137 151.591H324.313L325.353 153.568H324.467ZM335.302 154.455V155.307H331.91V154.455H335.302ZM332.899 152.886H333.904V159.125C333.904 159.409 333.946 159.622 334.028 159.764C334.113 159.903 334.221 159.997 334.352 160.045C334.485 160.091 334.626 160.114 334.774 160.114C334.885 160.114 334.975 160.108 335.047 160.097C335.118 160.082 335.174 160.071 335.217 160.062L335.422 160.966C335.353 160.991 335.258 161.017 335.136 161.043C335.014 161.071 334.859 161.085 334.672 161.085C334.387 161.085 334.109 161.024 333.836 160.902C333.566 160.78 333.342 160.594 333.163 160.344C332.987 160.094 332.899 159.778 332.899 159.398V152.886ZM339.489 161.136C338.858 161.136 338.314 160.997 337.857 160.719C337.402 160.438 337.051 160.045 336.804 159.543C336.56 159.037 336.438 158.449 336.438 157.778C336.438 157.108 336.56 156.517 336.804 156.006C337.051 155.491 337.395 155.091 337.836 154.804C338.279 154.514 338.796 154.369 339.387 154.369C339.728 154.369 340.064 154.426 340.397 154.54C340.729 154.653 341.032 154.838 341.304 155.094C341.577 155.347 341.794 155.682 341.956 156.099C342.118 156.517 342.199 157.031 342.199 157.642V158.068H337.154V157.199H341.176C341.176 156.83 341.103 156.5 340.955 156.21C340.81 155.92 340.603 155.692 340.333 155.524C340.066 155.357 339.75 155.273 339.387 155.273C338.986 155.273 338.64 155.372 338.347 155.571C338.057 155.767 337.834 156.023 337.678 156.338C337.522 156.653 337.444 156.991 337.444 157.352V157.932C337.444 158.426 337.529 158.845 337.699 159.189C337.873 159.53 338.113 159.79 338.419 159.969C338.726 160.145 339.083 160.233 339.489 160.233C339.753 160.233 339.992 160.196 340.205 160.122C340.421 160.045 340.607 159.932 340.763 159.781C340.919 159.628 341.04 159.437 341.125 159.21L342.097 159.483C341.995 159.812 341.823 160.102 341.581 160.352C341.34 160.599 341.042 160.793 340.686 160.932C340.331 161.068 339.932 161.136 339.489 161.136ZM340.222 153.67L339.336 152.477L338.449 153.67H337.495V153.602L338.875 151.83H339.796L341.176 153.602V153.67H340.222ZM344.735 157.062V161H343.729V154.455H344.701V155.477H344.786C344.939 155.145 345.172 154.878 345.485 154.676C345.797 154.472 346.201 154.369 346.695 154.369C347.138 154.369 347.526 154.46 347.858 154.642C348.191 154.821 348.449 155.094 348.634 155.46C348.819 155.824 348.911 156.284 348.911 156.841V161H347.905V156.909C347.905 156.395 347.772 155.994 347.505 155.707C347.238 155.418 346.871 155.273 346.405 155.273C346.084 155.273 345.797 155.342 345.544 155.482C345.294 155.621 345.097 155.824 344.952 156.091C344.807 156.358 344.735 156.682 344.735 157.062Z" fill="#060606"/>
<path d="M306.17 174.364V186H304.557L298.642 177.466H298.534V186H296.778V174.364H298.403L304.324 182.909H304.432V174.364H306.17ZM312.254 189.455C311.561 189.455 310.964 189.364 310.464 189.182C309.968 189 309.563 188.759 309.249 188.46C308.934 188.161 308.699 187.833 308.544 187.477L310.004 186.875C310.107 187.042 310.243 187.218 310.413 187.403C310.588 187.593 310.822 187.754 311.118 187.886C311.417 188.019 311.802 188.085 312.271 188.085C312.915 188.085 313.447 187.928 313.868 187.614C314.288 187.303 314.499 186.807 314.499 186.125V184.409H314.391C314.288 184.595 314.141 184.801 313.947 185.028C313.758 185.256 313.497 185.453 313.163 185.619C312.83 185.786 312.396 185.869 311.862 185.869C311.173 185.869 310.552 185.708 309.999 185.386C309.449 185.061 309.014 184.581 308.692 183.949C308.374 183.312 308.214 182.53 308.214 181.602C308.214 180.674 308.372 179.879 308.686 179.216C309.004 178.553 309.44 178.045 309.993 177.693C310.546 177.337 311.173 177.159 311.874 177.159C312.415 177.159 312.853 177.25 313.186 177.432C313.519 177.61 313.779 177.818 313.964 178.057C314.154 178.295 314.3 178.506 314.402 178.688H314.527V177.273H316.192V186.193C316.192 186.943 316.018 187.559 315.669 188.04C315.321 188.521 314.849 188.877 314.254 189.108C313.663 189.339 312.997 189.455 312.254 189.455ZM312.237 184.46C312.726 184.46 313.139 184.347 313.476 184.119C313.817 183.888 314.074 183.559 314.249 183.131C314.427 182.699 314.516 182.182 314.516 181.58C314.516 180.992 314.429 180.475 314.254 180.028C314.08 179.581 313.824 179.233 313.487 178.983C313.15 178.729 312.733 178.602 312.237 178.602C311.726 178.602 311.3 178.735 310.959 179C310.618 179.261 310.36 179.617 310.186 180.068C310.016 180.519 309.93 181.023 309.93 181.58C309.93 182.152 310.018 182.653 310.192 183.085C310.366 183.517 310.624 183.854 310.964 184.097C311.309 184.339 311.733 184.46 312.237 184.46ZM323.999 182.381V177.273H325.703V186H324.033V184.489H323.942C323.741 184.955 323.419 185.343 322.976 185.653C322.536 185.96 321.989 186.114 321.334 186.114C320.773 186.114 320.277 185.991 319.845 185.744C319.417 185.494 319.08 185.125 318.834 184.636C318.591 184.148 318.47 183.544 318.47 182.824V177.273H320.169V182.619C320.169 183.214 320.334 183.687 320.663 184.04C320.993 184.392 321.421 184.568 321.947 184.568C322.266 184.568 322.582 184.489 322.896 184.33C323.214 184.17 323.478 183.93 323.686 183.608C323.898 183.286 324.002 182.877 323.999 182.381ZM329.06 189.273C328.806 189.273 328.575 189.252 328.366 189.21C328.158 189.172 328.003 189.131 327.901 189.085L328.31 187.693C328.62 187.777 328.897 187.813 329.139 187.801C329.382 187.79 329.596 187.699 329.781 187.528C329.971 187.358 330.137 187.08 330.281 186.693L330.491 186.114L327.298 177.273H329.116L331.327 184.045H331.418L333.628 177.273H335.452L331.855 187.165C331.688 187.619 331.476 188.004 331.219 188.318C330.961 188.636 330.654 188.875 330.298 189.034C329.942 189.193 329.529 189.273 329.06 189.273ZM340.513 186.176C339.653 186.176 338.912 185.992 338.291 185.625C337.674 185.254 337.196 184.733 336.859 184.062C336.526 183.388 336.359 182.598 336.359 181.693C336.359 180.799 336.526 180.011 336.859 179.33C337.196 178.648 337.666 178.116 338.268 177.733C338.875 177.35 339.583 177.159 340.393 177.159C340.886 177.159 341.363 177.241 341.825 177.403C342.287 177.566 342.702 177.822 343.07 178.17C343.437 178.519 343.727 178.972 343.939 179.528C344.151 180.081 344.257 180.754 344.257 181.545V182.148H337.32V180.875H342.592C342.592 180.428 342.501 180.032 342.32 179.688C342.138 179.339 341.882 179.064 341.553 178.864C341.227 178.663 340.844 178.562 340.405 178.562C339.928 178.562 339.511 178.68 339.155 178.915C338.803 179.146 338.53 179.449 338.337 179.824C338.147 180.195 338.053 180.598 338.053 181.034V182.028C338.053 182.612 338.155 183.108 338.359 183.517C338.568 183.926 338.857 184.239 339.229 184.455C339.6 184.667 340.034 184.773 340.53 184.773C340.852 184.773 341.145 184.727 341.411 184.636C341.676 184.542 341.905 184.402 342.098 184.216C342.291 184.03 342.439 183.801 342.541 183.528L344.149 183.818C344.02 184.292 343.789 184.706 343.456 185.062C343.126 185.415 342.712 185.689 342.212 185.886C341.715 186.08 341.149 186.176 340.513 186.176ZM347.841 180.818V186H346.142V177.273H347.773V178.693H347.881C348.081 178.231 348.396 177.86 348.824 177.58C349.256 177.299 349.799 177.159 350.455 177.159C351.049 177.159 351.57 177.284 352.017 177.534C352.464 177.78 352.811 178.148 353.057 178.636C353.303 179.125 353.426 179.729 353.426 180.449V186H351.727V180.653C351.727 180.021 351.563 179.527 351.233 179.17C350.903 178.811 350.451 178.631 349.875 178.631C349.481 178.631 349.131 178.716 348.824 178.886C348.521 179.057 348.28 179.307 348.102 179.636C347.928 179.962 347.841 180.356 347.841 180.818ZM363.842 186H360.075V174.364H363.962C365.102 174.364 366.081 174.597 366.899 175.062C367.717 175.525 368.344 176.189 368.78 177.057C369.219 177.92 369.439 178.956 369.439 180.165C369.439 181.377 369.217 182.419 368.774 183.29C368.335 184.161 367.698 184.831 366.865 185.301C366.032 185.767 365.024 186 363.842 186ZM361.831 184.466H363.746C364.632 184.466 365.369 184.299 365.956 183.966C366.543 183.629 366.982 183.142 367.274 182.506C367.566 181.866 367.712 181.085 367.712 180.165C367.712 179.252 367.566 178.477 367.274 177.841C366.986 177.205 366.556 176.722 365.984 176.392C365.412 176.062 364.702 175.898 363.854 175.898H361.831V184.466ZM377.014 182.381V177.273H378.719V186H377.048V184.489H376.957C376.757 184.955 376.435 185.343 375.991 185.653C375.552 185.96 375.005 186.114 374.349 186.114C373.789 186.114 373.293 185.991 372.861 185.744C372.433 185.494 372.096 185.125 371.849 184.636C371.607 184.148 371.486 183.544 371.486 182.824V177.273H373.185V182.619C373.185 183.214 373.349 183.687 373.679 184.04C374.009 184.392 374.437 184.568 374.963 184.568C375.281 184.568 375.598 184.489 375.912 184.33C376.23 184.17 376.493 183.93 376.702 183.608C376.914 183.286 377.018 182.877 377.014 182.381ZM382.075 189.273C381.821 189.273 381.59 189.252 381.382 189.21C381.174 189.172 381.018 189.131 380.916 189.085L381.325 187.693C381.636 187.777 381.912 187.813 382.155 187.801C382.397 187.79 382.611 187.699 382.797 187.528C382.986 187.358 383.153 187.08 383.297 186.693L383.507 186.114L380.314 177.273H382.132L384.342 184.045H384.433L386.643 177.273H388.467L384.871 187.165C384.704 187.619 384.492 188.004 384.234 188.318C383.977 188.636 383.67 188.875 383.314 189.034C382.958 189.193 382.545 189.273 382.075 189.273ZM393.861 175.875V174.364H402.866V175.875H399.236V186H397.486V175.875H393.861ZM409.061 182.381V177.273H410.766V186H409.095V184.489H409.004C408.804 184.955 408.482 185.343 408.038 185.653C407.599 185.96 407.052 186.114 406.396 186.114C405.836 186.114 405.339 185.991 404.908 185.744C404.48 185.494 404.143 185.125 403.896 184.636C403.654 184.148 403.533 183.544 403.533 182.824V177.273H405.232V182.619C405.232 183.214 405.396 183.687 405.726 184.04C406.055 184.392 406.483 184.568 407.01 184.568C407.328 184.568 407.644 184.489 407.959 184.33C408.277 184.17 408.54 183.93 408.749 183.608C408.961 183.286 409.065 182.877 409.061 182.381ZM414.747 180.818V186H413.048V177.273H414.679V178.693H414.787C414.988 178.231 415.302 177.86 415.73 177.58C416.162 177.299 416.705 177.159 417.361 177.159C417.955 177.159 418.476 177.284 418.923 177.534C419.37 177.78 419.717 178.148 419.963 178.636C420.209 179.125 420.332 179.729 420.332 180.449V186H418.634V180.653C418.634 180.021 418.469 179.527 418.139 179.17C417.81 178.811 417.357 178.631 416.781 178.631C416.387 178.631 416.037 178.716 415.73 178.886C415.427 179.057 415.187 179.307 415.009 179.636C414.834 179.962 414.747 180.356 414.747 180.818ZM426.27 189.455C425.577 189.455 424.98 189.364 424.48 189.182C423.984 189 423.579 188.759 423.264 188.46C422.95 188.161 422.715 187.833 422.56 187.477L424.02 186.875C424.122 187.042 424.259 187.218 424.429 187.403C424.603 187.593 424.838 187.754 425.134 187.886C425.433 188.019 425.817 188.085 426.287 188.085C426.931 188.085 427.463 187.928 427.884 187.614C428.304 187.303 428.514 186.807 428.514 186.125V184.409H428.406C428.304 184.595 428.156 184.801 427.963 185.028C427.774 185.256 427.512 185.453 427.179 185.619C426.846 185.786 426.412 185.869 425.878 185.869C425.188 185.869 424.567 185.708 424.014 185.386C423.465 185.061 423.029 184.581 422.707 183.949C422.389 183.312 422.23 182.53 422.23 181.602C422.23 180.674 422.387 179.879 422.702 179.216C423.02 178.553 423.455 178.045 424.009 177.693C424.562 177.337 425.188 177.159 425.889 177.159C426.431 177.159 426.868 177.25 427.202 177.432C427.535 177.61 427.795 177.818 427.98 178.057C428.17 178.295 428.315 178.506 428.418 178.688H428.543V177.273H430.207V186.193C430.207 186.943 430.033 187.559 429.685 188.04C429.336 188.521 428.865 188.877 428.27 189.108C427.679 189.339 427.012 189.455 426.27 189.455ZM426.253 184.46C426.741 184.46 427.154 184.347 427.491 184.119C427.832 183.888 428.09 183.559 428.264 183.131C428.442 182.699 428.531 182.182 428.531 181.58C428.531 180.992 428.444 180.475 428.27 180.028C428.096 179.581 427.84 179.233 427.503 178.983C427.166 178.729 426.749 178.602 426.253 178.602C425.741 178.602 425.315 178.735 424.974 179C424.634 179.261 424.376 179.617 424.202 180.068C424.031 180.519 423.946 181.023 423.946 181.58C423.946 182.152 424.033 182.653 424.207 183.085C424.382 183.517 424.639 183.854 424.98 184.097C425.325 184.339 425.749 184.46 426.253 184.46Z" fill="#BCBFC2"/>
<rect x="619" y="138.5" width="310" height="59" rx="7.5" fill="white" stroke="#EFEFEF"/>
<path d="M906.366 185.5C905.981 186.167 905.019 186.167 904.634 185.5L899.438 176.5C899.053 175.833 899.534 175 900.304 175L910.696 175C911.466 175 911.947 175.833 911.562 176.5L906.366 185.5Z" fill="#616364"/>
<path d="M635.557 161V152.273H636.614V160.062H640.67V161H635.557ZM647.489 153.96H648.426C648.426 154.608 648.284 155.122 648 155.503C647.719 155.884 647.224 156.074 646.517 156.074V155.358C646.801 155.358 647.011 155.3 647.148 155.183C647.287 155.067 647.378 154.903 647.42 154.693C647.466 154.483 647.489 154.239 647.489 153.96ZM644.83 161.136C644.239 161.136 643.72 160.996 643.274 160.714C642.831 160.433 642.484 160.04 642.234 159.534C641.987 159.028 641.864 158.437 641.864 157.761C641.864 157.08 641.987 156.484 642.234 155.976C642.484 155.467 642.831 155.072 643.274 154.791C643.72 154.51 644.239 154.369 644.83 154.369C645.42 154.369 645.938 154.51 646.381 154.791C646.827 155.072 647.173 155.467 647.42 155.976C647.67 156.484 647.795 157.08 647.795 157.761C647.795 158.437 647.67 159.028 647.42 159.534C647.173 160.04 646.827 160.433 646.381 160.714C645.938 160.996 645.42 161.136 644.83 161.136ZM644.83 160.233C645.278 160.233 645.648 160.118 645.938 159.888C646.227 159.658 646.442 159.355 646.581 158.98C646.72 158.605 646.79 158.199 646.79 157.761C646.79 157.324 646.72 156.916 646.581 156.538C646.442 156.161 646.227 155.855 645.938 155.622C645.648 155.389 645.278 155.273 644.83 155.273C644.381 155.273 644.011 155.389 643.722 155.622C643.432 155.855 643.217 156.161 643.078 156.538C642.939 156.916 642.869 157.324 642.869 157.761C642.869 158.199 642.939 158.605 643.078 158.98C643.217 159.355 643.432 159.658 643.722 159.888C644.011 160.118 644.381 160.233 644.83 160.233ZM644.369 153.568L645.409 151.591H646.585L645.256 153.568H644.369ZM649.342 163.455V154.455H650.314V155.494H650.433C650.507 155.381 650.609 155.236 650.74 155.06C650.874 154.881 651.064 154.722 651.311 154.582C651.561 154.44 651.899 154.369 652.325 154.369C652.876 154.369 653.362 154.507 653.783 154.783C654.203 155.058 654.531 155.449 654.767 155.955C655.003 156.46 655.121 157.057 655.121 157.744C655.121 158.438 655.003 159.038 654.767 159.547C654.531 160.053 654.205 160.445 653.787 160.723C653.369 160.999 652.888 161.136 652.342 161.136C651.922 161.136 651.585 161.067 651.332 160.928C651.08 160.786 650.885 160.625 650.749 160.446C650.612 160.264 650.507 160.114 650.433 159.994H650.348V163.455H649.342ZM650.331 157.727C650.331 158.222 650.403 158.658 650.548 159.036C650.693 159.411 650.905 159.705 651.183 159.918C651.462 160.128 651.803 160.233 652.206 160.233C652.626 160.233 652.977 160.122 653.259 159.901C653.543 159.676 653.756 159.375 653.898 158.997C654.043 158.616 654.115 158.193 654.115 157.727C654.115 157.267 654.044 156.852 653.902 156.483C653.763 156.111 653.551 155.817 653.267 155.601C652.986 155.382 652.632 155.273 652.206 155.273C651.797 155.273 651.453 155.376 651.175 155.584C650.896 155.788 650.686 156.075 650.544 156.445C650.402 156.811 650.331 157.239 650.331 157.727Z" fill="#060606"/>
<path d="M635.778 186V174.364H637.534V184.489H642.807V186H635.778ZM651.969 176.665H653.281C653.281 177.559 653.079 178.265 652.673 178.784C652.272 179.299 651.586 179.557 650.616 179.557V178.602C651.003 178.602 651.293 178.523 651.486 178.364C651.679 178.201 651.808 177.975 651.872 177.688C651.937 177.396 651.969 177.055 651.969 176.665ZM648.349 186.176C647.531 186.176 646.817 185.989 646.207 185.614C645.598 185.239 645.124 184.714 644.787 184.04C644.45 183.366 644.281 182.578 644.281 181.676C644.281 180.771 644.45 179.979 644.787 179.301C645.124 178.623 645.598 178.097 646.207 177.722C646.817 177.347 647.531 177.159 648.349 177.159C649.168 177.159 649.882 177.347 650.491 177.722C651.101 178.097 651.575 178.623 651.912 179.301C652.249 179.979 652.418 180.771 652.418 181.676C652.418 182.578 652.249 183.366 651.912 184.04C651.575 184.714 651.101 185.239 650.491 185.614C649.882 185.989 649.168 186.176 648.349 186.176ZM648.355 184.75C648.885 184.75 649.325 184.61 649.673 184.33C650.022 184.049 650.279 183.676 650.446 183.21C650.616 182.744 650.702 182.231 650.702 181.67C650.702 181.114 650.616 180.602 650.446 180.136C650.279 179.667 650.022 179.29 649.673 179.006C649.325 178.722 648.885 178.58 648.355 178.58C647.821 178.58 647.378 178.722 647.026 179.006C646.677 179.29 646.418 179.667 646.247 180.136C646.08 180.602 645.997 181.114 645.997 181.67C645.997 182.231 646.08 182.744 646.247 183.21C646.418 183.676 646.677 184.049 647.026 184.33C647.378 184.61 647.821 184.75 648.355 184.75ZM647.651 176.108L648.98 173.489H650.77L649.009 176.108H647.651ZM654.423 189.273V177.273H656.082V178.688H656.224C656.323 178.506 656.465 178.295 656.651 178.057C656.836 177.818 657.094 177.61 657.423 177.432C657.753 177.25 658.188 177.159 658.73 177.159C659.435 177.159 660.063 177.337 660.616 177.693C661.17 178.049 661.603 178.562 661.918 179.233C662.236 179.903 662.395 180.71 662.395 181.653C662.395 182.597 662.238 183.405 661.923 184.08C661.609 184.75 661.177 185.267 660.628 185.631C660.079 185.991 659.452 186.17 658.747 186.17C658.217 186.17 657.783 186.081 657.446 185.903C657.113 185.725 656.851 185.517 656.662 185.278C656.473 185.04 656.327 184.828 656.224 184.642H656.122V189.273H654.423ZM656.088 181.636C656.088 182.25 656.177 182.788 656.355 183.25C656.533 183.712 656.791 184.074 657.128 184.335C657.465 184.593 657.878 184.722 658.366 184.722C658.874 184.722 659.298 184.587 659.639 184.318C659.98 184.045 660.238 183.676 660.412 183.21C660.59 182.744 660.679 182.22 660.679 181.636C660.679 181.061 660.592 180.544 660.418 180.085C660.247 179.627 659.99 179.265 659.645 179C659.304 178.735 658.878 178.602 658.366 178.602C657.874 178.602 657.457 178.729 657.116 178.983C656.779 179.237 656.524 179.591 656.349 180.045C656.175 180.5 656.088 181.03 656.088 181.636ZM672.925 174.364V186H671.163V176.125H671.095L668.311 177.943V176.261L671.214 174.364H672.925ZM680.487 174.364V186H678.726V176.125H678.658L675.874 177.943V176.261L678.777 174.364H680.487Z" fill="#004FC5"/>
<rect x="280" y="214.5" width="310" height="59" rx="7.5" fill="white" stroke="#EFEFEF"/>
<path d="M567.366 261.5C566.981 262.167 566.019 262.167 565.634 261.5L560.438 252.5C560.053 251.833 560.534 251 561.304 251L571.696 251C572.466 251 572.947 251.833 572.562 252.5L567.366 261.5Z" fill="#616364"/>
<path d="M296.557 228.273H297.818L300.784 235.517H300.886L303.852 228.273H305.114V237H304.125V230.369H304.04L301.312 237H300.358L297.631 230.369H297.545V237H296.557V228.273ZM309.755 237.136C309.164 237.136 308.646 236.996 308.2 236.714C307.757 236.433 307.41 236.04 307.16 235.534C306.913 235.028 306.789 234.437 306.789 233.761C306.789 233.08 306.913 232.484 307.16 231.976C307.41 231.467 307.757 231.072 308.2 230.791C308.646 230.51 309.164 230.369 309.755 230.369C310.346 230.369 310.863 230.51 311.306 230.791C311.752 231.072 312.099 231.467 312.346 231.976C312.596 232.484 312.721 233.08 312.721 233.761C312.721 234.437 312.596 235.028 312.346 235.534C312.099 236.04 311.752 236.433 311.306 236.714C310.863 236.996 310.346 237.136 309.755 237.136ZM309.755 236.233C310.204 236.233 310.574 236.118 310.863 235.888C311.153 235.658 311.368 235.355 311.507 234.98C311.646 234.605 311.716 234.199 311.716 233.761C311.716 233.324 311.646 232.916 311.507 232.538C311.368 232.161 311.153 231.855 310.863 231.622C310.574 231.389 310.204 231.273 309.755 231.273C309.306 231.273 308.937 231.389 308.647 231.622C308.358 231.855 308.143 232.161 308.004 232.538C307.865 232.916 307.795 233.324 307.795 233.761C307.795 234.199 307.865 234.605 308.004 234.98C308.143 235.355 308.358 235.658 308.647 235.888C308.937 236.118 309.306 236.233 309.755 236.233ZM310.642 229.67L309.755 228.477L308.869 229.67H307.914V229.602L309.295 227.83H310.216L311.596 229.602V229.67H310.642ZM315.262 233.062V237H314.256V230.455H315.228V231.477H315.313C315.467 231.145 315.7 230.878 316.012 230.676C316.325 230.472 316.728 230.369 317.222 230.369C317.665 230.369 318.053 230.46 318.386 230.642C318.718 230.821 318.977 231.094 319.161 231.46C319.346 231.824 319.438 232.284 319.438 232.841V237H318.433V232.909C318.433 232.395 318.299 231.994 318.032 231.707C317.765 231.418 317.398 231.273 316.933 231.273C316.612 231.273 316.325 231.342 316.072 231.482C315.822 231.621 315.624 231.824 315.479 232.091C315.335 232.358 315.262 232.682 315.262 233.062ZM325.657 233.062V237H324.651V228.273H325.657V231.477H325.742C325.895 231.139 326.125 230.871 326.432 230.672C326.742 230.47 327.154 230.369 327.668 230.369C328.114 230.369 328.505 230.459 328.84 230.638C329.175 230.814 329.435 231.085 329.62 231.452C329.807 231.815 329.901 232.278 329.901 232.841V237H328.895V232.909C328.895 232.389 328.76 231.987 328.49 231.703C328.223 231.416 327.853 231.273 327.378 231.273C327.049 231.273 326.753 231.342 326.492 231.482C326.233 231.621 326.029 231.824 325.878 232.091C325.73 232.358 325.657 232.682 325.657 233.062ZM334.4 237.136C333.809 237.136 333.29 236.996 332.844 236.714C332.401 236.433 332.055 236.04 331.805 235.534C331.558 235.028 331.434 234.437 331.434 233.761C331.434 233.08 331.558 232.484 331.805 231.976C332.055 231.467 332.401 231.072 332.844 230.791C333.29 230.51 333.809 230.369 334.4 230.369C334.991 230.369 335.508 230.51 335.951 230.791C336.397 231.072 336.744 231.467 336.991 231.976C337.241 232.484 337.366 233.08 337.366 233.761C337.366 234.437 337.241 235.028 336.991 235.534C336.744 236.04 336.397 236.433 335.951 236.714C335.508 236.996 334.991 237.136 334.4 237.136ZM334.4 236.233C334.849 236.233 335.218 236.118 335.508 235.888C335.798 235.658 336.012 235.355 336.151 234.98C336.29 234.605 336.36 234.199 336.36 233.761C336.36 233.324 336.29 232.916 336.151 232.538C336.012 232.161 335.798 231.855 335.508 231.622C335.218 231.389 334.849 231.273 334.4 231.273C333.951 231.273 333.582 231.389 333.292 231.622C333.002 231.855 332.788 232.161 332.648 232.538C332.509 232.916 332.44 233.324 332.44 233.761C332.44 234.199 332.509 234.605 332.648 234.98C332.788 235.355 333.002 235.658 333.292 235.888C333.582 236.118 333.951 236.233 334.4 236.233ZM334.4 239.165C334.204 239.165 334.035 239.098 333.893 238.964C333.754 238.831 333.684 238.67 333.684 238.483C333.684 238.295 333.754 238.135 333.893 238.001C334.035 237.868 334.204 237.801 334.4 237.801C334.596 237.801 334.763 237.868 334.903 238.001C335.045 238.135 335.116 238.295 335.116 238.483C335.116 238.67 335.045 238.831 334.903 238.964C334.763 239.098 334.596 239.165 334.4 239.165ZM341.56 237.136C340.946 237.136 340.418 236.991 339.975 236.702C339.532 236.412 339.191 236.013 338.952 235.504C338.713 234.996 338.594 234.415 338.594 233.761C338.594 233.097 338.716 232.51 338.961 232.001C339.208 231.49 339.551 231.091 339.992 230.804C340.435 230.514 340.952 230.369 341.543 230.369C342.003 230.369 342.418 230.455 342.787 230.625C343.157 230.795 343.459 231.034 343.695 231.341C343.931 231.648 344.077 232.006 344.134 232.415H343.128C343.051 232.116 342.881 231.852 342.617 231.622C342.355 231.389 342.003 231.273 341.56 231.273C341.168 231.273 340.824 231.375 340.529 231.58C340.236 231.781 340.007 232.067 339.843 232.436C339.681 232.803 339.6 233.233 339.6 233.727C339.6 234.233 339.679 234.673 339.838 235.048C340 235.423 340.228 235.714 340.52 235.922C340.816 236.129 341.162 236.233 341.56 236.233C341.821 236.233 342.059 236.188 342.272 236.097C342.485 236.006 342.665 235.875 342.813 235.705C342.961 235.534 343.066 235.33 343.128 235.091H344.134C344.077 235.477 343.936 235.825 343.712 236.135C343.49 236.442 343.196 236.686 342.83 236.868C342.466 237.047 342.043 237.136 341.56 237.136Z" fill="#060606"/>
<path d="M296.778 250.364H298.909L302.614 259.409H302.75L306.455 250.364H308.585V262H306.915V253.58H306.807L303.375 261.983H301.989L298.557 253.574H298.449V262H296.778V250.364ZM314.678 262.176C313.859 262.176 313.145 261.989 312.536 261.614C311.926 261.239 311.452 260.714 311.115 260.04C310.778 259.366 310.609 258.578 310.609 257.676C310.609 256.771 310.778 255.979 311.115 255.301C311.452 254.623 311.926 254.097 312.536 253.722C313.145 253.347 313.859 253.159 314.678 253.159C315.496 253.159 316.21 253.347 316.82 253.722C317.429 254.097 317.903 254.623 318.24 255.301C318.577 255.979 318.746 256.771 318.746 257.676C318.746 258.578 318.577 259.366 318.24 260.04C317.903 260.714 317.429 261.239 316.82 261.614C316.21 261.989 315.496 262.176 314.678 262.176ZM314.683 260.75C315.214 260.75 315.653 260.61 316.001 260.33C316.35 260.049 316.607 259.676 316.774 259.21C316.945 258.744 317.03 258.231 317.03 257.67C317.03 257.114 316.945 256.602 316.774 256.136C316.607 255.667 316.35 255.29 316.001 255.006C315.653 254.722 315.214 254.58 314.683 254.58C314.149 254.58 313.706 254.722 313.354 255.006C313.005 255.29 312.746 255.667 312.575 256.136C312.409 256.602 312.325 257.114 312.325 257.67C312.325 258.231 312.409 258.744 312.575 259.21C312.746 259.676 313.005 260.049 313.354 260.33C313.706 260.61 314.149 260.75 314.683 260.75ZM315.842 252.227L314.678 250.705L313.507 252.227H311.973V252.142L313.967 249.733H315.382L317.382 252.142V252.227H315.842ZM322.341 256.818V262H320.642V253.273H322.273V254.693H322.381C322.581 254.231 322.896 253.86 323.324 253.58C323.756 253.299 324.299 253.159 324.955 253.159C325.549 253.159 326.07 253.284 326.517 253.534C326.964 253.78 327.311 254.148 327.557 254.636C327.803 255.125 327.926 255.729 327.926 256.449V262H326.227V256.653C326.227 256.021 326.063 255.527 325.733 255.17C325.403 254.811 324.951 254.631 324.375 254.631C323.981 254.631 323.631 254.716 323.324 254.886C323.021 255.057 322.78 255.307 322.602 255.636C322.428 255.962 322.341 256.356 322.341 256.818ZM334.001 251.875V250.364H343.007V251.875H339.376V262H337.626V251.875H334.001ZM347.271 262.176C346.453 262.176 345.739 261.989 345.129 261.614C344.519 261.239 344.046 260.714 343.709 260.04C343.372 259.366 343.203 258.578 343.203 257.676C343.203 256.771 343.372 255.979 343.709 255.301C344.046 254.623 344.519 254.097 345.129 253.722C345.739 253.347 346.453 253.159 347.271 253.159C348.089 253.159 348.804 253.347 349.413 253.722C350.023 254.097 350.497 254.623 350.834 255.301C351.171 255.979 351.339 256.771 351.339 257.676C351.339 258.578 351.171 259.366 350.834 260.04C350.497 260.714 350.023 261.239 349.413 261.614C348.804 261.989 348.089 262.176 347.271 262.176ZM347.277 260.75C347.807 260.75 348.247 260.61 348.595 260.33C348.944 260.049 349.201 259.676 349.368 259.21C349.538 258.744 349.624 258.231 349.624 257.67C349.624 257.114 349.538 256.602 349.368 256.136C349.201 255.667 348.944 255.29 348.595 255.006C348.247 254.722 347.807 254.58 347.277 254.58C346.743 254.58 346.3 254.722 345.947 255.006C345.599 255.29 345.339 255.667 345.169 256.136C345.002 256.602 344.919 257.114 344.919 257.67C344.919 258.231 345.002 258.744 345.169 259.21C345.339 259.676 345.599 260.049 345.947 260.33C346.3 260.61 346.743 260.75 347.277 260.75ZM355.776 262.193C355.223 262.193 354.723 262.091 354.276 261.886C353.829 261.678 353.474 261.377 353.213 260.983C352.955 260.589 352.827 260.106 352.827 259.534C352.827 259.042 352.921 258.636 353.111 258.318C353.3 258 353.556 257.748 353.878 257.562C354.2 257.377 354.56 257.237 354.957 257.142C355.355 257.047 355.76 256.975 356.173 256.926C356.696 256.866 357.12 256.816 357.446 256.778C357.772 256.737 358.009 256.67 358.156 256.58C358.304 256.489 358.378 256.341 358.378 256.136V256.097C358.378 255.6 358.238 255.216 357.957 254.943C357.681 254.67 357.268 254.534 356.719 254.534C356.147 254.534 355.696 254.661 355.366 254.915C355.041 255.165 354.815 255.443 354.69 255.75L353.094 255.386C353.283 254.856 353.56 254.428 353.923 254.102C354.291 253.773 354.713 253.534 355.19 253.386C355.668 253.235 356.17 253.159 356.696 253.159C357.045 253.159 357.414 253.201 357.804 253.284C358.198 253.364 358.565 253.511 358.906 253.727C359.251 253.943 359.533 254.252 359.753 254.653C359.973 255.051 360.082 255.568 360.082 256.205V262H358.423V260.807H358.355C358.245 261.027 358.08 261.242 357.861 261.455C357.641 261.667 357.359 261.843 357.014 261.983C356.67 262.123 356.257 262.193 355.776 262.193ZM356.145 260.83C356.615 260.83 357.016 260.737 357.349 260.551C357.687 260.366 357.942 260.123 358.116 259.824C358.295 259.521 358.384 259.197 358.384 258.852V257.727C358.323 257.788 358.205 257.845 358.031 257.898C357.861 257.947 357.666 257.991 357.446 258.028C357.226 258.062 357.012 258.095 356.804 258.125C356.596 258.152 356.421 258.174 356.281 258.193C355.952 258.235 355.651 258.305 355.378 258.403C355.109 258.502 354.893 258.644 354.73 258.83C354.571 259.011 354.491 259.254 354.491 259.557C354.491 259.977 354.647 260.295 354.957 260.511C355.268 260.723 355.664 260.83 356.145 260.83ZM356.082 252.108L357.412 249.489H359.202L357.44 252.108H356.082ZM364.044 256.818V262H362.345V253.273H363.976V254.693H364.084C364.285 254.231 364.599 253.86 365.027 253.58C365.459 253.299 366.002 253.159 366.658 253.159C367.252 253.159 367.773 253.284 368.22 253.534C368.667 253.78 369.014 254.148 369.26 254.636C369.506 255.125 369.629 255.729 369.629 256.449V262H367.93V256.653C367.93 256.021 367.766 255.527 367.436 255.17C367.107 254.811 366.654 254.631 366.078 254.631C365.684 254.631 365.334 254.716 365.027 254.886C364.724 255.057 364.483 255.307 364.305 255.636C364.131 255.962 364.044 256.356 364.044 256.818Z" fill="#004FC5"/>
<rect x="619" y="214.5" width="310" height="59" rx="7.5" fill="white" stroke="#EFEFEF"/>
<path d="M635.557 237V228.273H636.614V232.602H636.716L640.636 228.273H642.017L638.352 232.21L642.017 237H640.739L637.705 232.943L636.614 234.17V237H635.557ZM644.254 233.062V237H643.249V228.273H644.254V231.477H644.339C644.493 231.139 644.723 230.871 645.03 230.672C645.339 230.47 645.751 230.369 646.266 230.369C646.712 230.369 647.102 230.459 647.438 230.638C647.773 230.814 648.033 231.085 648.217 231.452C648.405 231.815 648.499 232.278 648.499 232.841V237H647.493V232.909C647.493 232.389 647.358 231.987 647.088 231.703C646.821 231.416 646.45 231.273 645.976 231.273C645.646 231.273 645.351 231.342 645.089 231.482C644.831 231.621 644.626 231.824 644.476 232.091C644.328 232.358 644.254 232.682 644.254 233.062ZM652.998 237.136C652.407 237.136 651.888 236.996 651.442 236.714C650.999 236.433 650.652 236.04 650.402 235.534C650.155 235.028 650.032 234.437 650.032 233.761C650.032 233.08 650.155 232.484 650.402 231.976C650.652 231.467 650.999 231.072 651.442 230.791C651.888 230.51 652.407 230.369 652.998 230.369C653.588 230.369 654.105 230.51 654.549 230.791C654.995 231.072 655.341 231.467 655.588 231.976C655.838 232.484 655.963 233.08 655.963 233.761C655.963 234.437 655.838 235.028 655.588 235.534C655.341 236.04 654.995 236.433 654.549 236.714C654.105 236.996 653.588 237.136 652.998 237.136ZM652.998 236.233C653.446 236.233 653.816 236.118 654.105 235.888C654.395 235.658 654.61 235.355 654.749 234.98C654.888 234.605 654.958 234.199 654.958 233.761C654.958 233.324 654.888 232.916 654.749 232.538C654.61 232.161 654.395 231.855 654.105 231.622C653.816 231.389 653.446 231.273 652.998 231.273C652.549 231.273 652.179 231.389 651.89 231.622C651.6 231.855 651.385 232.161 651.246 232.538C651.107 232.916 651.037 233.324 651.037 233.761C651.037 234.199 651.107 234.605 651.246 234.98C651.385 235.355 651.6 235.658 651.89 235.888C652.179 236.118 652.549 236.233 652.998 236.233ZM652.537 229.568L653.577 227.591H654.753L653.424 229.568H652.537ZM659.425 237.153C659.01 237.153 658.634 237.075 658.295 236.919C657.957 236.76 657.689 236.531 657.49 236.233C657.291 235.932 657.192 235.568 657.192 235.142C657.192 234.767 657.266 234.463 657.413 234.23C657.561 233.994 657.759 233.81 658.006 233.676C658.253 233.543 658.526 233.443 658.824 233.378C659.125 233.31 659.428 233.256 659.732 233.216C660.129 233.165 660.452 233.126 660.699 233.101C660.949 233.072 661.131 233.026 661.244 232.96C661.361 232.895 661.419 232.781 661.419 232.619V232.585C661.419 232.165 661.304 231.838 661.074 231.605C660.847 231.372 660.501 231.256 660.038 231.256C659.558 231.256 659.182 231.361 658.909 231.571C658.636 231.781 658.445 232.006 658.334 232.244L657.379 231.903C657.55 231.506 657.777 231.196 658.061 230.974C658.348 230.75 658.661 230.594 658.999 230.506C659.339 230.415 659.675 230.369 660.004 230.369C660.214 230.369 660.456 230.395 660.729 230.446C661.004 230.494 661.27 230.595 661.526 230.749C661.784 230.902 661.999 231.134 662.169 231.443C662.339 231.753 662.425 232.168 662.425 232.688V237H661.419V236.114H661.368C661.3 236.256 661.186 236.408 661.027 236.57C660.868 236.732 660.656 236.869 660.392 236.983C660.128 237.097 659.805 237.153 659.425 237.153ZM659.578 236.25C659.976 236.25 660.311 236.172 660.584 236.016C660.859 235.859 661.067 235.658 661.206 235.411C661.348 235.163 661.419 234.903 661.419 234.631V233.71C661.376 233.761 661.283 233.808 661.138 233.851C660.996 233.891 660.831 233.926 660.643 233.957C660.459 233.986 660.278 234.011 660.102 234.034C659.929 234.054 659.788 234.071 659.68 234.085C659.419 234.119 659.175 234.175 658.947 234.251C658.723 234.325 658.541 234.437 658.402 234.588C658.266 234.736 658.197 234.937 658.197 235.193C658.197 235.543 658.327 235.807 658.585 235.986C658.847 236.162 659.178 236.25 659.578 236.25ZM670.107 237.136C669.561 237.136 669.08 236.999 668.662 236.723C668.245 236.445 667.918 236.053 667.682 235.547C667.446 235.038 667.328 234.438 667.328 233.744C667.328 233.057 667.446 232.46 667.682 231.955C667.918 231.449 668.246 231.058 668.667 230.783C669.087 230.507 669.573 230.369 670.124 230.369C670.55 230.369 670.887 230.44 671.134 230.582C671.384 230.722 671.574 230.881 671.705 231.06C671.838 231.236 671.942 231.381 672.016 231.494H672.101V228.273H673.107V237H672.135V235.994H672.016C671.942 236.114 671.837 236.264 671.701 236.446C671.564 236.625 671.37 236.786 671.117 236.928C670.864 237.067 670.527 237.136 670.107 237.136ZM670.243 236.233C670.647 236.233 670.988 236.128 671.266 235.918C671.544 235.705 671.756 235.411 671.901 235.036C672.046 234.658 672.118 234.222 672.118 233.727C672.118 233.239 672.047 232.811 671.905 232.445C671.763 232.075 671.553 231.788 671.275 231.584C670.996 231.376 670.652 231.273 670.243 231.273C669.817 231.273 669.462 231.382 669.178 231.601C668.897 231.817 668.685 232.111 668.543 232.483C668.404 232.852 668.334 233.267 668.334 233.727C668.334 234.193 668.405 234.616 668.547 234.997C668.692 235.375 668.905 235.676 669.186 235.901C669.471 236.122 669.823 236.233 670.243 236.233ZM670.294 229.892V229.108H674.044V229.892H670.294ZM677.015 237.153C676.6 237.153 676.223 237.075 675.885 236.919C675.547 236.76 675.279 236.531 675.08 236.233C674.881 235.932 674.782 235.568 674.782 235.142C674.782 234.767 674.855 234.463 675.003 234.23C675.151 233.994 675.348 233.81 675.596 233.676C675.843 233.543 676.115 233.443 676.414 233.378C676.715 233.31 677.017 233.256 677.321 233.216C677.719 233.165 678.042 233.126 678.289 233.101C678.539 233.072 678.721 233.026 678.834 232.96C678.951 232.895 679.009 232.781 679.009 232.619V232.585C679.009 232.165 678.894 231.838 678.664 231.605C678.436 231.372 678.091 231.256 677.628 231.256C677.148 231.256 676.772 231.361 676.499 231.571C676.226 231.781 676.034 232.006 675.924 232.244L674.969 231.903C675.14 231.506 675.367 231.196 675.651 230.974C675.938 230.75 676.25 230.594 676.588 230.506C676.929 230.415 677.265 230.369 677.594 230.369C677.804 230.369 678.046 230.395 678.319 230.446C678.594 230.494 678.86 230.595 679.115 230.749C679.374 230.902 679.588 231.134 679.759 231.443C679.929 231.753 680.015 232.168 680.015 232.688V237H679.009V236.114H678.958C678.89 236.256 678.776 236.408 678.617 236.57C678.458 236.732 678.246 236.869 677.982 236.983C677.718 237.097 677.395 237.153 677.015 237.153ZM677.168 236.25C677.566 236.25 677.901 236.172 678.174 236.016C678.449 235.859 678.657 235.658 678.796 235.411C678.938 235.163 679.009 234.903 679.009 234.631V233.71C678.966 233.761 678.873 233.808 678.728 233.851C678.586 233.891 678.421 233.926 678.233 233.957C678.049 233.986 677.868 234.011 677.692 234.034C677.519 234.054 677.378 234.071 677.27 234.085C677.009 234.119 676.765 234.175 676.537 234.251C676.313 234.325 676.131 234.437 675.992 234.588C675.855 234.736 675.787 234.937 675.787 235.193C675.787 235.543 675.917 235.807 676.175 235.986C676.436 236.162 676.767 236.25 677.168 236.25ZM678.498 228.273H679.435C679.435 228.733 679.276 229.109 678.958 229.402C678.64 229.695 678.208 229.841 677.662 229.841C677.125 229.841 676.698 229.695 676.38 229.402C676.064 229.109 675.907 228.733 675.907 228.273H676.844C676.844 228.494 676.905 228.689 677.027 228.857C677.152 229.024 677.364 229.108 677.662 229.108C677.961 229.108 678.174 229.024 678.301 228.857C678.432 228.689 678.498 228.494 678.498 228.273ZM682.856 233.062V237H681.85V230.455H682.822V231.477H682.907C683.06 231.145 683.293 230.878 683.606 230.676C683.918 230.472 684.322 230.369 684.816 230.369C685.259 230.369 685.647 230.46 685.979 230.642C686.312 230.821 686.57 231.094 686.755 231.46C686.94 231.824 687.032 232.284 687.032 232.841V237H686.026V232.909C686.026 232.395 685.893 231.994 685.626 231.707C685.359 231.418 684.992 231.273 684.526 231.273C684.205 231.273 683.918 231.342 683.665 231.482C683.415 231.621 683.218 231.824 683.073 232.091C682.928 232.358 682.856 232.682 682.856 233.062ZM691.512 239.591C691.026 239.591 690.608 239.528 690.259 239.403C689.909 239.281 689.618 239.119 689.385 238.918C689.155 238.719 688.972 238.506 688.836 238.278L689.637 237.716C689.728 237.835 689.843 237.972 689.982 238.125C690.121 238.281 690.311 238.416 690.553 238.53C690.797 238.646 691.117 238.705 691.512 238.705C692.04 238.705 692.476 238.577 692.82 238.321C693.164 238.065 693.336 237.665 693.336 237.119V235.79H693.25C693.176 235.909 693.071 236.057 692.935 236.233C692.801 236.406 692.608 236.561 692.355 236.697C692.105 236.831 691.767 236.898 691.341 236.898C690.813 236.898 690.338 236.773 689.918 236.523C689.5 236.273 689.169 235.909 688.925 235.432C688.684 234.955 688.563 234.375 688.563 233.693C688.563 233.023 688.681 232.439 688.917 231.942C689.152 231.442 689.48 231.055 689.901 230.783C690.321 230.507 690.807 230.369 691.358 230.369C691.784 230.369 692.123 230.44 692.373 230.582C692.625 230.722 692.819 230.881 692.952 231.06C693.088 231.236 693.194 231.381 693.267 231.494H693.37V230.455H694.341V237.188C694.341 237.75 694.213 238.207 693.958 238.56C693.705 238.915 693.364 239.175 692.935 239.339C692.509 239.507 692.034 239.591 691.512 239.591ZM691.478 235.994C691.881 235.994 692.222 235.902 692.5 235.717C692.779 235.533 692.99 235.267 693.135 234.92C693.28 234.574 693.353 234.159 693.353 233.676C693.353 233.205 693.282 232.788 693.14 232.428C692.998 232.067 692.787 231.784 692.509 231.58C692.23 231.375 691.887 231.273 691.478 231.273C691.051 231.273 690.696 231.381 690.412 231.597C690.131 231.812 689.919 232.102 689.777 232.466C689.638 232.83 689.569 233.233 689.569 233.676C689.569 234.131 689.64 234.533 689.782 234.882C689.926 235.229 690.14 235.501 690.421 235.7C690.705 235.896 691.057 235.994 691.478 235.994ZM700.495 234.614L700.478 233.369H700.682L703.546 230.455H704.79L701.739 233.54H701.654L700.495 234.614ZM699.557 237V228.273H700.563V237H699.557ZM703.716 237L701.159 233.761L701.875 233.062L704.995 237H703.716ZM706.732 239.455C706.562 239.455 706.41 239.44 706.276 239.412C706.143 239.386 706.05 239.361 705.999 239.335L706.255 238.449C706.499 238.511 706.715 238.534 706.903 238.517C707.09 238.5 707.256 238.416 707.401 238.266C707.549 238.118 707.684 237.878 707.806 237.545L707.994 237.034L705.573 230.455H706.664L708.471 235.67H708.539L710.346 230.455H711.437L708.658 237.955C708.533 238.293 708.379 238.572 708.194 238.794C708.009 239.018 707.795 239.185 707.55 239.293C707.309 239.401 707.036 239.455 706.732 239.455ZM708.045 229.568L709.085 227.591H710.261L708.931 229.568H708.045Z" fill="#060606"/>
<path d="M635.778 262V250.364H637.534V255.92H637.676L642.557 250.364H644.767L640.074 255.602L644.784 262H642.67L638.909 256.801L637.534 258.381V262H635.778ZM647.966 256.818V262H646.267V250.364H647.943V254.693H648.051C648.256 254.223 648.568 253.85 648.989 253.574C649.409 253.297 649.958 253.159 650.636 253.159C651.235 253.159 651.758 253.282 652.205 253.528C652.655 253.775 653.004 254.142 653.25 254.631C653.5 255.116 653.625 255.722 653.625 256.449V262H651.926V256.653C651.926 256.013 651.761 255.517 651.432 255.165C651.102 254.809 650.644 254.631 650.057 254.631C649.655 254.631 649.295 254.716 648.977 254.886C648.663 255.057 648.415 255.307 648.233 255.636C648.055 255.962 647.966 256.356 647.966 256.818ZM659.568 262.176C658.75 262.176 658.036 261.989 657.426 261.614C656.816 261.239 656.343 260.714 656.006 260.04C655.669 259.366 655.5 258.578 655.5 257.676C655.5 256.771 655.669 255.979 656.006 255.301C656.343 254.623 656.816 254.097 657.426 253.722C658.036 253.347 658.75 253.159 659.568 253.159C660.386 253.159 661.1 253.347 661.71 253.722C662.32 254.097 662.794 254.623 663.131 255.301C663.468 255.979 663.636 256.771 663.636 257.676C663.636 258.578 663.468 259.366 663.131 260.04C662.794 260.714 662.32 261.239 661.71 261.614C661.1 261.989 660.386 262.176 659.568 262.176ZM659.574 260.75C660.104 260.75 660.544 260.61 660.892 260.33C661.241 260.049 661.498 259.676 661.665 259.21C661.835 258.744 661.92 258.231 661.92 257.67C661.92 257.114 661.835 256.602 661.665 256.136C661.498 255.667 661.241 255.29 660.892 255.006C660.544 254.722 660.104 254.58 659.574 254.58C659.04 254.58 658.597 254.722 658.244 255.006C657.896 255.29 657.636 255.667 657.466 256.136C657.299 256.602 657.216 257.114 657.216 257.67C657.216 258.231 657.299 258.744 657.466 259.21C657.636 259.676 657.896 260.049 658.244 260.33C658.597 260.61 659.04 260.75 659.574 260.75ZM658.869 252.108L660.199 249.489H661.989L660.227 252.108H658.869ZM668.072 262.193C667.519 262.193 667.019 262.091 666.572 261.886C666.125 261.678 665.771 261.377 665.51 260.983C665.252 260.589 665.124 260.106 665.124 259.534C665.124 259.042 665.218 258.636 665.408 258.318C665.597 258 665.853 257.748 666.175 257.562C666.497 257.377 666.857 257.237 667.254 257.142C667.652 257.047 668.057 256.975 668.47 256.926C668.993 256.866 669.417 256.816 669.743 256.778C670.069 256.737 670.305 256.67 670.453 256.58C670.601 256.489 670.675 256.341 670.675 256.136V256.097C670.675 255.6 670.535 255.216 670.254 254.943C669.978 254.67 669.565 254.534 669.016 254.534C668.444 254.534 667.993 254.661 667.663 254.915C667.338 255.165 667.112 255.443 666.987 255.75L665.391 255.386C665.58 254.856 665.857 254.428 666.22 254.102C666.588 253.773 667.01 253.534 667.487 253.386C667.964 253.235 668.466 253.159 668.993 253.159C669.341 253.159 669.711 253.201 670.101 253.284C670.495 253.364 670.862 253.511 671.203 253.727C671.548 253.943 671.83 254.252 672.05 254.653C672.269 255.051 672.379 255.568 672.379 256.205V262H670.72V260.807H670.652C670.542 261.027 670.377 261.242 670.158 261.455C669.938 261.667 669.656 261.843 669.311 261.983C668.966 262.123 668.554 262.193 668.072 262.193ZM668.442 260.83C668.911 260.83 669.313 260.737 669.646 260.551C669.983 260.366 670.239 260.123 670.413 259.824C670.591 259.521 670.68 259.197 670.68 258.852V257.727C670.62 257.788 670.502 257.845 670.328 257.898C670.158 257.947 669.963 257.991 669.743 258.028C669.523 258.062 669.309 258.095 669.101 258.125C668.893 258.152 668.718 258.174 668.578 258.193C668.249 258.235 667.947 258.305 667.675 258.403C667.406 258.502 667.19 258.644 667.027 258.83C666.868 259.011 666.788 259.254 666.788 259.557C666.788 259.977 666.944 260.295 667.254 260.511C667.565 260.723 667.961 260.83 668.442 260.83ZM679.996 262H678.132L682.32 250.364H684.348L688.536 262H686.672L683.382 252.477H683.291L679.996 262ZM680.308 257.443H686.354V258.92H680.308V257.443ZM690.216 262V250.364H694.477C695.303 250.364 695.987 250.5 696.528 250.773C697.07 251.042 697.475 251.407 697.744 251.869C698.013 252.328 698.148 252.845 698.148 253.42C698.148 253.905 698.059 254.314 697.881 254.648C697.703 254.977 697.464 255.242 697.165 255.443C696.869 255.64 696.544 255.784 696.188 255.875V255.989C696.574 256.008 696.951 256.133 697.318 256.364C697.689 256.591 697.996 256.915 698.239 257.335C698.481 257.756 698.602 258.267 698.602 258.869C698.602 259.464 698.462 259.998 698.182 260.472C697.905 260.941 697.477 261.314 696.898 261.591C696.318 261.864 695.578 262 694.676 262H690.216ZM691.972 260.494H694.506C695.347 260.494 695.949 260.331 696.312 260.006C696.676 259.68 696.858 259.273 696.858 258.784C696.858 258.417 696.765 258.08 696.58 257.773C696.394 257.466 696.129 257.222 695.784 257.04C695.443 256.858 695.038 256.767 694.568 256.767H691.972V260.494ZM691.972 255.398H694.324C694.718 255.398 695.072 255.322 695.386 255.17C695.705 255.019 695.956 254.807 696.142 254.534C696.331 254.258 696.426 253.932 696.426 253.557C696.426 253.076 696.258 252.672 695.92 252.347C695.583 252.021 695.066 251.858 694.369 251.858H691.972V255.398ZM710.349 254.148H708.577C708.509 253.769 708.382 253.436 708.196 253.148C708.01 252.86 707.783 252.616 707.514 252.415C707.245 252.214 706.944 252.062 706.611 251.96C706.281 251.858 705.931 251.807 705.56 251.807C704.889 251.807 704.289 251.975 703.759 252.312C703.232 252.65 702.815 253.144 702.509 253.795C702.205 254.447 702.054 255.242 702.054 256.182C702.054 257.129 702.205 257.928 702.509 258.58C702.815 259.231 703.234 259.723 703.764 260.057C704.295 260.39 704.891 260.557 705.554 260.557C705.921 260.557 706.27 260.508 706.599 260.409C706.933 260.307 707.234 260.157 707.503 259.96C707.772 259.763 707.999 259.523 708.185 259.239C708.374 258.951 708.505 258.621 708.577 258.25L710.349 258.256C710.255 258.828 710.071 259.354 709.798 259.835C709.529 260.312 709.183 260.725 708.759 261.074C708.338 261.419 707.857 261.686 707.315 261.875C706.774 262.064 706.183 262.159 705.543 262.159C704.535 262.159 703.637 261.92 702.849 261.443C702.062 260.962 701.44 260.275 700.986 259.381C700.535 258.487 700.31 257.42 700.31 256.182C700.31 254.939 700.537 253.873 700.991 252.983C701.446 252.089 702.067 251.403 702.855 250.926C703.643 250.445 704.539 250.205 705.543 250.205C706.16 250.205 706.736 250.294 707.27 250.472C707.808 250.646 708.291 250.903 708.719 251.244C709.147 251.581 709.501 251.994 709.781 252.483C710.062 252.968 710.251 253.523 710.349 254.148Z" fill="#004FC5"/>
<path d="M906.366 261.5C905.981 262.167 905.019 262.167 904.634 261.5L899.438 252.5C899.053 251.833 899.534 251 900.304 251L910.696 251C911.466 251 911.947 251.833 911.562 252.5L906.366 261.5Z" fill="#616364"/>
<rect x="433.5" y="316" width="342" height="60" rx="30" fill="#004FC5"/>
<path d="M523.92 353H520.135V350.365H523.793C524.702 350.365 525.466 350.204 526.087 349.882C526.712 349.555 527.18 349.051 527.493 348.369C527.81 347.683 527.969 346.797 527.969 345.713C527.969 344.638 527.81 343.76 527.493 343.078C527.18 342.396 526.714 341.894 526.094 341.572C525.473 341.25 524.709 341.089 523.8 341.089H520.071V338.455H523.963C525.426 338.455 526.686 338.746 527.741 339.328C528.797 339.906 529.609 340.737 530.178 341.821C530.75 342.905 531.037 344.203 531.037 345.713C531.037 347.228 530.75 348.53 530.178 349.619C529.609 350.708 528.793 351.544 527.727 352.126C526.667 352.709 525.398 353 523.92 353ZM521.839 338.455V353H518.764V338.455H521.839ZM516.747 346.224V344.435H523.828V346.224H516.747ZM536.369 353.206C535.673 353.206 535.053 353.085 534.508 352.844C533.964 352.598 533.533 352.235 533.216 351.757C532.903 351.274 532.747 350.673 532.747 349.953C532.747 349.347 532.858 348.838 533.081 348.426C533.303 348.014 533.606 347.683 533.99 347.432C534.373 347.181 534.809 346.991 535.297 346.864C535.789 346.736 536.305 346.646 536.845 346.594C537.479 346.527 537.991 346.466 538.379 346.409C538.767 346.348 539.049 346.258 539.224 346.139C539.399 346.021 539.487 345.846 539.487 345.614V345.571C539.487 345.121 539.345 344.773 539.061 344.527C538.781 344.281 538.384 344.158 537.868 344.158C537.323 344.158 536.89 344.278 536.568 344.52C536.246 344.757 536.033 345.055 535.929 345.415L533.13 345.188C533.272 344.525 533.552 343.952 533.968 343.469C534.385 342.981 534.922 342.607 535.581 342.347C536.243 342.081 537.011 341.949 537.882 341.949C538.488 341.949 539.068 342.02 539.622 342.162C540.181 342.304 540.675 342.524 541.106 342.822C541.542 343.121 541.885 343.504 542.136 343.973C542.387 344.437 542.512 344.993 542.512 345.642V353H539.643V351.487H539.558C539.383 351.828 539.148 352.129 538.855 352.389C538.561 352.645 538.208 352.846 537.797 352.993C537.385 353.135 536.909 353.206 536.369 353.206ZM537.235 351.118C537.681 351.118 538.074 351.03 538.414 350.855C538.755 350.675 539.023 350.434 539.217 350.131C539.411 349.828 539.508 349.484 539.508 349.101V347.943C539.413 348.005 539.283 348.062 539.118 348.114C538.957 348.161 538.774 348.206 538.571 348.249C538.367 348.286 538.163 348.322 537.96 348.355C537.756 348.384 537.572 348.41 537.406 348.433C537.051 348.485 536.741 348.568 536.475 348.682C536.21 348.795 536.004 348.949 535.858 349.143C535.711 349.333 535.637 349.57 535.637 349.854C535.637 350.266 535.787 350.58 536.085 350.798C536.388 351.011 536.771 351.118 537.235 351.118ZM539.402 338.284H541.511C541.506 339.146 541.187 339.839 540.552 340.365C539.922 340.891 539.07 341.153 537.995 341.153C536.916 341.153 536.061 340.891 535.431 340.365C534.802 339.839 534.487 339.146 534.487 338.284H536.582C536.577 338.611 536.681 338.904 536.895 339.165C537.112 339.425 537.479 339.555 537.995 339.555C538.497 339.555 538.857 339.428 539.075 339.172C539.293 338.916 539.402 338.62 539.402 338.284ZM547.885 346.693V353H544.86V342.091H547.743V344.016H547.871C548.113 343.381 548.517 342.879 549.086 342.51C549.654 342.136 550.343 341.949 551.152 341.949C551.91 341.949 552.57 342.115 553.134 342.446C553.697 342.777 554.135 343.251 554.448 343.866C554.76 344.477 554.917 345.206 554.917 346.054V353H551.891V346.594C551.896 345.926 551.725 345.405 551.38 345.031C551.034 344.652 550.558 344.463 549.952 344.463C549.545 344.463 549.185 344.551 548.873 344.726C548.565 344.901 548.323 345.157 548.148 345.493C547.978 345.824 547.89 346.224 547.885 346.693ZM562.216 357.318C561.236 357.318 560.395 357.183 559.695 356.913C558.999 356.648 558.445 356.286 558.033 355.827C557.621 355.367 557.353 354.851 557.23 354.278L560.028 353.902C560.114 354.12 560.249 354.323 560.433 354.513C560.618 354.702 560.862 354.854 561.165 354.967C561.473 355.086 561.847 355.145 562.287 355.145C562.945 355.145 563.487 354.984 563.913 354.662C564.344 354.345 564.56 353.812 564.56 353.064V351.068H564.432C564.299 351.371 564.1 351.658 563.835 351.928C563.57 352.197 563.229 352.418 562.812 352.588C562.396 352.759 561.899 352.844 561.321 352.844C560.502 352.844 559.756 352.654 559.084 352.276C558.416 351.892 557.884 351.307 557.486 350.521C557.093 349.731 556.896 348.732 556.896 347.524C556.896 346.288 557.098 345.256 557.5 344.428C557.902 343.599 558.438 342.979 559.105 342.567C559.777 342.155 560.514 341.949 561.314 341.949C561.925 341.949 562.436 342.053 562.848 342.261C563.26 342.465 563.591 342.721 563.842 343.028C564.098 343.331 564.295 343.63 564.432 343.923H564.545V342.091H567.55V353.107C567.55 354.035 567.322 354.811 566.868 355.436C566.413 356.061 565.784 356.53 564.979 356.842C564.179 357.16 563.258 357.318 562.216 357.318ZM562.28 350.571C562.768 350.571 563.179 350.45 563.516 350.209C563.857 349.963 564.117 349.612 564.297 349.158C564.482 348.698 564.574 348.149 564.574 347.51C564.574 346.871 564.484 346.317 564.304 345.848C564.124 345.375 563.864 345.008 563.523 344.747C563.182 344.487 562.768 344.357 562.28 344.357C561.783 344.357 561.364 344.491 561.023 344.761C560.682 345.027 560.424 345.396 560.249 345.869C560.073 346.343 559.986 346.89 559.986 347.51C559.986 348.14 560.073 348.684 560.249 349.143C560.429 349.598 560.687 349.951 561.023 350.202C561.364 350.448 561.783 350.571 562.28 350.571ZM577.328 349.861L577.335 346.232H577.775L581.27 342.091H584.743L580.048 347.574H579.331L577.328 349.861ZM574.586 353V338.455H577.612V353H574.586ZM581.404 353L578.194 348.249L580.211 346.111L584.949 353H581.404ZM588.271 357.091C587.887 357.091 587.527 357.06 587.191 356.999C586.86 356.942 586.585 356.868 586.367 356.778L587.049 354.52C587.404 354.629 587.724 354.688 588.008 354.697C588.297 354.707 588.545 354.641 588.754 354.499C588.967 354.357 589.139 354.115 589.272 353.774L589.45 353.312L585.536 342.091H588.718L590.977 350.102H591.09L593.37 342.091H596.573L592.333 354.179C592.129 354.766 591.853 355.277 591.502 355.713C591.156 356.153 590.719 356.492 590.188 356.729C589.658 356.97 589.019 357.091 588.271 357.091ZM589.947 340.685L591.452 337.453H594.251L592.085 340.685H589.947ZM605.492 349.861L605.499 346.232H605.939L609.434 342.091H612.907L608.212 347.574H607.495L605.492 349.861ZM602.75 353V338.455H605.776V353H602.75ZM609.569 353L606.358 348.249L608.375 346.111L613.113 353H609.569ZM617.417 346.693V353H614.391V338.455H617.331V344.016H617.459C617.705 343.372 618.103 342.867 618.652 342.503C619.202 342.134 619.891 341.949 620.719 341.949C621.477 341.949 622.137 342.115 622.701 342.446C623.269 342.773 623.709 343.244 624.022 343.859C624.339 344.47 624.495 345.202 624.49 346.054V353H621.465V346.594C621.47 345.921 621.299 345.398 620.953 345.024C620.613 344.65 620.134 344.463 619.519 344.463C619.107 344.463 618.742 344.551 618.425 344.726C618.113 344.901 617.866 345.157 617.686 345.493C617.511 345.824 617.421 346.224 617.417 346.693ZM631.8 353.213C630.697 353.213 629.743 352.979 628.938 352.51C628.138 352.036 627.52 351.378 627.085 350.536C626.649 349.688 626.431 348.705 626.431 347.588C626.431 346.461 626.649 345.476 627.085 344.634C627.52 343.786 628.138 343.128 628.938 342.659C629.743 342.186 630.697 341.949 631.8 341.949C632.904 341.949 633.855 342.186 634.656 342.659C635.46 343.128 636.081 343.786 636.516 344.634C636.952 345.476 637.17 346.461 637.17 347.588C637.17 348.705 636.952 349.688 636.516 350.536C636.081 351.378 635.46 352.036 634.656 352.51C633.855 352.979 632.904 353.213 631.8 353.213ZM631.815 350.869C632.317 350.869 632.736 350.727 633.072 350.443C633.408 350.154 633.661 349.761 633.832 349.264C634.007 348.767 634.094 348.201 634.094 347.567C634.094 346.932 634.007 346.366 633.832 345.869C633.661 345.372 633.408 344.979 633.072 344.69C632.736 344.402 632.317 344.257 631.815 344.257C631.308 344.257 630.882 344.402 630.536 344.69C630.195 344.979 629.937 345.372 629.762 345.869C629.592 346.366 629.506 346.932 629.506 347.567C629.506 348.201 629.592 348.767 629.762 349.264C629.937 349.761 630.195 350.154 630.536 350.443C630.882 350.727 631.308 350.869 631.815 350.869ZM630.714 340.685L632.219 337.453H635.018L632.852 340.685H630.714ZM642.248 353.206C641.552 353.206 640.932 353.085 640.387 352.844C639.843 352.598 639.412 352.235 639.094 351.757C638.782 351.274 638.626 350.673 638.626 349.953C638.626 349.347 638.737 348.838 638.96 348.426C639.182 348.014 639.485 347.683 639.869 347.432C640.252 347.181 640.688 346.991 641.175 346.864C641.668 346.736 642.184 346.646 642.724 346.594C643.358 346.527 643.87 346.466 644.258 346.409C644.646 346.348 644.928 346.258 645.103 346.139C645.278 346.021 645.366 345.846 645.366 345.614V345.571C645.366 345.121 645.224 344.773 644.94 344.527C644.66 344.281 644.263 344.158 643.746 344.158C643.202 344.158 642.769 344.278 642.447 344.52C642.125 344.757 641.912 345.055 641.808 345.415L639.009 345.188C639.151 344.525 639.431 343.952 639.847 343.469C640.264 342.981 640.801 342.607 641.46 342.347C642.122 342.081 642.889 341.949 643.761 341.949C644.367 341.949 644.947 342.02 645.501 342.162C646.059 342.304 646.554 342.524 646.985 342.822C647.421 343.121 647.764 343.504 648.015 343.973C648.266 344.437 648.391 344.993 648.391 345.642V353H645.522V351.487H645.437C645.262 351.828 645.027 352.129 644.734 352.389C644.44 352.645 644.087 352.846 643.675 352.993C643.263 353.135 642.788 353.206 642.248 353.206ZM643.114 351.118C643.559 351.118 643.952 351.03 644.293 350.855C644.634 350.675 644.902 350.434 645.096 350.131C645.29 349.828 645.387 349.484 645.387 349.101V347.943C645.292 348.005 645.162 348.062 644.996 348.114C644.835 348.161 644.653 348.206 644.45 348.249C644.246 348.286 644.042 348.322 643.839 348.355C643.635 348.384 643.451 348.41 643.285 348.433C642.93 348.485 642.62 348.568 642.354 348.682C642.089 348.795 641.883 348.949 641.737 349.143C641.59 349.333 641.516 349.57 641.516 349.854C641.516 350.266 641.665 350.58 641.964 350.798C642.267 351.011 642.65 351.118 643.114 351.118ZM658.393 346.693V353H655.368V338.455H658.308V344.016H658.436C658.682 343.372 659.08 342.867 659.629 342.503C660.178 342.134 660.867 341.949 661.696 341.949C662.453 341.949 663.114 342.115 663.677 342.446C664.245 342.773 664.686 343.244 664.998 343.859C665.315 344.47 665.472 345.202 665.467 346.054V353H662.441V346.594C662.446 345.921 662.276 345.398 661.93 345.024C661.589 344.65 661.111 344.463 660.495 344.463C660.083 344.463 659.719 344.551 659.402 344.726C659.089 344.901 658.843 345.157 658.663 345.493C658.488 345.824 658.398 346.224 658.393 346.693ZM672.777 353.213C671.674 353.213 670.72 352.979 669.915 352.51C669.115 352.036 668.497 351.378 668.061 350.536C667.625 349.688 667.408 348.705 667.408 347.588C667.408 346.461 667.625 345.476 668.061 344.634C668.497 343.786 669.115 343.128 669.915 342.659C670.72 342.186 671.674 341.949 672.777 341.949C673.88 341.949 674.832 342.186 675.632 342.659C676.437 343.128 677.057 343.786 677.493 344.634C677.929 345.476 678.146 346.461 678.146 347.588C678.146 348.705 677.929 349.688 677.493 350.536C677.057 351.378 676.437 352.036 675.632 352.51C674.832 352.979 673.88 353.213 672.777 353.213ZM672.791 350.869C673.293 350.869 673.712 350.727 674.048 350.443C674.384 350.154 674.638 349.761 674.808 349.264C674.983 348.767 675.071 348.201 675.071 347.567C675.071 346.932 674.983 346.366 674.808 345.869C674.638 345.372 674.384 344.979 674.048 344.69C673.712 344.402 673.293 344.257 672.791 344.257C672.285 344.257 671.858 344.402 671.513 344.69C671.172 344.979 670.914 345.372 670.739 345.869C670.568 346.366 670.483 346.932 670.483 347.567C670.483 348.201 670.568 348.767 670.739 349.264C670.914 349.761 671.172 350.154 671.513 350.443C671.858 350.727 672.285 350.869 672.791 350.869ZM672.777 357.084C672.327 357.084 671.941 356.935 671.619 356.636C671.297 356.338 671.136 355.978 671.136 355.557C671.136 355.135 671.297 354.776 671.619 354.477C671.941 354.179 672.327 354.03 672.777 354.03C673.227 354.03 673.61 354.179 673.928 354.477C674.25 354.776 674.411 355.135 674.411 355.557C674.411 355.978 674.25 356.338 673.928 356.636C673.61 356.935 673.227 357.084 672.777 357.084ZM685.043 353.213C683.925 353.213 682.964 352.976 682.159 352.503C681.359 352.025 680.743 351.362 680.312 350.514C679.886 349.667 679.673 348.691 679.673 347.588C679.673 346.471 679.889 345.491 680.32 344.648C680.755 343.8 681.373 343.14 682.173 342.666C682.973 342.188 683.925 341.949 685.028 341.949C685.98 341.949 686.813 342.122 687.528 342.467C688.243 342.813 688.809 343.298 689.226 343.923C689.643 344.548 689.872 345.282 689.915 346.125H687.06C686.979 345.58 686.766 345.143 686.42 344.811C686.08 344.475 685.632 344.307 685.078 344.307C684.609 344.307 684.2 344.435 683.849 344.69C683.504 344.941 683.234 345.308 683.04 345.791C682.846 346.274 682.749 346.859 682.749 347.545C682.749 348.241 682.843 348.833 683.033 349.321C683.227 349.809 683.499 350.18 683.849 350.436C684.2 350.692 684.609 350.82 685.078 350.82C685.424 350.82 685.734 350.749 686.009 350.607C686.288 350.464 686.518 350.259 686.697 349.989C686.882 349.714 687.003 349.385 687.06 349.001H689.915C689.867 349.835 689.64 350.569 689.233 351.203C688.83 351.833 688.274 352.325 687.564 352.68C686.854 353.036 686.013 353.213 685.043 353.213Z" fill="white"/>
</g>
<defs>
<clipPath id="clip0_28_2305">
<rect width="1209" height="414" rx="25" fill="white"/>
</clipPath>
</defs>
</svg>
