<svg width="64" height="65" viewBox="0 0 64 65" fill="none" xmlns="http://www.w3.org/2000/svg">
<g clip-path="url(#clip0_34_587)">
<rect y="0.5" width="64" height="64" rx="32" fill="#DAE6FF"/>
<g clip-path="url(#clip1_34_587)">
<path d="M50.7794 27.8301C50.6298 27.7259 50.5423 27.5537 50.5463 27.3715C50.5557 26.9371 51.0451 26.6883 51.4017 26.9365L54.8152 29.3132C55.4761 29.7733 56.3484 29.7922 57.0286 29.3611L60.7771 26.9856C61.4576 26.5544 62.3304 26.5736 62.9914 27.0343L66.6287 29.5697C67.2898 30.0305 68.1629 30.0495 68.8434 29.618L72.5876 27.2439C73.2682 26.8123 74.1412 26.8314 74.8023 27.2922L78.4393 29.8273C79.1004 30.2882 79.9735 30.3072 80.6541 29.8756L84.1626 27.6507C84.5301 27.4176 85.0091 27.6879 84.9996 28.1229C84.9956 28.3054 84.9006 28.4737 84.7465 28.5715L80.6255 31.1848C79.9449 31.6164 79.0718 31.5974 78.4107 31.1366L74.7737 28.6014C74.1126 28.1406 73.2396 28.1216 72.559 28.5531L68.8149 30.9272C68.1343 31.3588 67.2613 31.3397 66.6002 30.8789L62.9628 28.3435C62.3019 27.8828 61.4291 27.8636 60.7486 28.2949L57.0004 30.6701C56.32 31.1013 55.4474 31.0822 54.7865 30.6218L50.7794 27.8301Z" fill="#F0F5FF"/>
<path d="M50.8783 23.2944C50.7287 23.1902 50.6412 23.0181 50.6452 22.8358C50.6547 22.4015 51.1441 22.1526 51.5007 22.4009L54.9142 24.7775C55.5751 25.2376 56.4474 25.2565 57.1275 24.8255L60.8761 22.45C61.5566 22.0188 62.4294 22.0379 63.0903 22.4986L66.7277 25.034C67.3888 25.4948 68.2618 25.5139 68.9424 25.0824L72.6866 22.7082C73.3671 22.2767 74.2402 22.2957 74.9013 22.7565L78.5383 25.2917C79.1994 25.7525 80.0725 25.7716 80.753 25.34L84.2616 23.115C84.6291 22.8819 85.1081 23.1522 85.0986 23.5873C85.0946 23.7697 84.9996 23.9381 84.8455 24.0358L80.7245 26.6492C80.0439 27.0808 79.1708 27.0617 78.5097 26.6009L74.8727 24.0658C74.2116 23.605 73.3386 23.5859 72.658 24.0174L68.9138 26.3916C68.2333 26.8231 67.3602 26.8041 66.6991 26.3433L63.0618 23.8078C62.4008 23.3471 61.528 23.328 60.8475 23.7592L57.0993 26.1345C56.419 26.5656 55.5464 26.5466 54.8855 26.0862L50.8783 23.2944Z" fill="#F0F5FF"/>
<path d="M51.0763 14.2234C50.9267 14.1192 50.8392 13.947 50.8432 13.7648C50.8526 13.3304 51.342 13.0816 51.6986 13.3298L55.1121 15.7065C55.773 16.1666 56.6453 16.1855 57.3255 15.7545L61.074 13.379C61.7545 12.9477 62.6274 12.9669 63.2883 13.4276L66.9256 15.963C67.5867 16.4238 68.4598 16.4428 69.1403 16.0113L72.8845 13.6372C73.5651 13.2056 74.4381 13.2247 75.0992 13.6855L78.7362 16.2207C79.3973 16.6815 80.2704 16.7005 80.951 16.2689L84.4595 14.044C84.827 13.8109 85.306 14.0812 85.2965 14.5163C85.2925 14.6987 85.1975 14.867 85.0434 14.9648L80.9224 17.5782C80.2418 18.0097 79.3687 17.9907 78.7076 17.5299L75.0706 14.9947C74.4095 14.5339 73.5365 14.5149 72.8559 14.9464L69.1118 17.3205C68.4312 17.7521 67.5582 17.733 66.8971 17.2722L63.2597 14.7368C62.5988 14.2761 61.726 14.2569 61.0455 14.6882L57.2973 17.0635C56.6169 17.4946 55.7443 17.4755 55.0834 17.0151L51.0763 14.2234Z" fill="#F0F5FF"/>
<path d="M50.9773 18.759C50.8277 18.6548 50.7402 18.4827 50.7442 18.3004C50.7537 17.8661 51.2431 17.6172 51.5996 17.8655L55.0132 20.2421C55.674 20.7022 56.5463 20.7211 57.2265 20.2901L60.9751 17.9146C61.6556 17.4834 62.5284 17.5025 63.1893 17.9632L66.8267 20.4986C67.4878 20.9594 68.3608 20.9785 69.0414 20.547L72.7855 18.1728C73.4661 17.7413 74.3391 17.7603 75.0002 18.2211L78.6372 20.7563C79.2983 21.2171 80.1714 21.2362 80.852 20.8046L84.3605 18.5796C84.728 18.3465 85.207 18.6168 85.1975 19.0519C85.1936 19.2343 85.0986 19.4027 84.9445 19.5004L80.8234 22.1138C80.1429 22.5454 79.2698 22.5263 78.6087 22.0655L74.9717 19.5304C74.3106 19.0696 73.4375 19.0505 72.757 19.482L69.0128 21.8562C68.3322 22.2877 67.4592 22.2687 66.7981 21.8079L63.1607 19.2724C62.4998 18.8117 61.627 18.7926 60.9465 19.2238L57.1983 21.5991C56.518 22.0302 55.6454 22.0112 54.9845 21.5508L50.9773 18.759Z" fill="#F0F5FF"/>
<path d="M51.1752 9.68797C51.0256 9.58377 50.9382 9.41162 50.9421 9.22936C50.9516 8.79501 51.441 8.54617 51.7976 8.79441L55.2111 11.1711C55.872 11.6312 56.7443 11.6501 57.4244 11.2191L61.173 8.84355C61.8535 8.41231 62.7263 8.43147 63.3872 8.89216L67.0246 11.4276C67.6857 11.8884 68.5587 11.9074 69.2393 11.4759L72.9835 9.10177C73.664 8.67024 74.5371 8.68929 75.1982 9.15009L78.8352 11.6853C79.4963 12.1461 80.3694 12.1651 81.0499 11.7335L84.5585 9.50856C84.926 9.2755 85.405 9.54579 85.3955 9.98086C85.3915 10.1633 85.2965 10.3316 85.1424 10.4294L81.0214 13.0428C80.3408 13.4743 79.4677 13.4553 78.8066 12.9945L75.1696 10.4593C74.5085 9.99851 73.6355 9.97946 72.9549 10.411L69.2107 12.7851C68.5302 13.2167 67.6571 13.1976 66.996 12.7368L63.3587 10.2014C62.6978 9.7407 61.8249 9.72153 61.1444 10.1528L57.3962 12.5281C56.7159 12.9592 55.8433 12.9401 55.1824 12.4797L51.1752 9.68797Z" fill="#F0F5FF"/>
</g>
<path d="M41.4694 37.2175C44.1468 34.7833 45.8257 31.2701 45.8257 27.3673C45.8257 20.0061 39.8582 14.0386 32.4988 14.0386C25.1377 14.0386 19.1701 20.0043 19.1701 27.3673C19.1701 31.2719 20.849 34.7833 23.5246 37.2175H31.5752V26.7784H27.4164V25.2367H37.2758V26.7784H33.117V37.2157H41.4694V37.2175Z" fill="#2BB4A0"/>
<path d="M38.2977 45.0691C37.9265 47.9111 35.4941 50.1058 32.5514 50.1058C29.6088 50.1058 27.1764 47.9111 26.8052 45.0691H38.2977Z" fill="#2BB4A0"/>
<path d="M39.9759 38.3589H25.0158V44.1143H39.9759V38.3589Z" fill="white"/>
<g opacity="0.51">
<path d="M33.1191 57.1155C36.9078 57.1155 39.9792 56.5817 39.9792 55.9231C39.9792 55.2646 36.9078 54.7307 33.1191 54.7307C29.3304 54.7307 26.2591 55.2646 26.2591 55.9231C26.2591 56.5817 29.3304 57.1155 33.1191 57.1155Z" fill="white"/>
</g>
<path d="M18.2019 18.2672C18.7382 18.2672 19.173 17.8324 19.173 17.2961C19.173 16.7597 18.7382 16.325 18.2019 16.325C17.6656 16.325 17.2308 16.7597 17.2308 17.2961C17.2308 17.8324 17.6656 18.2672 18.2019 18.2672Z" fill="#2BB4A0"/>
<g clip-path="url(#clip2_34_587)">
<path d="M12.7581 41.3872C12.3441 41.389 12.007 41.0549 12.0052 40.6409C12.0034 40.2269 12.3375 39.8898 12.7515 39.888C13.1655 39.8862 13.5026 40.2204 13.5044 40.6344C13.5062 41.0484 13.1721 41.3854 12.7581 41.3872Z" fill="white"/>
<path d="M8.93831 41.4038C8.52431 41.4056 8.18724 41.0715 8.18544 40.6575C8.18363 40.2435 8.51777 39.9064 8.93177 39.9046C9.34576 39.9028 9.68283 40.237 9.68464 40.651C9.68644 41.065 9.3523 41.402 8.93831 41.4038Z" fill="#2BB4A0"/>
<path d="M5.11854 41.4204C4.70455 41.4222 4.36748 41.0881 4.36567 40.6741C4.36387 40.2601 4.69801 39.923 5.112 39.9212C5.526 39.9194 5.86307 40.2536 5.86487 40.6676C5.86668 41.0816 5.53254 41.4186 5.11854 41.4204Z" fill="#2BB4A0"/>
<path d="M1.29878 41.437C0.884789 41.4388 0.547716 41.1047 0.54591 40.6907C0.544103 40.2767 0.878247 39.9396 1.29224 39.9378C1.70623 39.936 2.0433 40.2702 2.04511 40.6842C2.04692 41.0982 1.71277 41.4352 1.29878 41.437Z" fill="#2BB4A0"/>
<path d="M12.7748 45.2163C12.3608 45.2181 12.0237 44.884 12.0219 44.47C12.0201 44.056 12.3542 43.7189 12.7682 43.7171C13.1822 43.7153 13.5193 44.0495 13.5211 44.4635C13.5229 44.8775 13.1888 45.2145 12.7748 45.2163Z" fill="#2BB4A0"/>
<path d="M8.955 45.2329C8.54101 45.2347 8.20394 44.9006 8.20213 44.4866C8.20032 44.0726 8.53447 43.7355 8.94846 43.7337C9.36245 43.7319 9.69952 44.0661 9.70133 44.4801C9.70314 44.8941 9.36899 45.2311 8.955 45.2329Z" fill="#2BB4A0"/>
<path d="M5.13527 45.2495C4.72127 45.2513 4.3842 44.9172 4.3824 44.5032C4.38059 44.0892 4.71473 43.7521 5.12873 43.7503C5.54272 43.7485 5.87979 44.0827 5.8816 44.4967C5.8834 44.9107 5.54926 45.2477 5.13527 45.2495Z" fill="white"/>
<path d="M1.3155 45.2661C0.901512 45.2679 0.56444 44.9338 0.562633 44.5198C0.560827 44.1058 0.894971 43.7687 1.30896 43.7669C1.72296 43.7651 2.06003 44.0993 2.06183 44.5133C2.06364 44.9273 1.7295 45.2643 1.3155 45.2661Z" fill="#2BB4A0"/>
<path d="M12.7915 49.0454C12.3775 49.0472 12.0404 48.7131 12.0386 48.2991C12.0368 47.8851 12.3709 47.548 12.7849 47.5462C13.1989 47.5444 13.536 47.8786 13.5378 48.2926C13.5396 48.7066 13.2054 49.0436 12.7915 49.0454Z" fill="#2BB4A0"/>
<path d="M8.97172 49.062C8.55773 49.0638 8.22066 48.7297 8.21885 48.3157C8.21705 47.9017 8.55119 47.5646 8.96518 47.5628C9.37918 47.561 9.71625 47.8952 9.71805 48.3092C9.71986 48.7232 9.38572 49.0602 8.97172 49.062Z" fill="#2BB4A0"/>
<path d="M5.15196 49.0786C4.73797 49.0804 4.4009 48.7463 4.39909 48.3323C4.39728 47.9183 4.73143 47.5812 5.14542 47.5794C5.55941 47.5776 5.89648 47.9118 5.89829 48.3258C5.9001 48.7398 5.56595 49.0768 5.15196 49.0786Z" fill="#2BB4A0"/>
<path d="M1.3322 49.0952C0.918205 49.0971 0.581133 48.7629 0.579326 48.3489C0.57752 47.9349 0.911664 47.5979 1.32566 47.596C1.73965 47.5942 2.07672 47.9284 2.07853 48.3424C2.08033 48.7564 1.74619 49.0934 1.3322 49.0952Z" fill="#2BB4A0"/>
<path d="M12.8082 52.8743C12.3942 52.8761 12.0571 52.542 12.0553 52.128C12.0535 51.714 12.3876 51.3769 12.8016 51.3751C13.2156 51.3733 13.5527 51.7074 13.5545 52.1214C13.5563 52.5354 13.2222 52.8725 12.8082 52.8743Z" fill="#2BB4A0"/>
<path d="M8.98842 52.8911C8.57442 52.8929 8.23735 52.5588 8.23555 52.1448C8.23374 51.7308 8.56788 51.3937 8.98188 51.3919C9.39587 51.3901 9.73294 51.7243 9.73475 52.1383C9.73655 52.5523 9.40241 52.8893 8.98842 52.8911Z" fill="white"/>
<path d="M5.16868 52.9077C4.75469 52.9096 4.41762 52.5754 4.41581 52.1614C4.41401 51.7474 4.74815 51.4104 5.16214 51.4085C5.57614 51.4067 5.91321 51.7409 5.91501 52.1549C5.91682 52.5689 5.58268 52.9059 5.16868 52.9077Z" fill="#2BB4A0"/>
<path d="M12.8249 56.7032C12.4109 56.705 12.0738 56.3708 12.072 55.9568C12.0702 55.5428 12.4043 55.2058 12.8183 55.204C13.2323 55.2021 13.5694 55.5363 13.5712 55.9503C13.573 56.3643 13.2389 56.7013 12.8249 56.7032Z" fill="white"/>
<path d="M9.00514 56.72C8.59115 56.7218 8.25408 56.3877 8.25227 55.9737C8.25046 55.5597 8.58461 55.2226 8.9986 55.2208C9.41259 55.219 9.74966 55.5531 9.75147 55.9671C9.75328 56.3811 9.41913 56.7182 9.00514 56.72Z" fill="#2BB4A0"/>
<path d="M5.18538 56.7366C4.77138 56.7384 4.43431 56.4043 4.43251 55.9903C4.4307 55.5763 4.76484 55.2392 5.17884 55.2374C5.59283 55.2356 5.9299 55.5697 5.93171 55.9837C5.93351 56.3977 5.59937 56.7348 5.18538 56.7366Z" fill="#2BB4A0"/>
<path d="M12.8416 60.5323C12.4276 60.5341 12.0905 60.1999 12.0887 59.7859C12.0869 59.3719 12.4211 59.0349 12.8351 59.0331C13.249 59.0312 13.5861 59.3654 13.5879 59.7794C13.5897 60.1934 13.2556 60.5305 12.8416 60.5323Z" fill="#2BB4A0"/>
<path d="M9.02183 60.5491C8.60784 60.5509 8.27077 60.2168 8.26896 59.8028C8.26716 59.3888 8.6013 59.0517 9.01529 59.0499C9.42929 59.0481 9.76636 59.3822 9.76816 59.7962C9.76997 60.2102 9.43583 60.5473 9.02183 60.5491Z" fill="#2BB4A0"/>
<path d="M5.20207 60.5657C4.78808 60.5675 4.45101 60.2334 4.4492 59.8194C4.44739 59.4054 4.78154 59.0683 5.19553 59.0665C5.60952 59.0647 5.94659 59.3988 5.9484 59.8128C5.95021 60.2268 5.61606 60.5639 5.20207 60.5657Z" fill="#2BB4A0"/>
<path d="M12.8583 64.3614C12.4443 64.3632 12.1072 64.029 12.1054 63.615C12.1036 63.201 12.4378 62.864 12.8517 62.8622C13.2657 62.8604 13.6028 63.1945 13.6046 63.6085C13.6064 64.0225 13.2723 64.3596 12.8583 64.3614Z" fill="#2BB4A0"/>
<path d="M9.03856 64.378C8.62456 64.3798 8.28749 64.0456 8.28569 63.6316C8.28388 63.2176 8.61802 62.8806 9.03202 62.8788C9.44601 62.877 9.78308 63.2111 9.78489 63.6251C9.78669 64.0391 9.45255 64.3762 9.03856 64.378Z" fill="#2BB4A0"/>
<path d="M5.21879 64.3948C4.8048 64.3966 4.46773 64.0625 4.46592 63.6485C4.46412 63.2345 4.79826 62.8974 5.21225 62.8956C5.62625 62.8938 5.96332 63.2279 5.96512 63.6419C5.96693 64.0559 5.63279 64.393 5.21879 64.3948Z" fill="#2BB4A0"/>
</g>
</g>
<defs>
<clipPath id="clip0_34_587">
<rect y="0.5" width="64" height="64" rx="32" fill="white"/>
</clipPath>
<clipPath id="clip1_34_587">
<rect width="34.4615" height="23.3846" fill="white" transform="translate(84.9147 32.0154) rotate(-178.75)"/>
</clipPath>
<clipPath id="clip2_34_587">
<rect width="28.3031" height="28.3031" fill="white" transform="matrix(-0.999991 0.00436331 0.00436331 0.999991 13.5337 39.8845)"/>
</clipPath>
</defs>
</svg>
