<svg width="17" height="17" viewBox="0 0 17 17" fill="none" xmlns="http://www.w3.org/2000/svg">
<path d="M8.37729 4.55759C6.12977 4.55759 4.31692 6.30085 4.31692 8.46207C4.31692 10.6233 6.12977 12.3666 8.37729 12.3666C10.6248 12.3666 12.4377 10.6233 12.4377 8.46207C12.4377 6.30085 10.6248 4.55759 8.37729 4.55759ZM8.37729 11.0005C6.92489 11.0005 5.73752 9.86211 5.73752 8.46207C5.73752 7.06203 6.92135 5.92365 8.37729 5.92365C9.83323 5.92365 11.0171 7.06203 11.0171 8.46207C11.0171 9.86211 9.82969 11.0005 8.37729 11.0005ZM13.5508 4.39788C13.5508 4.90421 13.1268 5.30859 12.6038 5.30859C12.0772 5.30859 11.6567 4.90081 11.6567 4.39788C11.6567 3.89495 12.0807 3.48717 12.6038 3.48717C13.1268 3.48717 13.5508 3.89495 13.5508 4.39788ZM16.2401 5.32218C16.18 4.10224 15.8902 3.02163 14.9608 2.13131C14.035 1.24099 12.9112 0.962344 11.6426 0.901177C10.335 0.829816 6.41601 0.829816 5.1085 0.901177C3.84338 0.958946 2.71963 1.23759 1.79023 2.12791C0.86083 3.01823 0.574589 4.09884 0.51098 5.31878C0.43677 6.5761 0.43677 10.3447 0.51098 11.602C0.571055 12.8219 0.86083 13.9025 1.79023 14.7928C2.71963 15.6832 3.83985 15.9618 5.1085 16.023C6.41601 16.0943 10.335 16.0943 11.6426 16.023C12.9112 15.9652 14.035 15.6866 14.9608 14.7928C15.8867 13.9025 16.1765 12.8219 16.2401 11.602C16.3143 10.3447 16.3143 6.5795 16.2401 5.32218ZM14.5509 12.951C14.2753 13.6171 13.7416 14.1302 13.0455 14.3987C12.003 14.7962 9.52932 14.7045 8.37729 14.7045C7.22526 14.7045 4.74804 14.7928 3.7091 14.3987C3.01647 14.1336 2.48286 13.6205 2.20369 12.951C1.79023 11.9486 1.88564 9.56987 1.88564 8.46207C1.88564 7.35428 1.79376 4.97217 2.20369 3.97311C2.47932 3.30707 3.01293 2.79395 3.7091 2.5255C4.75158 2.12791 7.22526 2.21966 8.37729 2.21966C9.52932 2.21966 12.0065 2.13131 13.0455 2.5255C13.7381 2.79055 14.2717 3.30367 14.5509 3.97311C14.9644 4.97557 14.8689 7.35428 14.8689 8.46207C14.8689 9.56987 14.9644 11.952 14.5509 12.951Z" fill="white"/>
</svg>
