<svg width="64" height="65" viewBox="0 0 64 65" fill="none" xmlns="http://www.w3.org/2000/svg">
<g clip-path="url(#clip0_35_215)">
<rect y="0.5" width="64" height="64" rx="32" fill="#DAE6FF"/>
<g clip-path="url(#clip1_35_215)">
<path d="M11.8025 16.2947C11.9259 16.3767 12 16.515 12 16.6631C12 17.0161 11.6069 17.2269 11.3128 17.0316L8.70543 15.2994C8.0347 14.8538 7.16217 14.854 6.49157 15.2997L3.90388 17.0198C3.23295 17.4658 2.35993 17.4657 1.68912 17.0195L-0.895193 15.3007C-1.56617 14.8544 -2.43943 14.8544 -3.11041 15.3007L-5.69439 17.0193C-6.36537 17.4656 -7.23863 17.4656 -7.90961 17.0193L-10.4935 15.3007C-11.1645 14.8544 -12.0378 14.8544 -12.7088 15.3008L-15.3117 17.0322C-15.6061 17.228 -16 17.0169 -16 16.6634C-16 16.5151 -15.9258 16.3767 -15.8024 16.2945L-12.7088 14.2368C-12.0378 13.7904 -11.1645 13.7904 -10.4935 14.2367L-7.90961 15.9553C-7.23863 16.4016 -6.36537 16.4016 -5.69439 15.9553L-3.11041 14.2367C-2.43943 13.7904 -1.56617 13.7904 -0.895193 14.2367L1.68912 15.9555C2.35993 16.4017 3.23295 16.4018 3.90388 15.9558L6.49121 14.236C7.162 13.7901 8.0348 13.7901 8.70557 14.236L11.8025 16.2947Z" fill="#F0F5FF"/>
<path d="M11.8025 19.9808C11.9259 20.0628 12 20.201 12 20.3492C12 20.7022 11.6069 20.913 11.3128 20.7176L8.70543 18.9855C8.0347 18.5399 7.16217 18.54 6.49157 18.9858L3.90388 20.7059C3.23295 21.1519 2.35993 21.1517 1.68912 20.7056L-0.895193 18.9867C-1.56617 18.5404 -2.43943 18.5404 -3.11041 18.9867L-5.69439 20.7054C-6.36537 21.1516 -7.23863 21.1516 -7.90961 20.7054L-10.4935 18.9868C-11.1645 18.5405 -12.0378 18.5405 -12.7088 18.9868L-15.3117 20.7182C-15.6061 20.914 -16 20.703 -16 20.3494C-16 20.2011 -15.9258 20.0627 -15.8024 19.9806L-12.7088 17.9228C-12.0378 17.4765 -11.1645 17.4765 -10.4935 17.9228L-7.90961 19.6414C-7.23863 20.0876 -6.36537 20.0876 -5.69439 19.6414L-3.11041 17.9227C-2.43943 17.4764 -1.56617 17.4764 -0.895193 17.9227L1.68912 19.6416C2.35993 20.0877 3.23295 20.0879 3.90388 19.6419L6.49121 17.922C7.162 17.4761 8.0348 17.4761 8.70557 17.922L11.8025 19.9808Z" fill="#F0F5FF"/>
<path d="M11.8025 27.3528C11.9259 27.4348 12 27.5731 12 27.7212C12 28.0742 11.6069 28.285 11.3128 28.0897L8.70543 26.3575C8.0347 25.912 7.16217 25.9121 6.49157 26.3578L3.90388 28.0779C3.23295 28.5239 2.35993 28.5238 1.68912 28.0776L-0.895193 26.3588C-1.56617 25.9125 -2.43943 25.9125 -3.11041 26.3588L-5.69439 28.0774C-6.36537 28.5237 -7.23863 28.5237 -7.90961 28.0774L-10.4935 26.3588C-11.1645 25.9125 -12.0378 25.9126 -12.7088 26.3589L-15.3117 28.0903C-15.6061 28.2861 -16 28.075 -16 27.7215C-16 27.5732 -15.9258 27.4348 -15.8024 27.3526L-12.7088 25.2949C-12.0378 24.8486 -11.1645 24.8485 -10.4935 25.2948L-7.90961 27.0134C-7.23863 27.4597 -6.36537 27.4597 -5.69439 27.0134L-3.11041 25.2948C-2.43943 24.8485 -1.56617 24.8485 -0.895194 25.2948L1.68912 27.0136C2.35993 27.4598 3.23295 27.4599 3.90388 27.0139L6.49121 25.2941C7.162 24.8482 8.0348 24.8482 8.70557 25.2941L11.8025 27.3528Z" fill="#F0F5FF"/>
<path d="M11.8025 23.6668C11.9259 23.7488 12 23.8871 12 24.0352C12 24.3882 11.6069 24.599 11.3128 24.4037L8.70543 22.6715C8.0347 22.2259 7.16217 22.226 6.49157 22.6718L3.90388 24.3919C3.23295 24.8379 2.35993 24.8378 1.68912 24.3916L-0.895193 22.6728C-1.56617 22.2265 -2.43943 22.2265 -3.11041 22.6728L-5.69439 24.3914C-6.36537 24.8377 -7.23863 24.8377 -7.90961 24.3914L-10.4935 22.6728C-11.1645 22.2265 -12.0378 22.2265 -12.7088 22.6728L-15.3117 24.4042C-15.6061 24.6001 -16 24.389 -16 24.0354C-16 23.8872 -15.9258 23.7487 -15.8024 23.6666L-12.7088 21.6088C-12.0378 21.1625 -11.1645 21.1625 -10.4935 21.6088L-7.90961 23.3274C-7.23863 23.7737 -6.36537 23.7737 -5.69439 23.3274L-3.11041 21.6088C-2.43943 21.1625 -1.56617 21.1625 -0.895193 21.6088L1.68912 23.3276C2.35993 23.7738 3.23295 23.7739 3.90388 23.3279L6.49121 21.608C7.16199 21.1622 8.0348 21.1622 8.70557 21.6081L11.8025 23.6668Z" fill="#F0F5FF"/>
<path d="M11.8025 31.0386C11.9259 31.1206 12 31.2589 12 31.407C12 31.76 11.6069 31.9708 11.3128 31.7755L8.70543 30.0433C8.0347 29.5977 7.16217 29.5979 6.49157 30.0436L3.90388 31.7637C3.23295 32.2097 2.35993 32.2096 1.68912 31.7634L-0.895192 30.0446C-1.56617 29.5983 -2.43943 29.5983 -3.11041 30.0446L-5.69439 31.7632C-6.36537 32.2095 -7.23863 32.2095 -7.90961 31.7632L-10.4935 30.0446C-11.1645 29.5983 -12.0378 29.5983 -12.7088 30.0447L-15.3117 31.7761C-15.6061 31.9719 -16 31.7608 -16 31.4073C-16 31.259 -15.9258 31.1206 -15.8024 31.0384L-12.7088 28.9807C-12.0378 28.5343 -11.1645 28.5343 -10.4935 28.9806L-7.90961 30.6992C-7.23863 31.1455 -6.36537 31.1455 -5.69439 30.6992L-3.11041 28.9806C-2.43943 28.5343 -1.56617 28.5343 -0.895193 28.9806L1.68912 30.6994C2.35993 31.1456 3.23295 31.1457 3.90388 30.6997L6.49121 28.9799C7.16199 28.534 8.0348 28.534 8.70557 28.9799L11.8025 31.0386Z" fill="#F0F5FF"/>
</g>
<path d="M37.9536 52.4976C37.9536 52.7609 37.7402 52.9744 37.4768 52.9744C37.2135 52.9744 37 52.7609 37 52.4976C37 52.2342 37.2135 52.0208 37.4768 52.0208C37.7402 52.0208 37.9536 52.2342 37.9536 52.4976Z" fill="#004FC5"/>
<path d="M37.9536 54.9268C37.9536 55.1901 37.7402 55.4036 37.4768 55.4036C37.2135 55.4036 37 55.1901 37 54.9268C37 54.6634 37.2135 54.45 37.4768 54.45C37.7402 54.45 37.9536 54.6634 37.9536 54.9268Z" fill="#004FC5"/>
<path d="M37.9536 57.356C37.9536 57.6193 37.7402 57.8328 37.4768 57.8328C37.2135 57.8328 37 57.6193 37 57.356C37 57.0926 37.2135 56.8792 37.4768 56.8792C37.7402 56.8792 37.9536 57.0926 37.9536 57.356Z" fill="#004FC5"/>
<path d="M37.9536 59.7854C37.9536 60.0488 37.7402 60.2622 37.4768 60.2622C37.2135 60.2622 37 60.0488 37 59.7854C37 59.5221 37.2135 59.3086 37.4768 59.3086C37.7402 59.3086 37.9536 59.5221 37.9536 59.7854Z" fill="#004FC5"/>
<path d="M37.9536 62.2146C37.9536 62.478 37.7402 62.6914 37.4768 62.6914C37.2135 62.6914 37 62.478 37 62.2146C37 61.9513 37.2135 61.7378 37.4768 61.7378C37.7402 61.7378 37.9536 61.9513 37.9536 62.2146Z" fill="#004FC5"/>
<path d="M37.9536 64.6438C37.9536 64.9072 37.7402 65.1206 37.4768 65.1206C37.2135 65.1206 37 64.9072 37 64.6438C37 64.3805 37.2135 64.167 37.4768 64.167C37.7402 64.167 37.9536 64.3805 37.9536 64.6438Z" fill="#004FC5"/>
<path d="M40.3889 52.4976C40.3889 52.7609 40.1754 52.9744 39.912 52.9744C39.6487 52.9744 39.4352 52.7609 39.4352 52.4976C39.4352 52.2342 39.6487 52.0208 39.912 52.0208C40.1754 52.0208 40.3889 52.2342 40.3889 52.4976Z" fill="#004FC5"/>
<path d="M40.3889 54.9268C40.3889 55.1901 40.1754 55.4036 39.912 55.4036C39.6487 55.4036 39.4352 55.1901 39.4352 54.9268C39.4352 54.6634 39.6487 54.45 39.912 54.45C40.1754 54.45 40.3889 54.6634 40.3889 54.9268Z" fill="#004FC5"/>
<path d="M40.3889 57.356C40.3889 57.6193 40.1754 57.8328 39.912 57.8328C39.6487 57.8328 39.4352 57.6193 39.4352 57.356C39.4352 57.0926 39.6487 56.8792 39.912 56.8792C40.1754 56.8792 40.3889 57.0926 40.3889 57.356Z" fill="#004FC5"/>
<path d="M40.3889 59.7854C40.3889 60.0488 40.1754 60.2622 39.912 60.2622C39.6487 60.2622 39.4352 60.0488 39.4352 59.7854C39.4352 59.5221 39.6487 59.3086 39.912 59.3086C40.1754 59.3086 40.3889 59.5221 40.3889 59.7854Z" fill="#004FC5"/>
<path d="M40.3889 62.2146C40.3889 62.478 40.1754 62.6914 39.912 62.6914C39.6487 62.6914 39.4352 62.478 39.4352 62.2146C39.4352 61.9513 39.6487 61.7378 39.912 61.7378C40.1754 61.7378 40.3889 61.9513 40.3889 62.2146Z" fill="#004FC5"/>
<path d="M40.3889 64.6438C40.3889 64.9072 40.1754 65.1206 39.912 65.1206C39.6487 65.1206 39.4352 64.9072 39.4352 64.6438C39.4352 64.3805 39.6487 64.167 39.912 64.167C40.1754 64.167 40.3889 64.3805 40.3889 64.6438Z" fill="#004FC5"/>
<path d="M42.8241 52.4976C42.8241 52.7609 42.6106 52.9744 42.3473 52.9744C42.0839 52.9744 41.8704 52.7609 41.8704 52.4976C41.8704 52.2342 42.0839 52.0208 42.3473 52.0208C42.6106 52.0208 42.8241 52.2342 42.8241 52.4976Z" fill="#004FC5"/>
<path d="M42.8241 54.9268C42.8241 55.1901 42.6106 55.4036 42.3473 55.4036C42.0839 55.4036 41.8704 55.1901 41.8704 54.9268C41.8704 54.6634 42.0839 54.45 42.3473 54.45C42.6106 54.45 42.8241 54.6634 42.8241 54.9268Z" fill="#004FC5"/>
<path d="M42.8241 57.356C42.8241 57.6193 42.6106 57.8328 42.3473 57.8328C42.0839 57.8328 41.8704 57.6193 41.8704 57.356C41.8704 57.0926 42.0839 56.8792 42.3473 56.8792C42.6106 56.8792 42.8241 57.0926 42.8241 57.356Z" fill="#004FC5"/>
<path d="M42.8241 59.7854C42.8241 60.0488 42.6106 60.2622 42.3473 60.2622C42.0839 60.2622 41.8704 60.0488 41.8704 59.7854C41.8704 59.5221 42.0839 59.3086 42.3473 59.3086C42.6106 59.3086 42.8241 59.5221 42.8241 59.7854Z" fill="#004FC5"/>
<path d="M42.8241 62.2146C42.8241 62.478 42.6106 62.6914 42.3473 62.6914C42.0839 62.6914 41.8704 62.478 41.8704 62.2146C41.8704 61.9513 42.0839 61.7378 42.3473 61.7378C42.6106 61.7378 42.8241 61.9513 42.8241 62.2146Z" fill="#004FC5"/>
<path d="M42.8241 64.6438C42.8241 64.9072 42.6106 65.1206 42.3473 65.1206C42.0839 65.1206 41.8704 64.9072 41.8704 64.6438C41.8704 64.3805 42.0839 64.167 42.3473 64.167C42.6106 64.167 42.8241 64.3805 42.8241 64.6438Z" fill="#004FC5"/>
<path d="M45.2593 52.4976C45.2593 52.7609 45.0458 52.9744 44.7825 52.9744C44.5191 52.9744 44.3057 52.7609 44.3057 52.4976C44.3057 52.2342 44.5191 52.0208 44.7825 52.0208C45.0458 52.0208 45.2593 52.2342 45.2593 52.4976Z" fill="#004FC5"/>
<path d="M45.2593 54.9268C45.2593 55.1901 45.0458 55.4036 44.7825 55.4036C44.5191 55.4036 44.3057 55.1901 44.3057 54.9268C44.3057 54.6634 44.5191 54.45 44.7825 54.45C45.0458 54.45 45.2593 54.6634 45.2593 54.9268Z" fill="#004FC5"/>
<path d="M45.2593 57.356C45.2593 57.6193 45.0458 57.8328 44.7825 57.8328C44.5191 57.8328 44.3057 57.6193 44.3057 57.356C44.3057 57.0926 44.5191 56.8792 44.7825 56.8792C45.0458 56.8792 45.2593 57.0926 45.2593 57.356Z" fill="#004FC5"/>
<path d="M47.6943 52.4976C47.6943 52.7609 47.4809 52.9744 47.2175 52.9744C46.9542 52.9744 46.7407 52.7609 46.7407 52.4976C46.7407 52.2342 46.9542 52.0208 47.2175 52.0208C47.4809 52.0208 47.6943 52.2342 47.6943 52.4976Z" fill="#004FC5"/>
<path d="M47.6943 54.9268C47.6943 55.1901 47.4809 55.4036 47.2175 55.4036C46.9542 55.4036 46.7407 55.1901 46.7407 54.9268C46.7407 54.6634 46.9542 54.45 47.2175 54.45C47.4809 54.45 47.6943 54.6634 47.6943 54.9268Z" fill="#004FC5"/>
<path d="M47.6943 57.356C47.6943 57.6193 47.4809 57.8328 47.2175 57.8328C46.9542 57.8328 46.7407 57.6193 46.7407 57.356C46.7407 57.0926 46.9542 56.8792 47.2175 56.8792C47.4809 56.8792 47.6943 57.0926 47.6943 57.356Z" fill="#004FC5"/>
<path d="M50.1296 52.4976C50.1296 52.7609 49.9161 52.9744 49.6527 52.9744C49.3894 52.9744 49.1759 52.7609 49.1759 52.4976C49.1759 52.2342 49.3894 52.0208 49.6527 52.0208C49.9161 52.0208 50.1296 52.2342 50.1296 52.4976Z" fill="#004FC5"/>
<path d="M50.1296 54.9268C50.1296 55.1901 49.9161 55.4036 49.6527 55.4036C49.3894 55.4036 49.1759 55.1901 49.1759 54.9268C49.1759 54.6634 49.3894 54.45 49.6527 54.45C49.9161 54.45 50.1296 54.6634 50.1296 54.9268Z" fill="#004FC5"/>
<path d="M50.1296 57.356C50.1296 57.6193 49.9161 57.8328 49.6527 57.8328C49.3894 57.8328 49.1759 57.6193 49.1759 57.356C49.1759 57.0926 49.3894 56.8792 49.6527 56.8792C49.9161 56.8792 50.1296 57.0926 50.1296 57.356Z" fill="#004FC5"/>
<path d="M52.5648 52.4976C52.5648 52.7609 52.3513 52.9744 52.088 52.9744C51.8246 52.9744 51.6111 52.7609 51.6111 52.4976C51.6111 52.2342 51.8246 52.0208 52.088 52.0208C52.3513 52.0208 52.5648 52.2342 52.5648 52.4976Z" fill="#004FC5"/>
<path d="M52.5648 54.9268C52.5648 55.1901 52.3513 55.4036 52.088 55.4036C51.8246 55.4036 51.6111 55.1901 51.6111 54.9268C51.6111 54.6634 51.8246 54.45 52.088 54.45C52.3513 54.45 52.5648 54.6634 52.5648 54.9268Z" fill="#004FC5"/>
<path d="M52.5648 57.356C52.5648 57.6193 52.3513 57.8328 52.088 57.8328C51.8246 57.8328 51.6111 57.6193 51.6111 57.356C51.6111 57.0926 51.8246 56.8792 52.088 56.8792C52.3513 56.8792 52.5648 57.0926 52.5648 57.356Z" fill="#004FC5"/>
<path d="M55 52.4976C55 52.7609 54.7865 52.9744 54.5232 52.9744C54.2598 52.9744 54.0464 52.7609 54.0464 52.4976C54.0464 52.2342 54.2598 52.0208 54.5232 52.0208C54.7865 52.0208 55 52.2342 55 52.4976Z" fill="#004FC5"/>
<path d="M55 54.9268C55 55.1901 54.7865 55.4036 54.5232 55.4036C54.2598 55.4036 54.0464 55.1901 54.0464 54.9268C54.0464 54.6634 54.2598 54.45 54.5232 54.45C54.7865 54.45 55 54.6634 55 54.9268Z" fill="#004FC5"/>
<path d="M55 57.356C55 57.6193 54.7865 57.8328 54.5232 57.8328C54.2598 57.8328 54.0464 57.6193 54.0464 57.356C54.0464 57.0926 54.2598 56.8792 54.5232 56.8792C54.7865 56.8792 55 57.0926 55 57.356Z" fill="#004FC5"/>
<g clip-path="url(#clip2_35_215)">
<path d="M40.8875 30.0875L41 29.9375V24.5925L32 28.1925L23 24.5925V29.9373L23.1125 30.0873C23.2053 30.2114 25.4658 33.1248 32 33.1248C38.5342 33.1248 40.7946 30.2112 40.8875 30.0875Z" fill="#004FC5"/>
<path d="M49.1562 48.3125H18.7812C17.9607 48.3125 17.1738 47.9866 16.5936 47.4064C16.0134 46.8262 15.6875 46.0393 15.6875 45.2188C15.6875 44.3982 16.0134 43.6113 16.5936 43.0311C17.1738 42.4509 17.9607 42.125 18.7812 42.125H49.1562C49.38 42.125 49.5946 42.0361 49.7529 41.8779C49.9111 41.7196 50 41.505 50 41.2812C50 41.0575 49.9111 40.8429 49.7529 40.6846C49.5946 40.5264 49.38 40.4375 49.1562 40.4375H18.7812C17.5132 40.4375 16.2971 40.9412 15.4004 41.8379C14.5037 42.7346 14 43.9507 14 45.2188C14 46.4868 14.5037 47.7029 15.4004 48.5996C16.2971 49.4963 17.5132 50 18.7812 50H49.1562C49.38 50 49.5946 49.9111 49.7529 49.7529C49.9111 49.5946 50 49.38 50 49.1562C50 48.9325 49.9111 48.7179 49.7529 48.5596C49.5946 48.4014 49.38 48.3125 49.1562 48.3125Z" fill="#004FC5"/>
<path d="M16.8125 45.2188C16.8125 45.4773 16.8634 45.7333 16.9624 45.9722C17.0613 46.211 17.2063 46.4281 17.3891 46.6109C17.5719 46.7937 17.789 46.9387 18.0278 47.0376C18.2667 47.1366 18.5227 47.1875 18.7812 47.1875H49.1562V43.25H18.7812C18.2591 43.25 17.7583 43.4574 17.3891 43.8266C17.0199 44.1958 16.8125 44.6966 16.8125 45.2188Z" fill="white"/>
<path d="M43.8125 28.9062C44.5892 28.9062 45.2188 28.2767 45.2188 27.5C45.2188 26.7233 44.5892 26.0938 43.8125 26.0938C43.0358 26.0938 42.4062 26.7233 42.4062 27.5C42.4062 28.2767 43.0358 28.9062 43.8125 28.9062Z" fill="#004FC5"/>
<path d="M41.3684 23.2335L31.7997 19.5885L32.2002 18.5367L42.9102 22.617L47.5767 20.7501L32 14.5193L16.4232 20.7501L32 26.9809L41.3684 23.2335Z" fill="#004FC5"/>
<path d="M43.25 23.9507V25.037C43.6195 24.9464 44.0055 24.9464 44.375 25.037V23.1751L42.9103 22.6172L41.3683 23.234L43.25 23.9507Z" fill="#004FC5"/>
<path d="M19.0625 35.375C19.0625 35.6734 19.181 35.9595 19.392 36.1705C19.603 36.3815 19.8891 36.5 20.1875 36.5H40.797L41.172 34.25H20.1875C19.8891 34.25 19.603 34.3685 19.392 34.5795C19.181 34.7905 19.0625 35.0766 19.0625 35.375Z" fill="white"/>
<path d="M45.5 35.3752L44.5871 29.8975C44.0861 30.0761 43.5389 30.0761 43.0379 29.8975L42.125 35.3752H45.5Z" fill="#004FC5"/>
<path d="M20.1875 39.3125H44.6562C44.88 39.3125 45.0946 39.2236 45.2529 39.0654C45.4111 38.9071 45.5 38.6925 45.5 38.4688C45.5 38.245 45.4111 38.0304 45.2529 37.8721C45.0946 37.7139 44.88 37.625 44.6562 37.625H20.1875C19.5908 37.625 19.0185 37.3879 18.5965 36.966C18.1746 36.544 17.9375 35.9717 17.9375 35.375C17.9375 34.7783 18.1746 34.206 18.5965 33.784C19.0185 33.3621 19.5908 33.125 20.1875 33.125H25.6325C24.6168 32.7241 23.6766 32.1534 22.852 31.4375H20.1875C19.1432 31.4375 18.1417 31.8523 17.4033 32.5908C16.6648 33.3292 16.25 34.3307 16.25 35.375C16.25 36.4193 16.6648 37.4208 17.4033 38.1592C18.1417 38.8977 19.1432 39.3125 20.1875 39.3125Z" fill="#004FC5"/>
<path d="M41.6408 31.4375H41.1484C40.3239 32.1535 39.3836 32.7241 38.3678 33.125H41.3596L41.6408 31.4375Z" fill="#004FC5"/>
<path d="M19.9711 15.9422C20.5075 15.9422 20.9423 15.5075 20.9423 14.9711C20.9423 14.4348 20.5075 14 19.9711 14C19.4348 14 19 14.4348 19 14.9711C19 15.5075 19.4348 15.9422 19.9711 15.9422Z" fill="#004FC5"/>
</g>
<path d="M52.5 35C53.3284 35 54 34.3284 54 33.5C54 32.6716 53.3284 32 52.5 32C51.6716 32 51 32.6716 51 33.5C51 34.3284 51.6716 35 52.5 35Z" fill="#004FC5"/>
</g>
<defs>
<clipPath id="clip0_35_215">
<rect y="0.5" width="64" height="64" rx="32" fill="white"/>
</clipPath>
<clipPath id="clip1_35_215">
<rect width="28" height="19" fill="white" transform="translate(-16 13.5)"/>
</clipPath>
<clipPath id="clip2_35_215">
<rect width="36" height="36" fill="white" transform="translate(14 14)"/>
</clipPath>
</defs>
</svg>
