<svg width="64" height="65" viewBox="0 0 64 65" fill="none" xmlns="http://www.w3.org/2000/svg">
<g clip-path="url(#clip0_168_75)">
<rect y="0.5" width="64" height="64" rx="32" fill="#DAE6FF"/>
<g clip-path="url(#clip1_168_75)">
<path d="M44.6255 64.753C44.4759 64.6488 44.3884 64.4767 44.3924 64.2944C44.4019 63.8601 44.8913 63.6112 45.2478 63.8595L48.6614 66.2361C49.3222 66.6962 50.1945 66.7151 50.8747 66.2841L54.6233 63.9086C55.3038 63.4774 56.1766 63.4965 56.8375 63.9572L60.4749 66.4926C61.136 66.9535 62.009 66.9725 62.6896 66.541L66.4337 64.1668C67.1143 63.7353 67.9873 63.7544 68.6484 64.2152L72.2854 66.7503C72.9465 67.2111 73.8196 67.2302 74.5002 66.7986L78.0087 64.5736C78.3762 64.3406 78.8552 64.6108 78.8457 65.0459C78.8418 65.2284 78.7468 65.3967 78.5927 65.4944L74.4716 68.1078C73.7911 68.5394 72.918 68.5204 72.2569 68.0595L68.6199 65.5244C67.9588 65.0636 67.0857 65.0445 66.4052 65.4761L62.661 67.8502C61.9804 68.2817 61.1074 68.2627 60.4463 67.8019L56.8089 65.2665C56.148 64.8058 55.2752 64.7866 54.5947 65.2178L50.8465 67.5931C50.1662 68.0243 49.2936 68.0052 48.6327 67.5448L44.6255 64.753Z" fill="#F0F5FF"/>
<path d="M44.7244 60.2175C44.5749 60.1133 44.4874 59.9412 44.4914 59.7589C44.5008 59.3245 44.9902 59.0757 45.3468 59.324L48.7603 61.7006C49.4212 62.1607 50.2935 62.1796 50.9737 61.7486L54.7222 59.3731C55.4027 58.9418 56.2755 58.961 56.9365 59.4217L60.5738 61.9571C61.2349 62.4179 62.108 62.437 62.7885 62.0054L66.5327 59.6313C67.2133 59.1998 68.0863 59.2188 68.7474 59.6796L72.3844 62.2148C73.0455 62.6756 73.9186 62.6946 74.5992 62.2631L78.1077 60.0381C78.4752 59.805 78.9542 60.0753 78.9447 60.5104C78.9407 60.6928 78.8457 60.8612 78.6916 60.9589L74.5706 63.5723C73.89 64.0039 73.0169 63.9848 72.3558 63.524L68.7188 60.9889C68.0577 60.5281 67.1847 60.509 66.5041 60.9405L62.76 63.3147C62.0794 63.7462 61.2064 63.7272 60.5453 63.2664L56.9079 60.7309C56.247 60.2702 55.3742 60.2511 54.6937 60.6823L50.9455 63.0576C50.2651 63.4887 49.3925 63.4697 48.7316 63.0093L44.7244 60.2175Z" fill="#F0F5FF"/>
<path d="M44.9224 51.1465C44.7728 51.0423 44.6853 50.8701 44.6893 50.6879C44.6988 50.2535 45.1882 50.0047 45.5447 50.2529L48.9583 52.6296C49.6191 53.0897 50.4914 53.1086 51.1716 52.6776L54.9202 50.302C55.6007 49.8708 56.4735 49.89 57.1344 50.3507L60.7718 52.8861C61.4329 53.3469 62.3059 53.3659 62.9865 52.9344L66.7306 50.5603C67.4112 50.1287 68.2842 50.1478 68.9453 50.6086L72.5823 53.1437C73.2434 53.6046 74.1165 53.6236 74.7971 53.192L78.3056 50.9671C78.6731 50.734 79.1521 51.0043 79.1426 51.4394C79.1387 51.6218 79.0437 51.7901 78.8896 51.8879L74.7685 54.5012C74.088 54.9328 73.2149 54.9138 72.5538 54.453L68.9168 51.9178C68.2557 51.457 67.3826 51.438 66.7021 51.8695L62.9579 54.2436C62.2773 54.6752 61.4043 54.6561 60.7432 54.1953L57.1058 51.6599C56.4449 51.1992 55.5721 51.18 54.8916 51.6113L51.1434 53.9865C50.4631 54.4177 49.5905 54.3986 48.9296 53.9382L44.9224 51.1465Z" fill="#F0F5FF"/>
<path d="M44.8234 55.682C44.6738 55.5778 44.5863 55.4056 44.5903 55.2234C44.5998 54.789 45.0892 54.5402 45.4458 54.7884L48.8593 57.1651C49.5202 57.6252 50.3925 57.6441 51.0726 57.2131L54.8212 54.8376C55.5017 54.4063 56.3745 54.4255 57.0354 54.8862L60.6728 57.4216C61.3339 57.8824 62.2069 57.9015 62.8875 57.4699L66.6317 55.0958C67.3122 54.6643 68.1853 54.6833 68.8464 55.1441L72.4834 57.6793C73.1445 58.1401 74.0176 58.1591 74.6981 57.7275L78.2067 55.5026C78.5742 55.2695 79.0532 55.5398 79.0437 55.9749C79.0397 56.1573 78.9447 56.3257 78.7906 56.4234L74.6696 59.0368C73.989 59.4684 73.1159 59.4493 72.4548 58.9885L68.8178 56.4533C68.1567 55.9925 67.2837 55.9735 66.6031 56.405L62.8589 58.7792C62.1784 59.2107 61.3053 59.1916 60.6442 58.7308L57.0069 56.1954C56.3459 55.7347 55.4731 55.7156 54.7926 56.1468L51.0444 58.5221C50.3641 58.9532 49.4915 58.9342 48.8306 58.4737L44.8234 55.682Z" fill="#F0F5FF"/>
<path d="M45.0213 46.6112C44.8717 46.507 44.7843 46.3348 44.7882 46.1526C44.7977 45.7182 45.2871 45.4694 45.6437 45.7176L49.0572 48.0943C49.7181 48.5544 50.5904 48.5733 51.2705 48.1423L55.0191 45.7668C55.6996 45.3355 56.5724 45.3547 57.2333 45.8154L60.8707 48.3508C61.5318 48.8116 62.4048 48.8307 63.0854 48.3991L66.8296 46.025C67.5101 45.5935 68.3832 45.6125 69.0443 46.0733L72.6813 48.6085C73.3424 49.0693 74.2155 49.0883 74.896 48.6567L78.4046 46.4318C78.7721 46.1987 79.2511 46.469 79.2416 46.9041C79.2376 47.0865 79.1426 47.2549 78.9885 47.3526L74.8675 49.966C74.1869 50.3976 73.3138 50.3785 72.6527 49.9177L69.0157 47.3825C68.3546 46.9217 67.4816 46.9027 66.801 47.3342L63.0568 49.7084C62.3763 50.1399 61.5032 50.1208 60.8421 49.66L57.2048 47.1246C56.5439 46.6639 55.671 46.6448 54.9905 47.076L51.2423 49.4513C50.562 49.8824 49.6894 49.8634 49.0285 49.4029L45.0213 46.6112Z" fill="#F0F5FF"/>
</g>
<g clip-path="url(#clip2_168_75)">
<path d="M17.9178 16.091C17.7916 15.6967 18.0089 15.2748 18.4032 15.1486C18.7975 15.0224 19.2195 15.2397 19.3457 15.634C19.4719 16.0283 19.2546 16.4502 18.8603 16.5764C18.466 16.7026 18.0441 16.4853 17.9178 16.091Z" fill="#004FC5"/>
<path d="M16.7533 12.4531C16.6271 12.0588 16.8444 11.6369 17.2387 11.5106C17.633 11.3844 18.055 11.6017 18.1812 11.996C18.3074 12.3903 18.0901 12.8123 17.6958 12.9385C17.3015 13.0647 16.8795 12.8474 16.7533 12.4531Z" fill="#004FC5"/>
<path d="M15.5888 8.81516C15.4626 8.42087 15.6799 7.99892 16.0742 7.8727C16.4685 7.74649 16.8904 7.96381 17.0166 8.3581C17.1429 8.75239 16.9255 9.17434 16.5313 9.30055C16.137 9.42676 15.715 9.20944 15.5888 8.81516Z" fill="#004FC5"/>
<path d="M14.4243 5.17722C14.2981 4.78293 14.5154 4.36098 14.9097 4.23476C15.304 4.10855 15.7259 4.32587 15.8521 4.72016C15.9783 5.11445 15.761 5.5364 15.3667 5.66261C14.9724 5.78882 14.5505 5.57151 14.4243 5.17722Z" fill="#004FC5"/>
<path d="M13.2598 1.53928C13.1335 1.14499 13.3509 0.723038 13.7452 0.596825C14.1394 0.470612 14.5614 0.68793 14.6876 1.08222C14.8138 1.47651 14.5965 1.89846 14.2022 2.02467C13.8079 2.15088 13.386 1.93356 13.2598 1.53928Z" fill="#004FC5"/>
<path d="M14.271 17.2584C14.1448 16.8641 14.3621 16.4422 14.7564 16.3159C15.1507 16.1897 15.5726 16.407 15.6988 16.8013C15.8251 17.1956 15.6077 17.6176 15.2134 17.7438C14.8192 17.87 14.3972 17.6527 14.271 17.2584Z" fill="#004FC5"/>
<path d="M13.1065 13.6205C12.9803 13.2262 13.1976 12.8042 13.5919 12.678C13.9862 12.5518 14.4081 12.7691 14.5343 13.1634C14.6605 13.5577 14.4432 13.9796 14.0489 14.1058C13.6546 14.2321 13.2327 14.0147 13.1065 13.6205Z" fill="#004FC5"/>
<path d="M11.942 9.98251C11.8157 9.58823 12.0331 9.16628 12.4273 9.04006C12.8216 8.91385 13.2436 9.13117 13.3698 9.52546C13.496 9.91975 13.2787 10.3417 12.8844 10.4679C12.4901 10.5941 12.0682 10.3768 11.942 9.98251Z" fill="#004FC5"/>
<path d="M10.7774 6.34457C10.6512 5.95029 10.8685 5.52834 11.2628 5.40212C11.6571 5.27591 12.0791 5.49323 12.2053 5.88752C12.3315 6.28181 12.1142 6.70376 11.7199 6.82997C11.3256 6.95618 10.9036 6.73886 10.7774 6.34457Z" fill="#004FC5"/>
<path d="M9.61291 2.70663C9.4867 2.31235 9.70402 1.8904 10.0983 1.76418C10.4926 1.63797 10.9145 1.85529 11.0408 2.24958C11.167 2.64387 10.9497 3.06582 10.5554 3.19203C10.1611 3.31824 9.73913 3.10092 9.61291 2.70663Z" fill="#004FC5"/>
<path d="M10.6241 18.4258C10.4979 18.0315 10.7152 17.6095 11.1095 17.4833C11.5038 17.3571 11.9258 17.5744 12.052 17.9687C12.1782 18.363 11.9609 18.7849 11.5666 18.9111C11.1723 19.0374 10.7504 18.82 10.6241 18.4258Z" fill="#004FC5"/>
<path d="M9.45962 14.7878C9.33341 14.3935 9.55073 13.9716 9.94502 13.8454C10.3393 13.7191 10.7613 13.9365 10.8875 14.3308C11.0137 14.725 10.7964 15.147 10.4021 15.2732C10.0078 15.3994 9.58584 15.1821 9.45962 14.7878Z" fill="#004FC5"/>
<path d="M8.2951 11.1499C8.16889 10.7556 8.38621 10.3336 8.7805 10.2074C9.17479 10.0812 9.59674 10.2985 9.72295 10.6928C9.84916 11.0871 9.63184 11.5091 9.23755 11.6353C8.84327 11.7615 8.42132 11.5442 8.2951 11.1499Z" fill="#004FC5"/>
<path d="M7.13058 7.51193C7.00437 7.11764 7.22169 6.69569 7.61598 6.56948C8.01027 6.44327 8.43222 6.66059 8.55843 7.05488C8.68464 7.44917 8.46732 7.87111 8.07303 7.99733C7.67874 8.12354 7.2568 7.90622 7.13058 7.51193Z" fill="#004FC5"/>
<path d="M5.96606 3.87399C5.83985 3.4797 6.05717 3.05775 6.45146 2.93154C6.84575 2.80533 7.26769 3.02265 7.39391 3.41694C7.52012 3.81122 7.3028 4.23318 6.90851 4.35939C6.51422 4.4856 6.09227 4.26828 5.96606 3.87399Z" fill="#004FC5"/>
<path d="M4.80157 0.236053C4.67536 -0.158236 4.89268 -0.580184 5.28697 -0.706397C5.68126 -0.832609 6.10321 -0.615293 6.22942 -0.221004C6.35563 0.173285 6.13831 0.595236 5.74402 0.721448C5.34973 0.847661 4.92779 0.630342 4.80157 0.236053Z" fill="#004FC5"/>
<path d="M6.97729 19.5931C6.85108 19.1988 7.0684 18.7769 7.46269 18.6507C7.85698 18.5244 8.27893 18.7418 8.40514 19.1361C8.53135 19.5303 8.31403 19.9523 7.91974 20.0785C7.52546 20.2047 7.10351 19.9874 6.97729 19.5931Z" fill="#004FC5"/>
<path d="M5.81277 15.9552C5.68656 15.5609 5.90388 15.1389 6.29817 15.0127C6.69246 14.8865 7.11441 15.1038 7.24062 15.4981C7.36683 15.8924 7.14951 16.3144 6.75522 16.4406C6.36094 16.5668 5.93899 16.3495 5.81277 15.9552Z" fill="#004FC5"/>
<path d="M4.64825 12.3172C4.52204 11.9229 4.73936 11.501 5.13365 11.3748C5.52794 11.2486 5.94989 11.4659 6.0761 11.8602C6.20231 12.2545 5.98499 12.6764 5.5907 12.8026C5.19642 12.9288 4.77447 12.7115 4.64825 12.3172Z" fill="#004FC5"/>
<path d="M3.33072 20.7605C3.2045 20.3662 3.42182 19.9442 3.81611 19.818C4.2104 19.6918 4.63235 19.9091 4.75856 20.3034C4.88478 20.6977 4.66746 21.1196 4.27317 21.2459C3.87888 21.3721 3.45693 21.1548 3.33072 20.7605Z" fill="#004FC5"/>
<path d="M2.1662 17.1224C2.03998 16.7281 2.2573 16.3062 2.65159 16.18C3.04588 16.0537 3.46783 16.2711 3.59404 16.6653C3.72026 17.0596 3.50294 17.4816 3.10865 17.6078C2.71436 17.734 2.29241 17.5167 2.1662 17.1224Z" fill="#004FC5"/>
<path d="M1.00168 13.4845C0.875464 13.0902 1.09278 12.6682 1.48707 12.542C1.88136 12.4158 2.30331 12.6331 2.42952 13.0274C2.55573 13.4217 2.33842 13.8436 1.94413 13.9699C1.54984 14.0961 1.12789 13.8788 1.00168 13.4845Z" fill="#004FC5"/>
<path d="M-0.316135 21.9278C-0.442348 21.5335 -0.225029 21.1116 0.16926 20.9854C0.563549 20.8592 0.985499 21.0765 1.11171 21.4708C1.23792 21.8651 1.02061 22.287 0.626317 22.4132C0.232028 22.5394 -0.189922 22.3221 -0.316135 21.9278Z" fill="#004FC5"/>
<path d="M-1.48066 18.2899C-1.60687 17.8956 -1.38955 17.4736 -0.99526 17.3474C-0.600972 17.2212 -0.179021 17.4385 -0.0528083 17.8328C0.0734045 18.2271 -0.143915 18.6491 -0.538203 18.7753C-0.932492 18.9015 -1.35444 18.6842 -1.48066 18.2899Z" fill="#004FC5"/>
</g>
<g clip-path="url(#clip3_168_75)">
<path d="M47.9338 31.9388C48.6029 30.9613 48.8663 29.8676 48.7235 28.6575C48.594 27.5601 48.0805 26.658 47.1855 25.9501C46.2889 25.2424 45.2921 24.9535 44.1948 25.083L38.3494 25.7727C38.3823 25.5692 38.4187 25.3937 38.4583 25.2464C38.4973 25.0992 38.5573 24.9351 38.6354 24.7547C38.7137 24.5742 38.7693 24.4392 38.8014 24.3499C38.9982 23.842 39.1455 23.4249 39.2428 23.0999C39.3398 22.7742 39.4229 22.3366 39.4939 21.7862C39.5648 21.2361 39.5682 20.6934 39.5051 20.1587C39.4653 19.8212 39.4288 19.5471 39.3973 19.337C39.3658 19.1268 39.2926 18.8143 39.18 18.3996C39.0665 17.9852 38.9404 17.6434 38.802 17.3746C38.6631 17.1057 38.4567 16.8089 38.1835 16.4848C37.9098 16.16 37.5949 15.9087 37.2383 15.7296C36.8817 15.5505 36.4382 15.4175 35.9073 15.3304C35.3758 15.2433 34.7871 15.2379 34.1395 15.3143C33.7738 15.3575 33.4733 15.5285 33.2373 15.8275C32.9891 16.142 32.7911 16.5219 32.6441 16.9671C32.4968 17.4124 32.4027 17.7945 32.3618 18.1132C32.3209 18.4318 32.2836 18.8715 32.2502 19.4316C32.1929 20.0377 32.1485 20.4742 32.1155 20.742C32.083 21.0097 31.9999 21.3654 31.8669 21.8089C31.7337 22.2528 31.5557 22.6159 31.3322 22.8992C30.9228 23.4182 30.312 24.3462 29.4995 25.683C28.9162 26.6647 28.3062 27.5996 27.6693 28.4879C27.0323 29.3764 26.5467 29.8544 26.2124 29.9224C25.8643 29.992 25.5788 30.1719 25.3562 30.4622C25.1336 30.7523 25.0431 31.0734 25.0846 31.425L26.6807 44.9523C26.7239 45.3181 26.8944 45.6152 27.1925 45.844C27.4904 46.073 27.8232 46.1727 28.1906 46.1437C28.6847 46.0997 29.8326 46.2778 31.6347 46.6791C32.7609 46.9165 33.6413 47.0948 34.2757 47.2122C34.9099 47.3297 35.7893 47.4329 36.9116 47.5219C38.0349 47.6103 39.0606 47.6002 39.9889 47.4906L40.3478 47.4483L41.9517 47.259L42.7113 47.1694C44.5796 46.9205 45.9 46.2081 46.6746 45.0329C47.3758 43.9657 47.5701 42.6518 47.258 41.0909C47.7451 40.5057 48.0473 39.7999 48.1634 38.9729C48.301 38.087 48.2039 37.2639 47.8721 36.5043C48.4179 35.5697 48.6067 34.5703 48.438 33.5061C48.3866 33.0552 48.2183 32.5331 47.9338 31.9388Z" fill="#0068FF"/>
<path d="M22.2269 30.4145L16.1493 31.1316C15.7833 31.1748 15.4825 31.3459 15.2467 31.6448C15.011 31.9435 14.9146 32.2759 14.9578 32.6417L16.5515 46.1485C16.5946 46.5137 16.7657 46.8147 17.0646 47.0507C17.3636 47.2861 17.696 47.3825 18.0618 47.3393L24.1394 46.6222C24.5051 46.579 24.8058 46.4079 25.0417 46.1095C25.2774 45.8103 25.3737 45.4779 25.3306 45.1126L23.7368 31.6058C23.6937 31.24 23.5226 30.9392 23.2239 30.7035C22.9249 30.4676 22.5927 30.3713 22.2269 30.4145ZM21.3475 43.8168C21.111 44.1086 20.8098 44.276 20.444 44.3192C20.0641 44.364 19.7286 44.2717 19.4378 44.0421C19.1468 43.8126 18.979 43.5079 18.9341 43.128C18.891 42.7623 18.9836 42.4303 19.2124 42.1323C19.4411 41.8343 19.7453 41.6627 20.1253 41.6178C20.4911 41.5747 20.8234 41.6712 21.1222 41.907C21.4211 42.1426 21.5921 42.4435 21.6353 42.8093C21.6801 43.1892 21.5845 43.5249 21.3475 43.8168Z" fill="#0068FF"/>
<circle cx="20" cy="43" r="2" fill="white"/>
</g>
<circle cx="53.5" cy="20.5" r="1.5" fill="#0068FF"/>
<circle cx="13" cy="50" r="1" fill="#0068FF"/>
<circle cx="28" cy="9" r="1" fill="#0068FF"/>
</g>
<defs>
<clipPath id="clip0_168_75">
<rect y="0.5" width="64" height="64" rx="32" fill="white"/>
</clipPath>
<clipPath id="clip1_168_75">
<rect width="34.4615" height="23.3846" fill="white" transform="translate(78.7608 68.9384) rotate(-178.75)"/>
</clipPath>
<clipPath id="clip2_168_75">
<rect width="28.3031" height="28.3031" fill="white" transform="matrix(-0.304864 -0.952396 -0.952396 0.304864 19.5841 16.3789)"/>
</clipPath>
<clipPath id="clip3_168_75">
<rect width="34" height="34" fill="white" transform="translate(13.125 17.1093) rotate(-6.72958)"/>
</clipPath>
</defs>
</svg>
