<svg width="17" height="16" viewBox="0 0 17 16" fill="none" xmlns="http://www.w3.org/2000/svg">
<path d="M4.05276 15.2312V5.44891H0.658569V15.2312H4.05276ZM2.3561 4.1125C3.53972 4.1125 4.27646 3.36133 4.27646 2.42262C4.25441 1.46274 3.53977 0.732422 2.37857 0.732422C1.21755 0.732422 0.458313 1.46276 0.458313 2.42262C0.458313 3.36137 1.19488 4.1125 2.33395 4.1125H2.356H2.3561ZM5.93144 15.2312H9.32563V9.76831C9.32563 9.47594 9.34768 9.18388 9.43732 8.97488C9.68269 8.39074 10.2412 7.78573 11.1788 7.78573C12.407 7.78573 12.8984 8.6828 12.8984 9.99784V15.2312H16.2923V9.62208C16.2923 6.61733 14.6178 5.21925 12.3847 5.21925C10.5536 5.21925 9.74968 6.19969 9.30305 6.86746H9.32571V5.44871H5.93151C5.97606 6.36663 5.93151 15.231 5.93151 15.231L5.93144 15.2312Z" fill="white"/>
</svg>
