<svg width="64" height="65" viewBox="0 0 64 65" fill="none" xmlns="http://www.w3.org/2000/svg">
<g clip-path="url(#clip0_168_14)">
<rect y="0.5" width="64" height="64" rx="32" fill="#DAE6FF"/>
<g clip-path="url(#clip1_168_14)">
<path d="M11.8025 16.2947C11.9259 16.3767 12 16.515 12 16.6631C12 17.0161 11.6069 17.2269 11.3128 17.0316L8.70543 15.2994C8.0347 14.8538 7.16217 14.854 6.49157 15.2997L3.90388 17.0198C3.23295 17.4658 2.35993 17.4657 1.68912 17.0195L-0.895193 15.3007C-1.56617 14.8544 -2.43943 14.8544 -3.11041 15.3007L-5.69439 17.0193C-6.36537 17.4656 -7.23863 17.4656 -7.90961 17.0193L-10.4935 15.3007C-11.1645 14.8544 -12.0378 14.8544 -12.7088 15.3008L-15.3117 17.0322C-15.6061 17.228 -16 17.0169 -16 16.6634C-16 16.5151 -15.9258 16.3767 -15.8024 16.2945L-12.7088 14.2368C-12.0378 13.7904 -11.1645 13.7904 -10.4935 14.2367L-7.90961 15.9553C-7.23863 16.4016 -6.36537 16.4016 -5.69439 15.9553L-3.11041 14.2367C-2.43943 13.7904 -1.56617 13.7904 -0.895193 14.2367L1.68912 15.9555C2.35993 16.4017 3.23295 16.4018 3.90388 15.9558L6.49121 14.236C7.162 13.7901 8.0348 13.7901 8.70557 14.236L11.8025 16.2947Z" fill="#F0F5FF"/>
<path d="M11.8025 19.9808C11.9259 20.0628 12 20.201 12 20.3492C12 20.7022 11.6069 20.913 11.3128 20.7176L8.70543 18.9855C8.0347 18.5399 7.16217 18.54 6.49157 18.9858L3.90388 20.7059C3.23295 21.1519 2.35993 21.1517 1.68912 20.7056L-0.895193 18.9867C-1.56617 18.5404 -2.43943 18.5404 -3.11041 18.9867L-5.69439 20.7054C-6.36537 21.1516 -7.23863 21.1516 -7.90961 20.7054L-10.4935 18.9868C-11.1645 18.5405 -12.0378 18.5405 -12.7088 18.9868L-15.3117 20.7182C-15.6061 20.914 -16 20.703 -16 20.3494C-16 20.2011 -15.9258 20.0627 -15.8024 19.9806L-12.7088 17.9228C-12.0378 17.4765 -11.1645 17.4765 -10.4935 17.9228L-7.90961 19.6414C-7.23863 20.0876 -6.36537 20.0876 -5.69439 19.6414L-3.11041 17.9227C-2.43943 17.4764 -1.56617 17.4764 -0.895193 17.9227L1.68912 19.6416C2.35993 20.0877 3.23295 20.0879 3.90388 19.6419L6.49121 17.922C7.162 17.4761 8.0348 17.4761 8.70557 17.922L11.8025 19.9808Z" fill="#F0F5FF"/>
<path d="M11.8025 27.3527C11.9259 27.4347 12 27.573 12 27.7211C12 28.0741 11.6069 28.2849 11.3128 28.0896L8.70543 26.3574C8.0347 25.9118 7.16217 25.912 6.49157 26.3577L3.90388 28.0778C3.23295 28.5238 2.35993 28.5237 1.68912 28.0775L-0.895193 26.3587C-1.56617 25.9124 -2.43943 25.9124 -3.11041 26.3587L-5.69439 28.0773C-6.36537 28.5236 -7.23863 28.5236 -7.90961 28.0773L-10.4935 26.3587C-11.1645 25.9124 -12.0378 25.9124 -12.7088 26.3588L-15.3117 28.0902C-15.6061 28.286 -16 28.0749 -16 27.7213C-16 27.5731 -15.9258 27.4346 -15.8024 27.3525L-12.7088 25.2948C-12.0378 24.8484 -11.1645 24.8484 -10.4935 25.2947L-7.90961 27.0133C-7.23863 27.4596 -6.36537 27.4596 -5.69439 27.0133L-3.11041 25.2947C-2.43943 24.8484 -1.56617 24.8484 -0.895194 25.2947L1.68912 27.0135C2.35993 27.4597 3.23295 27.4598 3.90388 27.0138L6.49121 25.294C7.162 24.8481 8.0348 24.8481 8.70557 25.294L11.8025 27.3527Z" fill="#F0F5FF"/>
<path d="M11.8025 23.6667C11.9259 23.7487 12 23.887 12 24.0351C12 24.3881 11.6069 24.5989 11.3128 24.4036L8.70543 22.6714C8.0347 22.2258 7.16217 22.2259 6.49157 22.6717L3.90388 24.3918C3.23295 24.8378 2.35993 24.8376 1.68912 24.3915L-0.895193 22.6726C-1.56617 22.2264 -2.43943 22.2264 -3.11041 22.6726L-5.69439 24.3913C-6.36537 24.8375 -7.23863 24.8375 -7.90961 24.3913L-10.4935 22.6727C-11.1645 22.2264 -12.0378 22.2264 -12.7088 22.6727L-15.3117 24.4041C-15.6061 24.5999 -16 24.3889 -16 24.0353C-16 23.887 -15.9258 23.7486 -15.8024 23.6665L-12.7088 21.6087C-12.0378 21.1624 -11.1645 21.1624 -10.4935 21.6087L-7.90961 23.3273C-7.23863 23.7735 -6.36537 23.7735 -5.69439 23.3273L-3.11041 21.6086C-2.43943 21.1624 -1.56617 21.1624 -0.895193 21.6086L1.68912 23.3275C2.35993 23.7736 3.23295 23.7738 3.90388 23.3278L6.49121 21.6079C7.16199 21.162 8.0348 21.162 8.70557 21.6079L11.8025 23.6667Z" fill="#F0F5FF"/>
<path d="M11.8025 31.0387C11.9259 31.1207 12 31.259 12 31.4071C12 31.7601 11.6069 31.971 11.3128 31.7756L8.70543 30.0434C8.0347 29.5979 7.16217 29.598 6.49157 30.0438L3.90388 31.7639C3.23295 32.2098 2.35993 32.2097 1.68912 31.7636L-0.895192 30.0447C-1.56617 29.5984 -2.43943 29.5984 -3.11041 30.0447L-5.69439 31.7633C-6.36537 32.2096 -7.23863 32.2096 -7.90961 31.7633L-10.4935 30.0447C-11.1645 29.5984 -12.0378 29.5985 -12.7088 30.0448L-15.3117 31.7762C-15.6061 31.972 -16 31.761 -16 31.4074C-16 31.2591 -15.9258 31.1207 -15.8024 31.0386L-12.7088 28.9808C-12.0378 28.5345 -11.1645 28.5344 -10.4935 28.9807L-7.90961 30.6993C-7.23863 31.1456 -6.36537 31.1456 -5.69439 30.6993L-3.11041 28.9807C-2.43943 28.5344 -1.56617 28.5344 -0.895193 28.9807L1.68912 30.6996C2.35993 31.1457 3.23295 31.1458 3.90388 30.6999L6.49121 28.98C7.16199 28.5341 8.0348 28.5341 8.70557 28.98L11.8025 31.0387Z" fill="#F0F5FF"/>
</g>
<path d="M37.9536 52.4976C37.9536 52.7609 37.7402 52.9744 37.4768 52.9744C37.2135 52.9744 37 52.7609 37 52.4976C37 52.2342 37.2135 52.0208 37.4768 52.0208C37.7402 52.0208 37.9536 52.2342 37.9536 52.4976Z" fill="#2BB4A0"/>
<path d="M37.9536 54.9268C37.9536 55.1901 37.7402 55.4036 37.4768 55.4036C37.2135 55.4036 37 55.1901 37 54.9268C37 54.6634 37.2135 54.45 37.4768 54.45C37.7402 54.45 37.9536 54.6634 37.9536 54.9268Z" fill="#2BB4A0"/>
<path d="M37.9536 57.3561C37.9536 57.6194 37.7402 57.8329 37.4768 57.8329C37.2135 57.8329 37 57.6194 37 57.3561C37 57.0928 37.2135 56.8793 37.4768 56.8793C37.7402 56.8793 37.9536 57.0928 37.9536 57.3561Z" fill="#2BB4A0"/>
<path d="M37.9536 59.7854C37.9536 60.0488 37.7402 60.2622 37.4768 60.2622C37.2135 60.2622 37 60.0488 37 59.7854C37 59.5221 37.2135 59.3086 37.4768 59.3086C37.7402 59.3086 37.9536 59.5221 37.9536 59.7854Z" fill="#2BB4A0"/>
<path d="M37.9536 62.2146C37.9536 62.478 37.7402 62.6914 37.4768 62.6914C37.2135 62.6914 37 62.478 37 62.2146C37 61.9513 37.2135 61.7378 37.4768 61.7378C37.7402 61.7378 37.9536 61.9513 37.9536 62.2146Z" fill="#2BB4A0"/>
<path d="M37.9536 64.6439C37.9536 64.9073 37.7402 65.1208 37.4768 65.1208C37.2135 65.1208 37 64.9073 37 64.6439C37 64.3806 37.2135 64.1671 37.4768 64.1671C37.7402 64.1671 37.9536 64.3806 37.9536 64.6439Z" fill="#2BB4A0"/>
<path d="M40.3889 52.4976C40.3889 52.7609 40.1754 52.9744 39.912 52.9744C39.6487 52.9744 39.4352 52.7609 39.4352 52.4976C39.4352 52.2342 39.6487 52.0208 39.912 52.0208C40.1754 52.0208 40.3889 52.2342 40.3889 52.4976Z" fill="#2BB4A0"/>
<path d="M40.3889 54.9268C40.3889 55.1901 40.1754 55.4036 39.912 55.4036C39.6487 55.4036 39.4352 55.1901 39.4352 54.9268C39.4352 54.6634 39.6487 54.45 39.912 54.45C40.1754 54.45 40.3889 54.6634 40.3889 54.9268Z" fill="#2BB4A0"/>
<path d="M40.3889 57.3561C40.3889 57.6194 40.1754 57.8329 39.912 57.8329C39.6487 57.8329 39.4352 57.6194 39.4352 57.3561C39.4352 57.0928 39.6487 56.8793 39.912 56.8793C40.1754 56.8793 40.3889 57.0928 40.3889 57.3561Z" fill="#2BB4A0"/>
<path d="M40.3889 59.7854C40.3889 60.0488 40.1754 60.2622 39.912 60.2622C39.6487 60.2622 39.4352 60.0488 39.4352 59.7854C39.4352 59.5221 39.6487 59.3086 39.912 59.3086C40.1754 59.3086 40.3889 59.5221 40.3889 59.7854Z" fill="#2BB4A0"/>
<path d="M40.3889 62.2146C40.3889 62.478 40.1754 62.6914 39.912 62.6914C39.6487 62.6914 39.4352 62.478 39.4352 62.2146C39.4352 61.9513 39.6487 61.7378 39.912 61.7378C40.1754 61.7378 40.3889 61.9513 40.3889 62.2146Z" fill="#2BB4A0"/>
<path d="M40.3889 64.6439C40.3889 64.9073 40.1754 65.1208 39.912 65.1208C39.6487 65.1208 39.4352 64.9073 39.4352 64.6439C39.4352 64.3806 39.6487 64.1671 39.912 64.1671C40.1754 64.1671 40.3889 64.3806 40.3889 64.6439Z" fill="#2BB4A0"/>
<path d="M42.8241 52.4976C42.8241 52.7609 42.6106 52.9744 42.3473 52.9744C42.0839 52.9744 41.8704 52.7609 41.8704 52.4976C41.8704 52.2342 42.0839 52.0208 42.3473 52.0208C42.6106 52.0208 42.8241 52.2342 42.8241 52.4976Z" fill="#2BB4A0"/>
<path d="M42.8241 54.9268C42.8241 55.1901 42.6106 55.4036 42.3473 55.4036C42.0839 55.4036 41.8704 55.1901 41.8704 54.9268C41.8704 54.6634 42.0839 54.45 42.3473 54.45C42.6106 54.45 42.8241 54.6634 42.8241 54.9268Z" fill="#2BB4A0"/>
<path d="M42.8241 57.3561C42.8241 57.6194 42.6106 57.8329 42.3473 57.8329C42.0839 57.8329 41.8704 57.6194 41.8704 57.3561C41.8704 57.0928 42.0839 56.8793 42.3473 56.8793C42.6106 56.8793 42.8241 57.0928 42.8241 57.3561Z" fill="#2BB4A0"/>
<path d="M42.8241 59.7854C42.8241 60.0488 42.6106 60.2622 42.3473 60.2622C42.0839 60.2622 41.8704 60.0488 41.8704 59.7854C41.8704 59.5221 42.0839 59.3086 42.3473 59.3086C42.6106 59.3086 42.8241 59.5221 42.8241 59.7854Z" fill="#2BB4A0"/>
<path d="M42.8241 62.2146C42.8241 62.478 42.6106 62.6914 42.3473 62.6914C42.0839 62.6914 41.8704 62.478 41.8704 62.2146C41.8704 61.9513 42.0839 61.7378 42.3473 61.7378C42.6106 61.7378 42.8241 61.9513 42.8241 62.2146Z" fill="#2BB4A0"/>
<path d="M42.8241 64.6439C42.8241 64.9073 42.6106 65.1208 42.3473 65.1208C42.0839 65.1208 41.8704 64.9073 41.8704 64.6439C41.8704 64.3806 42.0839 64.1671 42.3473 64.1671C42.6106 64.1671 42.8241 64.3806 42.8241 64.6439Z" fill="#2BB4A0"/>
<path d="M45.2593 52.4976C45.2593 52.7609 45.0458 52.9744 44.7825 52.9744C44.5191 52.9744 44.3057 52.7609 44.3057 52.4976C44.3057 52.2342 44.5191 52.0208 44.7825 52.0208C45.0458 52.0208 45.2593 52.2342 45.2593 52.4976Z" fill="#2BB4A0"/>
<path d="M45.2593 54.9268C45.2593 55.1901 45.0458 55.4036 44.7825 55.4036C44.5191 55.4036 44.3057 55.1901 44.3057 54.9268C44.3057 54.6634 44.5191 54.45 44.7825 54.45C45.0458 54.45 45.2593 54.6634 45.2593 54.9268Z" fill="#2BB4A0"/>
<path d="M45.2593 57.3561C45.2593 57.6194 45.0458 57.8329 44.7825 57.8329C44.5191 57.8329 44.3057 57.6194 44.3057 57.3561C44.3057 57.0928 44.5191 56.8793 44.7825 56.8793C45.0458 56.8793 45.2593 57.0928 45.2593 57.3561Z" fill="#2BB4A0"/>
<path d="M47.6943 52.4976C47.6943 52.7609 47.4809 52.9744 47.2175 52.9744C46.9542 52.9744 46.7407 52.7609 46.7407 52.4976C46.7407 52.2342 46.9542 52.0208 47.2175 52.0208C47.4809 52.0208 47.6943 52.2342 47.6943 52.4976Z" fill="#2BB4A0"/>
<path d="M47.6943 54.9268C47.6943 55.1901 47.4809 55.4036 47.2175 55.4036C46.9542 55.4036 46.7407 55.1901 46.7407 54.9268C46.7407 54.6634 46.9542 54.45 47.2175 54.45C47.4809 54.45 47.6943 54.6634 47.6943 54.9268Z" fill="#2BB4A0"/>
<path d="M47.6943 57.3561C47.6943 57.6194 47.4809 57.8329 47.2175 57.8329C46.9542 57.8329 46.7407 57.6194 46.7407 57.3561C46.7407 57.0928 46.9542 56.8793 47.2175 56.8793C47.4809 56.8793 47.6943 57.0928 47.6943 57.3561Z" fill="#2BB4A0"/>
<path d="M50.1296 52.4976C50.1296 52.7609 49.9161 52.9744 49.6527 52.9744C49.3894 52.9744 49.1759 52.7609 49.1759 52.4976C49.1759 52.2342 49.3894 52.0208 49.6527 52.0208C49.9161 52.0208 50.1296 52.2342 50.1296 52.4976Z" fill="#2BB4A0"/>
<path d="M50.1296 54.9268C50.1296 55.1901 49.9161 55.4036 49.6527 55.4036C49.3894 55.4036 49.1759 55.1901 49.1759 54.9268C49.1759 54.6634 49.3894 54.45 49.6527 54.45C49.9161 54.45 50.1296 54.6634 50.1296 54.9268Z" fill="#2BB4A0"/>
<path d="M50.1296 57.3561C50.1296 57.6194 49.9161 57.8329 49.6527 57.8329C49.3894 57.8329 49.1759 57.6194 49.1759 57.3561C49.1759 57.0928 49.3894 56.8793 49.6527 56.8793C49.9161 56.8793 50.1296 57.0928 50.1296 57.3561Z" fill="#2BB4A0"/>
<path d="M52.5648 52.4976C52.5648 52.7609 52.3513 52.9744 52.088 52.9744C51.8246 52.9744 51.6111 52.7609 51.6111 52.4976C51.6111 52.2342 51.8246 52.0208 52.088 52.0208C52.3513 52.0208 52.5648 52.2342 52.5648 52.4976Z" fill="#2BB4A0"/>
<path d="M52.5648 54.9268C52.5648 55.1901 52.3513 55.4036 52.088 55.4036C51.8246 55.4036 51.6111 55.1901 51.6111 54.9268C51.6111 54.6634 51.8246 54.45 52.088 54.45C52.3513 54.45 52.5648 54.6634 52.5648 54.9268Z" fill="#2BB4A0"/>
<path d="M52.5648 57.3561C52.5648 57.6194 52.3513 57.8329 52.088 57.8329C51.8246 57.8329 51.6111 57.6194 51.6111 57.3561C51.6111 57.0928 51.8246 56.8793 52.088 56.8793C52.3513 56.8793 52.5648 57.0928 52.5648 57.3561Z" fill="#2BB4A0"/>
<path d="M55 52.4976C55 52.7609 54.7865 52.9744 54.5232 52.9744C54.2598 52.9744 54.0464 52.7609 54.0464 52.4976C54.0464 52.2342 54.2598 52.0208 54.5232 52.0208C54.7865 52.0208 55 52.2342 55 52.4976Z" fill="#2BB4A0"/>
<path d="M55 54.9268C55 55.1901 54.7865 55.4036 54.5232 55.4036C54.2598 55.4036 54.0464 55.1901 54.0464 54.9268C54.0464 54.6634 54.2598 54.45 54.5232 54.45C54.7865 54.45 55 54.6634 55 54.9268Z" fill="#2BB4A0"/>
<path d="M55 57.3561C55 57.6194 54.7865 57.8329 54.5232 57.8329C54.2598 57.8329 54.0464 57.6194 54.0464 57.3561C54.0464 57.0928 54.2598 56.8793 54.5232 56.8793C54.7865 56.8793 55 57.0928 55 57.3561Z" fill="#2BB4A0"/>
<g clip-path="url(#clip2_168_14)">
<path d="M35 27C35.4 26.6 35.1667 25.1667 35 24.5L35.9091 19.5C36.4394 19 37.6 17.9 38 17.5C38.5 17 39 17.5 41 16C43 14.5 43 17.5 44.5 19C46 20.5 44.5 20.5 44.5 22.5V26C44.5 26.5 40 31 38 32C36 33 37.5 32.5 37 33C36.5 33.5 33 36 32.5 36C32 36 29 38 26 37.5C25.2 37.1 24.6667 36.3333 24.5 36C24.3333 35.1667 24 33.2 24 32V31C24.5 30.6667 25.8 29.9 27 29.5C28.5 29 29.5 28.5 31 28C32.5 27.5 34.5 27.5 35 27Z" fill="white"/>
<path d="M39.9609 23.1016C40.5111 23.1016 40.957 22.6556 40.957 22.1055C40.957 21.5553 40.5111 21.1094 39.9609 21.1094C39.4108 21.1094 38.9648 21.5553 38.9648 22.1055C38.9648 22.6556 39.4108 23.1016 39.9609 23.1016Z" fill="#0068FF"/>
<path d="M40.957 43.0234V48.4164L46.4164 43.0234H40.957Z" fill="#0068FF"/>
<path d="M20.9688 28.8848L25.0974 40.0468L22.6487 45.1499L20.9688 44.367V49H38.9648V41.0312H47V15H20.9688V28.8848ZM34.6886 43.3153L33.2801 44.7238L31.9922 43.4359L30.7042 44.7238L29.2957 43.3153L30.5836 42.0273L29.2957 40.7394L30.7042 39.3309L31.9922 40.6188L33.2801 39.3309L34.6887 40.7394L33.4007 42.0273L34.6886 43.3153ZM42.6574 37.3387L41.2488 38.7473L39.9609 37.4593L38.673 38.7473L37.2644 37.3387L38.5524 36.0508L37.2644 34.7628L38.673 33.3543L39.9609 34.6422L41.2489 33.3543L42.6574 34.7628L41.3695 36.0508L42.6574 37.3387ZM27.3036 22.8097L28.7121 21.4012L30 22.6891L31.2879 21.4012L32.6965 22.8097L31.4085 24.0977L32.6965 25.3856L31.2879 26.7941L30 25.5062L28.7121 26.7941L27.3035 25.3856L28.5915 24.0977L27.3036 22.8097ZM28.0078 31.0703C29.166 31.0703 30.1612 31.7394 30.657 32.7052C34.5796 31.7294 37.6317 28.6772 38.6074 24.7547C37.6418 24.2589 36.9727 23.2637 36.9727 22.1055C36.9727 20.4577 38.3131 19.1172 39.9609 19.1172C41.6087 19.1172 42.9492 20.4577 42.9492 22.1055C42.9492 23.5383 41.9349 24.7365 40.587 25.0253C39.4759 29.8322 35.7346 33.5736 30.9276 34.6847C30.6388 36.0325 29.4407 37.0469 28.0078 37.0469C26.36 37.0469 25.0195 35.7064 25.0195 34.0586C25.0195 32.4108 26.36 31.0703 28.0078 31.0703Z" fill="#0068FF"/>
<path d="M28.0078 35.0547C28.5579 35.0547 29.0039 34.6087 29.0039 34.0586C29.0039 33.5085 28.5579 33.0625 28.0078 33.0625C27.4577 33.0625 27.0117 33.5085 27.0117 34.0586C27.0117 34.6087 27.4577 35.0547 28.0078 35.0547Z" fill="#0068FF"/>
<path d="M21.6857 42.503L22.8763 39.9525L16.7441 23.1016L13 24.4653L19.1322 41.3133L21.6857 42.503Z" fill="#0068FF"/>
</g>
</g>
<defs>
<clipPath id="clip0_168_14">
<rect y="0.5" width="64" height="64" rx="32" fill="white"/>
</clipPath>
<clipPath id="clip1_168_14">
<rect width="28" height="19" fill="white" transform="translate(-16 13.5)"/>
</clipPath>
<clipPath id="clip2_168_14">
<rect width="34" height="34" fill="white" transform="translate(13 15)"/>
</clipPath>
</defs>
</svg>
