<svg width="64" height="65" viewBox="0 0 64 65" fill="none" xmlns="http://www.w3.org/2000/svg">
<g clip-path="url(#clip0_39_491)">
<rect y="0.5" width="64" height="64" rx="32" fill="#DAE6FF"/>
<g clip-path="url(#clip1_39_491)">
<path d="M5.04636 41.0024C5.04636 40.7391 5.25984 40.5256 5.52318 40.5256C5.78652 40.5256 6 40.7391 6 41.0024C6 41.2658 5.78652 41.4792 5.52318 41.4792C5.25984 41.4792 5.04636 41.2658 5.04636 41.0024Z" fill="#2BB4A0"/>
<path d="M5.04636 38.5732C5.04636 38.3099 5.25984 38.0964 5.52318 38.0964C5.78652 38.0964 6 38.3099 6 38.5732C6 38.8366 5.78652 39.05 5.52318 39.05C5.25984 39.05 5.04636 38.8366 5.04636 38.5732Z" fill="#2BB4A0"/>
<path d="M5.04636 36.144C5.04636 35.8807 5.25984 35.6672 5.52318 35.6672C5.78652 35.6672 6 35.8807 6 36.144C6 36.4074 5.78652 36.6208 5.52318 36.6208C5.25984 36.6208 5.04636 36.4074 5.04636 36.144Z" fill="#2BB4A0"/>
<path d="M5.04636 33.7146C5.04636 33.4512 5.25984 33.2378 5.52318 33.2378C5.78652 33.2378 6 33.4512 6 33.7146C6 33.9779 5.78652 34.1914 5.52318 34.1914C5.25984 34.1914 5.04636 33.9779 5.04636 33.7146Z" fill="#2BB4A0"/>
<path d="M5.04636 31.2854C5.04636 31.022 5.25984 30.8086 5.52318 30.8086C5.78652 30.8086 6 31.022 6 31.2854C6 31.5487 5.78652 31.7622 5.52318 31.7622C5.25984 31.7622 5.04636 31.5487 5.04636 31.2854Z" fill="#2BB4A0"/>
<path d="M5.04636 28.8562C5.04636 28.5928 5.25984 28.3794 5.52318 28.3794C5.78652 28.3794 6 28.5928 6 28.8562C6 29.1195 5.78652 29.333 5.52318 29.333C5.25984 29.333 5.04636 29.1195 5.04636 28.8562Z" fill="#2BB4A0"/>
<path d="M5.04636 26.4267C5.04636 26.1634 5.25984 25.9499 5.52318 25.9499C5.78652 25.9499 6 26.1634 6 26.4267C6 26.6901 5.78652 26.9036 5.52318 26.9036C5.25984 26.9036 5.04636 26.6901 5.04636 26.4267Z" fill="#2BB4A0"/>
<path d="M5.04636 23.9975C5.04636 23.7342 5.25984 23.5207 5.52318 23.5207C5.78652 23.5207 6 23.7342 6 23.9975C6 24.2609 5.78652 24.4744 5.52318 24.4744C5.25984 24.4744 5.04636 24.2609 5.04636 23.9975Z" fill="#2BB4A0"/>
<path d="M2.61112 41.0024C2.61112 40.7391 2.8246 40.5256 3.08794 40.5256C3.35128 40.5256 3.56476 40.7391 3.56476 41.0024C3.56476 41.2658 3.35128 41.4792 3.08794 41.4792C2.8246 41.4792 2.61112 41.2658 2.61112 41.0024Z" fill="#2BB4A0"/>
<path d="M2.61112 38.5732C2.61112 38.3099 2.8246 38.0964 3.08794 38.0964C3.35128 38.0964 3.56476 38.3099 3.56476 38.5732C3.56476 38.8366 3.35128 39.05 3.08794 39.05C2.8246 39.05 2.61112 38.8366 2.61112 38.5732Z" fill="#2BB4A0"/>
<path d="M2.61112 36.144C2.61112 35.8807 2.8246 35.6672 3.08794 35.6672C3.35128 35.6672 3.56476 35.8807 3.56476 36.144C3.56476 36.4074 3.35128 36.6208 3.08794 36.6208C2.8246 36.6208 2.61112 36.4074 2.61112 36.144Z" fill="#2BB4A0"/>
<path d="M2.61112 33.7146C2.61112 33.4512 2.8246 33.2378 3.08794 33.2378C3.35128 33.2378 3.56476 33.4512 3.56476 33.7146C3.56476 33.9779 3.35128 34.1914 3.08794 34.1914C2.8246 34.1914 2.61112 33.9779 2.61112 33.7146Z" fill="#2BB4A0"/>
<path d="M2.61112 31.2854C2.61112 31.022 2.8246 30.8086 3.08794 30.8086C3.35128 30.8086 3.56476 31.022 3.56476 31.2854C3.56476 31.5487 3.35128 31.7622 3.08794 31.7622C2.8246 31.7622 2.61112 31.5487 2.61112 31.2854Z" fill="#2BB4A0"/>
<path d="M2.61112 28.8562C2.61112 28.5928 2.8246 28.3794 3.08794 28.3794C3.35128 28.3794 3.56476 28.5928 3.56476 28.8562C3.56476 29.1195 3.35128 29.333 3.08794 29.333C2.8246 29.333 2.61112 29.1195 2.61112 28.8562Z" fill="#2BB4A0"/>
<path d="M2.61112 26.4267C2.61112 26.1634 2.8246 25.9499 3.08794 25.9499C3.35128 25.9499 3.56476 26.1634 3.56476 26.4267C3.56476 26.6901 3.35128 26.9036 3.08794 26.9036C2.8246 26.9036 2.61112 26.6901 2.61112 26.4267Z" fill="#2BB4A0"/>
<path d="M2.61112 23.9975C2.61112 23.7342 2.8246 23.5207 3.08794 23.5207C3.35128 23.5207 3.56476 23.7342 3.56476 23.9975C3.56476 24.2609 3.35128 24.4744 3.08794 24.4744C2.8246 24.4744 2.61112 24.2609 2.61112 23.9975Z" fill="#2BB4A0"/>
<path d="M0.175938 41.0024C0.175938 40.7391 0.389417 40.5256 0.652758 40.5256C0.916098 40.5256 1.12958 40.7391 1.12958 41.0024C1.12958 41.2658 0.916098 41.4792 0.652758 41.4792C0.389417 41.4792 0.175938 41.2658 0.175938 41.0024Z" fill="#2BB4A0"/>
<path d="M0.175938 38.5732C0.175938 38.3099 0.389417 38.0964 0.652758 38.0964C0.916098 38.0964 1.12958 38.3099 1.12958 38.5732C1.12958 38.8366 0.916098 39.05 0.652758 39.05C0.389417 39.05 0.175938 38.8366 0.175938 38.5732Z" fill="#2BB4A0"/>
<path d="M0.175938 36.144C0.175938 35.8807 0.389417 35.6672 0.652758 35.6672C0.916098 35.6672 1.12958 35.8807 1.12958 36.144C1.12958 36.4074 0.916098 36.6208 0.652758 36.6208C0.389417 36.6208 0.175938 36.4074 0.175938 36.144Z" fill="#2BB4A0"/>
<path d="M0.175938 33.7146C0.175938 33.4512 0.389417 33.2378 0.652758 33.2378C0.916098 33.2378 1.12958 33.4512 1.12958 33.7146C1.12958 33.9779 0.916098 34.1914 0.652758 34.1914C0.389417 34.1914 0.175938 33.9779 0.175938 33.7146Z" fill="#2BB4A0"/>
<path d="M0.175938 31.2854C0.175938 31.022 0.389417 30.8086 0.652758 30.8086C0.916098 30.8086 1.12958 31.022 1.12958 31.2854C1.12958 31.5487 0.916098 31.7622 0.652758 31.7622C0.389417 31.7622 0.175938 31.5487 0.175938 31.2854Z" fill="#2BB4A0"/>
<path d="M0.175938 28.8562C0.175938 28.5928 0.389417 28.3794 0.652758 28.3794C0.916098 28.3794 1.12958 28.5928 1.12958 28.8562C1.12958 29.1195 0.916098 29.333 0.652758 29.333C0.389417 29.333 0.175938 29.1195 0.175938 28.8562Z" fill="#2BB4A0"/>
<path d="M0.175938 26.4267C0.175938 26.1634 0.389417 25.9499 0.652758 25.9499C0.916098 25.9499 1.12958 26.1634 1.12958 26.4267C1.12958 26.6901 0.916098 26.9036 0.652758 26.9036C0.389417 26.9036 0.175938 26.6901 0.175938 26.4267Z" fill="#2BB4A0"/>
<path d="M0.175938 23.9975C0.175938 23.7342 0.389417 23.5207 0.652758 23.5207C0.916098 23.5207 1.12958 23.7342 1.12958 23.9975C1.12958 24.2609 0.916098 24.4744 0.652758 24.4744C0.389417 24.4744 0.175938 24.2609 0.175938 23.9975Z" fill="#2BB4A0"/>
</g>
<path d="M23.8386 51.8723V60.7074L16 52.4338L23.8386 51.8723Z" fill="white"/>
<path d="M64.3399 58.1462V58.148L25.0983 62.0366V51.7807L55.5914 49.5981L64.3399 58.1462Z" fill="#2BB4A0"/>
<path d="M64.1064 27.7922L25.0959 30.3955V62.0385L64.3375 58.15V58.1481L64.1064 27.7922ZM46.1564 38.4507C46.9508 38.4507 47.5952 39.0969 47.5952 39.8913C47.5952 40.6856 46.9508 41.3301 46.1564 41.3301C45.3621 41.3301 44.7158 40.6856 44.7158 39.8913C44.7158 39.0969 45.3621 38.4507 46.1564 38.4507Z" fill="#2BB4A0"/>
<g clip-path="url(#clip2_39_491)">
<path d="M58.8025 1.29473C58.9259 1.37672 59 1.51501 59 1.66313C59 2.01612 58.6069 2.22693 58.3128 2.0316L55.7054 0.299429C55.0347 -0.146151 54.1622 -0.146031 53.4916 0.299734L50.9039 2.01983C50.2329 2.46582 49.3599 2.4657 48.6891 2.01953L46.1048 0.300681C45.4338 -0.145592 44.5606 -0.145592 43.8896 0.300681L41.3056 2.01932C40.6346 2.46559 39.7614 2.46559 39.0904 2.01932L36.5065 0.30072C35.8355 -0.145572 34.9622 -0.145551 34.2912 0.300774L31.6883 2.03217C31.3939 2.228 31 2.01693 31 1.66336C31 1.51509 31.0742 1.37666 31.1976 1.29454L34.2912 -0.763226C34.9622 -1.20955 35.8355 -1.20957 36.5065 -0.76328L39.0904 0.955319C39.7614 1.40159 40.6346 1.40159 41.3056 0.955319L43.8896 -0.763319C44.5606 -1.20959 45.4338 -1.20959 46.1048 -0.763319L48.6891 0.955534C49.3599 1.4017 50.2329 1.40182 50.9039 0.955832L53.4912 -0.764027C54.162 -1.20991 55.0348 -1.2099 55.7056 -0.764L58.8025 1.29473Z" fill="#F0F5FF"/>
<path d="M58.8025 4.98076C58.9259 5.06276 59 5.20105 59 5.34916C59 5.70216 58.6069 5.91297 58.3128 5.71764L55.7054 3.98546C55.0347 3.53988 54.1622 3.54 53.4916 3.98577L50.9039 5.70587C50.2329 6.15185 49.3599 6.15173 48.6891 5.70557L46.1048 3.98672C45.4338 3.54044 44.5606 3.54044 43.8896 3.98672L41.3056 5.70535C40.6346 6.15163 39.7614 6.15163 39.0904 5.70535L36.5065 3.98676C35.8355 3.54046 34.9622 3.54048 34.2912 3.98681L31.6883 5.7182C31.3939 5.91403 31 5.70297 31 5.34939C31 5.20113 31.0742 5.06269 31.1976 4.98058L34.2912 2.92281C34.9622 2.47648 35.8355 2.47646 36.5065 2.92276L39.0904 4.64135C39.7614 5.08763 40.6346 5.08763 41.3056 4.64135L43.8896 2.92272C44.5606 2.47644 45.4338 2.47644 46.1048 2.92272L48.6891 4.64157C49.3599 5.08773 50.2329 5.08785 50.9039 4.64187L53.4912 2.92201C54.162 2.47612 55.0348 2.47613 55.7056 2.92204L58.8025 4.98076Z" fill="#F0F5FF"/>
<path d="M58.8025 12.3528C58.9259 12.4348 59 12.5731 59 12.7212C59 13.0742 58.6069 13.285 58.3128 13.0897L55.7054 11.3575C55.0347 10.912 54.1622 10.9121 53.4916 11.3578L50.9039 13.0779C50.2329 13.5239 49.3599 13.5238 48.6891 13.0776L46.1048 11.3588C45.4338 10.9125 44.5606 10.9125 43.8896 11.3588L41.3056 13.0774C40.6346 13.5237 39.7614 13.5237 39.0904 13.0774L36.5065 11.3588C35.8355 10.9125 34.9622 10.9126 34.2912 11.3589L31.6883 13.0903C31.3939 13.2861 31 13.075 31 12.7215C31 12.5732 31.0742 12.4348 31.1976 12.3526L34.2912 10.2949C34.9622 9.84855 35.8355 9.84853 36.5065 10.2948L39.0904 12.0134C39.7614 12.4597 40.6346 12.4597 41.3056 12.0134L43.8896 10.2948C44.5606 9.84851 45.4338 9.84851 46.1048 10.2948L48.6891 12.0136C49.3599 12.4598 50.2329 12.4599 50.9039 12.0139L53.4912 10.2941C54.162 9.84819 55.0348 9.8482 55.7056 10.2941L58.8025 12.3528Z" fill="#F0F5FF"/>
<path d="M58.8025 8.6668C58.9259 8.74879 59 8.88708 59 9.0352C59 9.38819 58.6069 9.599 58.3128 9.40367L55.7054 7.6715C55.0347 7.22592 54.1622 7.22604 53.4916 7.6718L50.9039 9.3919C50.2329 9.83789 49.3599 9.83777 48.6891 9.3916L46.1048 7.67275C45.4338 7.22648 44.5606 7.22648 43.8896 7.67275L41.3056 9.39139C40.6346 9.83766 39.7614 9.83766 39.0904 9.39139L36.5065 7.67279C35.8355 7.2265 34.9622 7.22652 34.2912 7.67284L31.6883 9.40424C31.3939 9.60007 31 9.389 31 9.03543C31 8.88716 31.0742 8.74873 31.1976 8.66661L34.2912 6.60884C34.9622 6.16252 35.8355 6.1625 36.5065 6.60879L39.0904 8.32739C39.7614 8.77366 40.6346 8.77366 41.3056 8.32739L43.8896 6.60875C44.5606 6.16248 45.4338 6.16248 46.1048 6.60875L48.6891 8.3276C49.3599 8.77377 50.2329 8.77389 50.9039 8.3279L53.4912 6.60804C54.162 6.16216 55.0348 6.16217 55.7056 6.60807L58.8025 8.6668Z" fill="#F0F5FF"/>
<path d="M58.8025 16.0386C58.9259 16.1206 59 16.2589 59 16.407C59 16.76 58.6069 16.9708 58.3128 16.7755L55.7054 15.0433C55.0347 14.5977 54.1622 14.5979 53.4916 15.0436L50.9039 16.7637C50.2329 17.2097 49.3599 17.2096 48.6891 16.7634L46.1048 15.0446C45.4338 14.5983 44.5606 14.5983 43.8896 15.0446L41.3056 16.7632C40.6346 17.2095 39.7614 17.2095 39.0904 16.7632L36.5065 15.0446C35.8355 14.5983 34.9622 14.5983 34.2912 15.0447L31.6883 16.7761C31.3939 16.9719 31 16.7608 31 16.4073C31 16.259 31.0742 16.1206 31.1976 16.0384L34.2912 13.9807C34.9622 13.5343 35.8355 13.5343 36.5065 13.9806L39.0904 15.6992C39.7614 16.1455 40.6346 16.1455 41.3056 15.6992L43.8896 13.9806C44.5606 13.5343 45.4338 13.5343 46.1048 13.9806L48.6891 15.6994C49.3599 16.1456 50.2329 16.1457 50.9039 15.6997L53.4912 13.9799C54.162 13.534 55.0348 13.534 55.7056 13.9799L58.8025 16.0386Z" fill="#F0F5FF"/>
</g>
<g clip-path="url(#clip3_39_491)">
<path d="M37.6969 26.1396L35.1436 15.1746C35.1426 15.1703 35.1416 15.166 35.1405 15.1617C34.9585 14.4337 34.4631 13.8364 33.7813 13.5228C33.0995 13.2092 32.3236 13.2219 31.6526 13.5575L30.2007 14.2834C29.7955 14.486 29.6313 14.9787 29.8339 15.3839C30.0365 15.7892 30.5291 15.9534 30.9344 15.7508L32.3863 15.0248C32.61 14.913 32.8685 14.9087 33.0958 15.0133C33.3214 15.1171 33.4857 15.314 33.5475 15.5542L35.7162 24.8676C35.6573 24.8633 35.5983 24.8605 35.5387 24.8605H27.237C26.4968 24.8605 25.8031 25.1887 25.334 25.7611C25.1285 26.0117 24.9774 26.2953 24.8846 26.5958C24.3021 26.4679 23.6978 26.4679 23.1153 26.5958C23.0225 26.2952 22.8714 26.0116 22.6659 25.7611C22.1967 25.1887 21.5031 24.8604 20.7629 24.8604H12.4611C12.4016 24.8604 12.3426 24.8633 12.2837 24.8675L14.4524 15.5542C14.5141 15.314 14.6784 15.1171 14.904 15.0133C15.1313 14.9088 15.39 14.913 15.6137 15.0248L17.0655 15.7508C17.4708 15.9534 17.9634 15.7891 18.166 15.3839C18.3686 14.9787 18.2044 14.486 17.7992 14.2834L16.3473 13.5575C15.6762 13.2219 14.9002 13.2093 14.2185 13.5228C13.5367 13.8365 13.0414 14.4338 12.8594 15.1618C12.8583 15.1661 12.8573 15.1704 12.8563 15.1747L10.303 26.1396C10.0265 26.6431 9.9331 27.2292 10.048 27.8039L10.7686 31.4068C11.1507 33.3172 12.8421 34.7038 14.7904 34.7038H18.4337C20.3819 34.7038 22.0733 33.3172 22.4554 31.4068L23.0728 28.3203C23.6665 28.0801 24.3336 28.0801 24.9273 28.3203L25.5446 31.4068C25.9267 33.3172 27.618 34.7038 29.5664 34.7038H33.2097C35.1579 34.7038 36.8494 33.3172 37.2315 31.4068L37.952 27.804C38.0668 27.2292 37.9734 26.6431 37.6969 26.1396ZM21.5673 27.4822L20.8467 31.085C20.6174 32.2312 19.6026 33.0632 18.4337 33.0632H14.7904C13.6214 33.0632 12.6066 32.2312 12.3774 31.085L11.6568 27.4821C11.6084 27.2402 11.6704 26.992 11.8268 26.8013C11.9832 26.6105 12.2144 26.501 12.4611 26.501H20.763C21.0097 26.501 21.2409 26.6105 21.3973 26.8013C21.5537 26.9921 21.6157 27.2402 21.5673 27.4822ZM36.3431 27.4822L35.6225 31.085C35.3933 32.2312 34.3785 33.0632 33.2095 33.0632H29.5662C28.3972 33.0632 27.3824 32.2313 27.1532 31.085L26.4326 27.4821C26.3842 27.2402 26.4462 26.992 26.6026 26.8012C26.759 26.6105 26.9902 26.501 27.2369 26.501H35.5388C35.7855 26.501 36.0167 26.6104 36.1731 26.8012C36.3295 26.9921 36.3915 27.2402 36.3431 27.4822Z" fill="white"/>
</g>
</g>
<defs>
<clipPath id="clip0_39_491">
<rect y="0.5" width="64" height="64" rx="32" fill="white"/>
</clipPath>
<clipPath id="clip1_39_491">
<rect width="18" height="18" fill="white" transform="matrix(0 -1 -1 0 6 41.5)"/>
</clipPath>
<clipPath id="clip2_39_491">
<rect width="28" height="19" fill="white" transform="translate(31 -1.5)"/>
</clipPath>
<clipPath id="clip3_39_491">
<rect width="28" height="28" fill="white" transform="translate(10 10)"/>
</clipPath>
</defs>
</svg>
