<svg width="64" height="65" viewBox="0 0 64 65" fill="none" xmlns="http://www.w3.org/2000/svg">
<g clip-path="url(#clip0_168_144)">
<rect y="0.5" width="64" height="64" rx="32" fill="#DAE6FF"/>
<g clip-path="url(#clip1_168_144)">
<path d="M50.7794 27.8301C50.6298 27.7259 50.5423 27.5537 50.5463 27.3715C50.5557 26.9371 51.0451 26.6883 51.4017 26.9365L54.8152 29.3132C55.4761 29.7733 56.3484 29.7922 57.0286 29.3611L60.7771 26.9856C61.4576 26.5544 62.3304 26.5736 62.9914 27.0343L66.6287 29.5697C67.2898 30.0305 68.1629 30.0495 68.8434 29.618L72.5876 27.2439C73.2682 26.8123 74.1412 26.8314 74.8023 27.2922L78.4393 29.8273C79.1004 30.2882 79.9735 30.3072 80.6541 29.8756L84.1626 27.6507C84.5301 27.4176 85.0091 27.6879 84.9996 28.1229C84.9956 28.3054 84.9006 28.4737 84.7465 28.5715L80.6255 31.1848C79.9449 31.6164 79.0718 31.5974 78.4107 31.1366L74.7737 28.6014C74.1126 28.1406 73.2396 28.1216 72.559 28.5531L68.8149 30.9272C68.1343 31.3588 67.2613 31.3397 66.6002 30.8789L62.9628 28.3435C62.3019 27.8828 61.4291 27.8636 60.7486 28.2949L57.0004 30.6701C56.32 31.1013 55.4474 31.0822 54.7865 30.6218L50.7794 27.8301Z" fill="#F0F5FF"/>
<path d="M50.8783 23.2945C50.7287 23.1903 50.6412 23.0182 50.6452 22.8359C50.6547 22.4016 51.1441 22.1527 51.5006 22.401L54.9142 24.7776C55.575 25.2377 56.4473 25.2567 57.1275 24.8256L60.8761 22.4501C61.5566 22.0189 62.4294 22.038 63.0903 22.4987L66.7277 25.0342C67.3888 25.495 68.2618 25.514 68.9424 25.0825L72.6865 22.7083C73.3671 22.2768 74.2401 22.2959 74.9012 22.7567L78.5382 25.2918C79.1993 25.7526 80.0724 25.7717 80.753 25.3401L84.2615 23.1151C84.629 22.8821 85.108 23.1524 85.0985 23.5874C85.0946 23.7699 84.9996 23.9382 84.8455 24.0359L80.7244 26.6493C80.0439 27.0809 79.1708 27.0619 78.5097 26.601L74.8727 24.0659C74.2116 23.6051 73.3385 23.586 72.658 24.0176L68.9138 26.3917C68.2332 26.8232 67.3602 26.8042 66.6991 26.3434L63.0617 23.808C62.4008 23.3473 61.528 23.3281 60.8475 23.7593L57.0993 26.1346C56.419 26.5658 55.5464 26.5467 54.8855 26.0863L50.8783 23.2945Z" fill="#F0F5FF"/>
<path d="M51.0762 14.2235C50.9266 14.1193 50.8392 13.9471 50.8431 13.7649C50.8526 13.3305 51.342 13.0817 51.6986 13.3299L55.1121 15.7066C55.773 16.1667 56.6453 16.1856 57.3255 15.7546L61.074 13.3791C61.7545 12.9478 62.6273 12.967 63.2882 13.4277L66.9256 15.9631C67.5867 16.4239 68.4597 16.443 69.1403 16.0114L72.8845 13.6373C73.565 13.2058 74.4381 13.2248 75.0992 13.6856L78.7362 16.2208C79.3973 16.6816 80.2704 16.7006 80.9509 16.269L84.4595 14.0441C84.827 13.811 85.306 14.0813 85.2965 14.5164C85.2925 14.6988 85.1975 14.8672 85.0434 14.9649L80.9224 17.5783C80.2418 18.0099 79.3687 17.9908 78.7076 17.53L75.0706 14.9948C74.4095 14.534 73.5365 14.515 72.8559 14.9465L69.1117 17.3207C68.4312 17.7522 67.5581 17.7331 66.897 17.2723L63.2597 14.7369C62.5988 14.2762 61.7259 14.2571 61.0454 14.6883L57.2972 17.0636C56.6169 17.4947 55.7443 17.4757 55.0834 17.0152L51.0762 14.2235Z" fill="#F0F5FF"/>
<path d="M50.9773 18.759C50.8277 18.6548 50.7402 18.4827 50.7442 18.3004C50.7537 17.8661 51.2431 17.6172 51.5996 17.8655L55.0132 20.2421C55.674 20.7022 56.5463 20.7211 57.2265 20.2901L60.9751 17.9146C61.6556 17.4834 62.5284 17.5025 63.1893 17.9632L66.8267 20.4986C67.4878 20.9594 68.3608 20.9785 69.0414 20.547L72.7855 18.1728C73.4661 17.7413 74.3391 17.7603 75.0002 18.2211L78.6372 20.7563C79.2983 21.2171 80.1714 21.2362 80.852 20.8046L84.3605 18.5796C84.728 18.3465 85.207 18.6168 85.1975 19.0519C85.1936 19.2343 85.0986 19.4027 84.9445 19.5004L80.8234 22.1138C80.1429 22.5454 79.2698 22.5263 78.6087 22.0655L74.9717 19.5304C74.3106 19.0696 73.4375 19.0505 72.757 19.482L69.0128 21.8562C68.3322 22.2877 67.4592 22.2687 66.7981 21.8079L63.1607 19.2724C62.4998 18.8117 61.627 18.7926 60.9465 19.2238L57.1983 21.5991C56.518 22.0302 55.6454 22.0112 54.9845 21.5508L50.9773 18.759Z" fill="#F0F5FF"/>
<path d="M51.1752 9.68797C51.0256 9.58377 50.9382 9.41162 50.9421 9.22936C50.9516 8.79501 51.441 8.54617 51.7976 8.79441L55.2111 11.1711C55.872 11.6312 56.7443 11.6501 57.4244 11.2191L61.173 8.84355C61.8535 8.41231 62.7263 8.43147 63.3872 8.89216L67.0246 11.4276C67.6857 11.8884 68.5587 11.9074 69.2393 11.4759L72.9835 9.10177C73.664 8.67024 74.5371 8.68929 75.1982 9.15009L78.8352 11.6853C79.4963 12.1461 80.3694 12.1651 81.0499 11.7335L84.5585 9.50856C84.926 9.2755 85.405 9.54579 85.3955 9.98086C85.3915 10.1633 85.2965 10.3316 85.1424 10.4294L81.0214 13.0428C80.3408 13.4743 79.4677 13.4553 78.8066 12.9945L75.1696 10.4593C74.5085 9.99851 73.6355 9.97946 72.9549 10.411L69.2107 12.7851C68.5302 13.2167 67.6571 13.1976 66.996 12.7368L63.3587 10.2014C62.6978 9.7407 61.8249 9.72153 61.1444 10.1528L57.3962 12.5281C56.7159 12.9592 55.8433 12.9401 55.1824 12.4797L51.1752 9.68797Z" fill="#F0F5FF"/>
</g>
<g clip-path="url(#clip2_168_144)">
<path d="M12.7581 41.3872C12.3441 41.389 12.007 41.0549 12.0052 40.6409C12.0034 40.2269 12.3375 39.8898 12.7515 39.888C13.1655 39.8862 13.5026 40.2204 13.5044 40.6344C13.5062 41.0484 13.1721 41.3854 12.7581 41.3872Z" fill="white"/>
<path d="M8.93831 41.404C8.52431 41.4058 8.18724 41.0716 8.18544 40.6576C8.18363 40.2436 8.51777 39.9066 8.93177 39.9048C9.34576 39.903 9.68283 40.2371 9.68464 40.6511C9.68644 41.0651 9.3523 41.4022 8.93831 41.404Z" fill="#004FC5"/>
<path d="M5.11854 41.4206C4.70455 41.4224 4.36748 41.0882 4.36567 40.6742C4.36387 40.2602 4.69801 39.9232 5.112 39.9214C5.526 39.9196 5.86307 40.2537 5.86487 40.6677C5.86668 41.0817 5.53254 41.4188 5.11854 41.4206Z" fill="#004FC5"/>
<path d="M1.29878 41.4373C0.884789 41.4391 0.547716 41.1049 0.54591 40.691C0.544103 40.277 0.878247 39.9399 1.29224 39.9381C1.70623 39.9363 2.0433 40.2704 2.04511 40.6844C2.04692 41.0984 1.71277 41.4355 1.29878 41.4373Z" fill="#004FC5"/>
<path d="M12.7748 45.2163C12.3608 45.2181 12.0237 44.884 12.0219 44.47C12.0201 44.056 12.3542 43.7189 12.7682 43.7171C13.1822 43.7153 13.5193 44.0495 13.5211 44.4635C13.5229 44.8775 13.1888 45.2145 12.7748 45.2163Z" fill="#004FC5"/>
<path d="M8.955 45.2331C8.54101 45.2349 8.20394 44.9007 8.20213 44.4867C8.20032 44.0727 8.53447 43.7357 8.94846 43.7339C9.36245 43.7321 9.69952 44.0662 9.70133 44.4802C9.70314 44.8942 9.36899 45.2313 8.955 45.2331Z" fill="#004FC5"/>
<path d="M5.13527 45.2497C4.72127 45.2515 4.3842 44.9173 4.3824 44.5033C4.38059 44.0893 4.71473 43.7523 5.12873 43.7505C5.54272 43.7487 5.87979 44.0828 5.8816 44.4968C5.8834 44.9108 5.54926 45.2479 5.13527 45.2497Z" fill="white"/>
<path d="M1.3155 45.2664C0.901512 45.2682 0.56444 44.9341 0.562633 44.5201C0.560827 44.1061 0.894971 43.769 1.30896 43.7672C1.72296 43.7654 2.06003 44.0995 2.06183 44.5135C2.06364 44.9275 1.7295 45.2646 1.3155 45.2664Z" fill="#004FC5"/>
<path d="M12.7915 49.0454C12.3775 49.0472 12.0404 48.7131 12.0386 48.2991C12.0368 47.8851 12.3709 47.548 12.7849 47.5462C13.1989 47.5444 13.536 47.8786 13.5378 48.2926C13.5396 48.7066 13.2054 49.0436 12.7915 49.0454Z" fill="#004FC5"/>
<path d="M8.97172 49.0622C8.55773 49.064 8.22066 48.7298 8.21885 48.3158C8.21705 47.9018 8.55119 47.5648 8.96518 47.563C9.37918 47.5612 9.71625 47.8953 9.71805 48.3093C9.71986 48.7233 9.38572 49.0604 8.97172 49.0622Z" fill="#004FC5"/>
<path d="M5.15196 49.0788C4.73797 49.0806 4.4009 48.7464 4.39909 48.3324C4.39728 47.9184 4.73143 47.5814 5.14542 47.5796C5.55941 47.5778 5.89648 47.9119 5.89829 48.3259C5.9001 48.7399 5.56595 49.077 5.15196 49.0788Z" fill="#004FC5"/>
<path d="M1.3322 49.0955C0.918205 49.0973 0.581133 48.7632 0.579326 48.3492C0.57752 47.9352 0.911664 47.5981 1.32566 47.5963C1.73965 47.5945 2.07672 47.9286 2.07853 48.3426C2.08033 48.7566 1.74619 49.0937 1.3322 49.0955Z" fill="#004FC5"/>
<path d="M12.8082 52.8745C12.3942 52.8763 12.0571 52.5422 12.0553 52.1282C12.0535 51.7142 12.3876 51.3771 12.8016 51.3753C13.2156 51.3735 13.5527 51.7077 13.5545 52.1217C13.5563 52.5357 13.2222 52.8727 12.8082 52.8745Z" fill="#004FC5"/>
<path d="M8.98842 52.8911C8.57442 52.8929 8.23735 52.5588 8.23555 52.1448C8.23374 51.7308 8.56788 51.3937 8.98188 51.3919C9.39587 51.3901 9.73294 51.7243 9.73475 52.1383C9.73655 52.5523 9.40241 52.8893 8.98842 52.8911Z" fill="white"/>
<path d="M5.16868 52.9079C4.75469 52.9097 4.41762 52.5755 4.41581 52.1615C4.41401 51.7475 4.74815 51.4105 5.16214 51.4087C5.57614 51.4069 5.91321 51.741 5.91501 52.155C5.91682 52.569 5.58268 52.9061 5.16868 52.9079Z" fill="#004FC5"/>
<path d="M12.8249 56.7034C12.4109 56.7052 12.0738 56.3711 12.072 55.9571C12.0702 55.5431 12.4043 55.206 12.8183 55.2042C13.2323 55.2024 13.5694 55.5365 13.5712 55.9505C13.573 56.3645 13.2389 56.7016 12.8249 56.7034Z" fill="white"/>
<path d="M9.00514 56.72C8.59115 56.7218 8.25408 56.3877 8.25227 55.9737C8.25046 55.5597 8.58461 55.2226 8.9986 55.2208C9.41259 55.219 9.74966 55.5531 9.75147 55.9671C9.75328 56.3811 9.41913 56.7182 9.00514 56.72Z" fill="#004FC5"/>
<path d="M5.18538 56.7367C4.77138 56.7385 4.43431 56.4044 4.43251 55.9904C4.4307 55.5764 4.76484 55.2393 5.17884 55.2375C5.59283 55.2357 5.9299 55.5699 5.93171 55.9839C5.93351 56.3978 5.59937 56.7349 5.18538 56.7367Z" fill="#004FC5"/>
<path d="M12.8416 60.5324C12.4276 60.5342 12.0905 60.2 12.0887 59.786C12.0869 59.3721 12.4211 59.035 12.8351 59.0332C13.249 59.0314 13.5861 59.3655 13.5879 59.7795C13.5897 60.1935 13.2556 60.5306 12.8416 60.5324Z" fill="#004FC5"/>
<path d="M9.02183 60.5491C8.60784 60.5509 8.27077 60.2168 8.26896 59.8028C8.26716 59.3888 8.6013 59.0517 9.01529 59.0499C9.42929 59.0481 9.76636 59.3822 9.76816 59.7962C9.76997 60.2102 9.43583 60.5473 9.02183 60.5491Z" fill="#004FC5"/>
<path d="M5.20207 60.5658C4.78808 60.5676 4.45101 60.2335 4.4492 59.8195C4.44739 59.4055 4.78154 59.0684 5.19553 59.0666C5.60952 59.0648 5.94659 59.399 5.9484 59.813C5.95021 60.2269 5.61606 60.564 5.20207 60.5658Z" fill="#004FC5"/>
<path d="M12.8583 64.3615C12.4443 64.3633 12.1072 64.0291 12.1054 63.6152C12.1036 63.2012 12.4378 62.8641 12.8517 62.8623C13.2657 62.8605 13.6028 63.1946 13.6046 63.6086C13.6064 64.0226 13.2723 64.3597 12.8583 64.3615Z" fill="#004FC5"/>
<path d="M9.03856 64.3782C8.62456 64.38 8.28749 64.0459 8.28569 63.6319C8.28388 63.2179 8.61802 62.8808 9.03202 62.879C9.44601 62.8772 9.78308 63.2113 9.78489 63.6253C9.78669 64.0393 9.45255 64.3764 9.03856 64.3782Z" fill="#004FC5"/>
<path d="M5.21879 64.3948C4.8048 64.3966 4.46773 64.0625 4.46592 63.6485C4.46412 63.2345 4.79826 62.8974 5.21225 62.8956C5.62625 62.8938 5.96332 63.2279 5.96512 63.6419C5.96693 64.0559 5.63279 64.393 5.21879 64.3948Z" fill="#004FC5"/>
</g>
<g clip-path="url(#clip3_168_144)">
<rect x="26.7222" y="23.5555" width="13.7222" height="15.8333" fill="white"/>
<path d="M34.0683 13H28.6269C27.9074 13 27.3228 13.5846 27.3228 14.3041C27.3228 15.0237 27.9074 15.6083 28.6269 15.6083H34.0683C34.7878 15.6083 35.3724 15.0237 35.3724 14.3041C35.3724 13.5846 34.7878 13 34.0683 13Z" fill="#0068FF"/>
<path d="M48.5937 21.5894L45.0411 18.0368C44.5464 17.5421 43.737 17.5421 43.1974 18.0368C42.7027 18.5315 42.7027 19.3409 43.1974 19.8805L46.7051 23.3882C46.9749 23.6581 47.2897 23.748 47.6045 23.748C47.9192 23.748 48.279 23.6131 48.5039 23.3882C49.0884 22.8935 49.0884 22.0841 48.5937 21.5894Z" fill="#0068FF"/>
<path d="M31.3251 18.4414C22.331 18.4414 15.0458 25.7266 15.0458 34.7208C15.0458 43.7149 22.331 51.0001 31.3251 51.0001C40.3192 51.0001 47.6044 43.7149 47.6044 34.7208C47.6044 25.7266 40.3192 18.4414 31.3251 18.4414ZM38.0707 36.4746H31.3251C30.6056 36.4746 30.021 35.8899 30.021 35.1704V26.716C30.021 25.9965 30.6056 25.4119 31.3251 25.4119C32.0446 25.4119 32.6293 25.9965 32.6293 26.716V33.9113H38.0707C38.7902 33.9113 39.3748 34.4959 39.3748 35.2154C39.3748 35.89 38.7902 36.4746 38.0707 36.4746Z" fill="#0068FF"/>
</g>
</g>
<defs>
<clipPath id="clip0_168_144">
<rect y="0.5" width="64" height="64" rx="32" fill="white"/>
</clipPath>
<clipPath id="clip1_168_144">
<rect width="34.4615" height="23.3846" fill="white" transform="translate(84.9147 32.0154) rotate(-178.75)"/>
</clipPath>
<clipPath id="clip2_168_144">
<rect width="28.3031" height="28.3031" fill="white" transform="matrix(-0.999991 0.00436331 0.00436331 0.999991 13.5337 39.8846)"/>
</clipPath>
<clipPath id="clip3_168_144">
<rect width="38" height="38" fill="white" transform="translate(13 13)"/>
</clipPath>
</defs>
</svg>
