<svg width="19" height="15" viewBox="0 0 19 15" fill="none" xmlns="http://www.w3.org/2000/svg">
<path d="M18.2794 2.34704C17.6124 2.62201 16.905 2.8025 16.1806 2.8825C16.9352 2.46164 17.5145 1.7952 17.7873 1.00114C17.07 1.39725 16.2853 1.67634 15.467 1.82634C14.8004 1.16547 13.8508 0.752441 12.7998 0.752441C10.7818 0.752441 9.14563 2.27504 9.14563 4.15298C9.14563 4.41954 9.17798 4.67905 9.24025 4.928C6.20341 4.78614 3.51096 3.43234 1.70869 1.37492C1.39422 1.87717 1.21403 2.46139 1.21403 3.08451C1.21403 4.26434 1.85918 5.30516 2.83959 5.91501C2.25932 5.8981 1.69182 5.75224 1.18446 5.48962C1.18425 5.50387 1.18425 5.51811 1.18425 5.53242C1.18425 7.18005 2.44379 8.55451 4.11534 8.86691C3.57726 9.0031 3.01285 9.02303 2.46522 8.92519C2.93017 10.2762 4.27967 11.2593 5.87858 11.2868C4.62802 12.1989 3.05241 12.7426 1.34051 12.7426C1.04553 12.7426 0.754714 12.7264 0.468842 12.695C2.08591 13.6599 4.0066 14.2229 6.07011 14.2229C12.7913 14.2229 16.4666 9.04108 16.4666 4.54735C16.4666 4.39986 16.4631 4.25321 16.456 4.10739C17.1714 3.62612 17.7888 3.03001 18.2794 2.34704Z" fill="white"/>
</svg>
